WIPSHDC-Old-Traditional-Serif.glyphspackage
{
glyphname = uni4E49;
layers = (
{
layerId = m01;
shapes = (
{
closed = 1;
nodes = (
(226,683,l),
(308,303,o),
(528,44,o),
(902,-70,c),
(914,-47,o),
(935,-35,o),
(960,-36,c),
(963,-25,l),
(574,77,o),
(334,331,o),
(246,696,c)
);
},
{
closed = 1;
nodes = (
(754,748,l),
(675,379,o),
(476,87,o),
(41,-57,c),
(50,-74,l),
(513,59,o),
(713,351,o),
(800,708,c),
(829,706,o),
(839,712,o),
(844,725,c)
);
},
{
closed = 1;
nodes = (
(380,805,l),
(436,750,o),
(505,655,o),
(516,584,c),
(573,539,o),
(611,684,o),
(393,813,c)
);
},
{
closed = 1;
nodes = (
(284,756,l),
(242,768,l),
(224,702,l),
(188,659,o),
(130,597,o),
(95,565,c),
(160,509,l),
(168,518,o),
(170,529,o),
(160,540,c),
(185,578,o),
(222,651,o),
(246,696,c)
);
}
);
vertWidth = 1000;
width = 1000;
},
{
layerId = "435FFEB5-1267-4A4D-8575-60B204161920";
shapes = (
{
closed = 1;
nodes = (
(223,732,l),
(296,294,o),
(493,47,o),
(811,-92,c),
(842,-23,o),
(899,20,o),
(974,25,c),
(978,38,l),
(631,138,o),
(337,346,o),
(238,739,c)
);
},
{
closed = 1;
nodes = (
(686,796,l),
(629,444,o),
(479,94,o),
(20,-86,c),
(27,-97,l),
(583,30,o),
(756,364,o),
(845,727,c),
(874,729,o),
(883,737,o),
(887,750,c)
);
},
{
closed = 1;
nodes = (
(342,849,l),
(382,788,o),
(416,708,o),
(423,633,c),
(552,533,o),
(677,765,o),
(350,854,c)
);
},
{
closed = 1;
nodes = (
(280,796,l),
(224,811,l),
(215,744,l),
(179,711,o),
(114,662,o),
(76,638,c),
(155,541,l),
(164,548,o),
(168,562,o),
(160,575,c),
(181,614,o),
(217,693,o),
(238,739,c)
);
}
);
vertWidth = 1000;
width = 1000;
}
);
note = cid09602;
unicode = 20041;
}
{
glyphname = uni4FC1;
layers = (
{
layerId = m01;
shapes = (
{
closed = 1;
nodes = (
(177,548,l),
(177,-73,l),
(185,-73,ls),
(202,-73,o),
(221,-60,o),
(222,-56,c),
(222,544,l),
(238,546,o),
(248,553,o),
(251,562,c),
(202,580,l)
);
},
{
closed = 1;
nodes = (
(269,832,l),
(215,645,o),
(125,459,o),
(39,342,c),
(54,331,l),
(155,440,o),
(248,611,o),
(311,787,c),
(333,786,o),
(345,795,o),
(349,806,c)
);
},
{
closed = 1;
nodes = (
(522,570,l),
(522,541,l),
(807,541,l),
(807,570,l)
);
},
{
closed = 1;
nodes = (
(346,739,l),
(346,334,l),
(355,334,ls),
(371,334,o),
(390,345,o),
(390,353,cs),
(390,702,l),
(415,706,o),
(425,715,o),
(427,729,c)
);
},
{
closed = 1;
nodes = (
(381,433,l),
(381,404,l),
(822,404,l),
(822,433,l)
);
},
{
closed = 1;
nodes = (
(271,235,l),
(279,205,l),
(939,205,ls),
(953,205,o),
(961,210,o),
(963,221,c),
(941,247,o),
(901,285,o),
(901,285,c),
(868,235,l)
);
},
{
closed = 1;
nodes = (
(794,788,l),
(794,501,l),
(800,501,ls),
(815,501,o),
(837,514,o),
(838,520,c),
(838,749,l),
(858,753,o),
(875,761,o),
(882,768,c),
(814,821,l),
(784,788,l)
);
},
{
closed = 1;
nodes = (
(493,788,l),
(493,488,l),
(499,488,ls),
(521,488,o),
(537,500,o),
(537,504,cs),
(537,788,l),
(549,788,l),
(493,815,l)
);
},
{
closed = 1;
nodes = (
(521,788,l),
(521,759,l),
(806,759,l),
(806,788,l)
);
},
{
closed = 1;
nodes = (
(603,221,l),
(660,68,o),
(765,-30,o),
(924,-77,c),
(929,-55,o),
(946,-42,o),
(965,-38,c),
(966,-27,l),
(805,4,o),
(680,97,o),
(621,229,c)
);
},
{
closed = 1;
nodes = (
(795,433,l),
(795,227,l),
(839,227,l),
(839,402,l),
(854,404,o),
(862,406,o),
(869,413,c),
(814,462,l),
(786,433,l)
);
},
{
closed = 1;
nodes = (
(571,419,l),
(571,195,o),
(569,57,o),
(260,-52,c),
(273,-70,l),
(610,36,o),
(618,176,o),
(620,419,c)
);
}
);
vertWidth = 1000;
width = 1000;
},
{
layerId = "435FFEB5-1267-4A4D-8575-60B204161920";
shapes = (
{
closed = 1;
nodes = (
(133,524,l),
(133,-95,l),
(160,-95,ls),
(217,-95,o),
(276,-65,o),
(278,-54,c),
(278,529,l),
(298,533,o),
(306,540,o),
(309,549,c),
(186,594,l)
);
},
{
closed = 1;
nodes = (
(198,856,l),
(163,661,o),
(84,460,o),
(5,332,c),
(16,325,l),
(159,426,o),
(270,572,o),
(349,778,c),
(372,777,o),
(385,786,o),
(390,799,c)
);
},
{
closed = 1;
nodes = (
(624,579,l),
(624,551,l),
(813,551,l),
(813,579,l)
);
},
{
closed = 1;
nodes = (
(356,750,l),
(356,311,l),
(381,311,ls),
(427,311,o),
(486,334,o),
(486,343,cs),
(486,717,l),
(503,720,o),
(508,727,o),
(510,736,c)
);
},
{
closed = 1;
nodes = (
(458,440,l),
(458,412,l),
(780,412,l),
(780,440,l)
);
},
{
closed = 1;
nodes = (
(295,240,l),
(303,212,l),
(963,212,ls),
(977,212,o),
(986,217,o),
(989,228,c),
(963,264,o),
(912,320,o),
(912,320,c),
(868,240,l)
);
},
{
closed = 1;
nodes = (
(780,787,l),
(780,496,l),
(804,496,ls),
(847,496,o),
(915,519,o),
(916,526,c),
(916,740,l),
(934,744,o),
(946,752,o),
(951,759,c),
(829,850,l),
(770,787,l)
);
},
{
closed = 1;
nodes = (
(530,787,l),
(530,478,l),
(554,478,ls),
(622,478,o),
(662,506,o),
(662,514,cs),
(662,787,l),
(678,787,l),
(530,842,l)
);
},
{
closed = 1;
nodes = (
(624,787,l),
(624,759,l),
(813,759,l),
(813,787,l)
);
},
{
closed = 1;
nodes = (
(660,235,l),
(693,69,o),
(753,-29,o),
(878,-92,c),
(892,-18,o),
(929,30,o),
(981,45,c),
(982,56,l),
(849,74,o),
(721,138,o),
(669,239,c)
);
},
{
closed = 1;
nodes = (
(743,440,l),
(743,221,l),
(876,221,l),
(876,395,l),
(896,398,o),
(903,402,o),
(911,411,c),
(783,499,l),
(733,440,l)
);
},
{
closed = 1;
nodes = (
(534,426,l),
(534,179,o),
(538,34,o),
(286,-82,c),
(294,-95,l),
(652,-4,o),
(671,141,o),
(674,426,c)
);
}
);
vertWidth = 1000;
width = 1000;
}
);
note = cid10153;
unicode = 20417;
}
{
glyphname = uni506F;
layers = (
{
layerId = m01;
shapes = (
{
closed = 1;
nodes = (
(251,834,l),
(201,649,o),
(118,464,o),
(36,346,c),
(52,336,l),
(161,462,o),
(242,639,o),
(293,789,c),
(316,788,o),
(327,797,o),
(331,809,c)
);
},
{
closed = 1;
nodes = (
(175,553,l),
(175,-73,l),
(183,-73,ls),
(199,-73,o),
(218,-60,o),
(219,-56,c),
(219,543,l),
(236,545,o),
(246,552,o),
(249,561,c),
(191,583,l)
);
},
{
closed = 1;
nodes = (
(587,827,l),
(587,687,l),
(631,687,l),
(631,790,l),
(655,793,o),
(666,803,o),
(668,817,c)
);
},
{
closed = 1;
nodes = (
(301,709,l),
(309,679,l),
(924,679,ls),
(937,679,o),
(947,684,o),
(949,695,c),
(921,723,o),
(874,759,o),
(874,759,c),
(833,709,l)
);
},
{
closed = 1;
nodes = (
(393,588,l),
(393,281,l),
(399,281,ls),
(421,281,o),
(436,292,o),
(436,297,cs),
(436,558,l),
(808,558,l),
(808,588,l),
(448,588,l),
(393,613,l)
);
},
{
closed = 1;
nodes = (
(787,588,l),
(787,294,l),
(794,294,ls),
(811,294,o),
(831,306,o),
(831,310,cs),
(831,555,l),
(850,558,o),
(861,564,o),
(866,571,c),
(808,616,l),
(784,588,l)
);
},
{
closed = 1;
nodes = (
(415,374,l),
(415,344,l),
(808,344,l),
(808,374,l)
);
},
{
closed = 1;
nodes = (
(570,367,l),
(502,262,o),
(391,165,o),
(259,95,c),
(269,77,l),
(422,142,o),
(549,240,o),
(622,351,c),
(622,367,l)
);
},
{
closed = 1;
nodes = (
(478,237,l),
(478,3,l),
(484,3,ls),
(506,3,o),
(522,10,o),
(522,14,cs),
(522,267,l)
);
},
{
closed = 1;
nodes = (
(371,-72,l),
(380,-68,o),
(387,-60,o),
(391,-48,c),
(524,-3,o),
(626,37,o),
(700,64,c),
(696,81,l),
(617,60,o),
(397,2,o),
(336,-10,c)
);
},
{
closed = 1;
nodes = (
(870,318,l),
(829,274,o),
(768,217,o),
(712,170,c),
(725,157,l),
(794,196,o),
(864,240,o),
(905,271,c),
(920,265,o),
(932,266,o),
(938,275,c)
);
},
{
closed = 1;
nodes = (
(604,358,l),
(663,151,o),
(766,9,o),
(914,-70,c),
(922,-46,o),
(939,-31,o),
(961,-29,c),
(963,-18,l),
(811,43,o),
(689,181,o),
(622,367,c)
);
}
);
vertWidth = 1000;
width = 1000;
},
{
layerId = "435FFEB5-1267-4A4D-8575-60B204161920";
shapes = (
{
closed = 1;
nodes = (
(170,855,l),
(143,662,o),
(78,460,o),
(10,329,c),
(21,321,l),
(162,439,o),
(248,600,o),
(304,777,c),
(327,775,o),
(340,784,o),
(345,796,c)
);
},
{
closed = 1;
nodes = (
(107,516,l),
(107,-95,l),
(131,-95,ls),
(181,-95,o),
(236,-69,o),
(237,-60,c),
(237,523,l),
(256,526,o),
(265,533,o),
(269,542,c),
(153,584,l)
);
},
{
closed = 1;
nodes = (
(543,844,l),
(543,678,l),
(683,678,l),
(683,805,l),
(707,809,o),
(714,818,o),
(715,831,c)
);
},
{
closed = 1;
nodes = (
(305,698,l),
(313,670,l),
(942,670,ls),
(956,670,o),
(967,675,o),
(970,686,c),
(927,727,o),
(854,787,o),
(854,787,c),
(789,698,l)
);
},
{
closed = 1;
nodes = (
(357,591,l),
(357,303,l),
(381,303,ls),
(429,303,o),
(488,319,o),
(488,334,cs),
(488,563,l),
(803,563,l),
(803,591,l),
(498,591,l),
(357,644,l)
);
},
{
closed = 1;
nodes = (
(743,591,l),
(743,318,l),
(768,318,ls),
(840,318,o),
(881,339,o),
(881,343,cs),
(881,554,l),
(904,559,o),
(913,565,o),
(919,574,c),
(802,661,l),
(740,591,l)
);
},
{
closed = 1;
nodes = (
(428,374,l),
(428,346,l),
(803,346,l),
(803,374,l)
);
},
{
closed = 1;
nodes = (
(497,366,l),
(453,272,o),
(361,179,o),
(260,123,c),
(268,110,l),
(448,163,o),
(585,249,o),
(650,350,c),
(650,366,l)
);
},
{
closed = 1;
nodes = (
(460,232,l),
(460,30,l),
(484,30,ls),
(551,30,o),
(590,46,o),
(591,49,c),
(591,319,l)
);
},
{
closed = 1;
nodes = (
(385,-100,l),
(397,-97,o),
(408,-89,o),
(414,-75,c),
(559,-10,o),
(656,41,o),
(718,77,c),
(717,88,l),
(544,67,o),
(392,51,o),
(321,46,c)
);
},
{
closed = 1;
nodes = (
(839,325,l),
(816,275,o),
(782,213,o),
(750,164,c),
(756,155,l),
(804,171,o),
(878,201,o),
(949,233,c),
(965,229,o),
(975,230,o),
(980,238,c)
);
},
{
closed = 1;
nodes = (
(642,357,l),
(679,132,o),
(749,-4,o),
(873,-92,c),
(890,-24,o),
(930,20,o),
(980,33,c),
(982,44,l),
(827,101,o),
(709,215,o),
(653,363,c)
);
}
);
vertWidth = 1000;
width = 1000;
}
);
note = cid10439;
unicode = 20591;
}
{
glyphname = uni515D;
layers = (
{
layerId = m01;
shapes = (
{
closed = 1;
nodes = (
(753,787,l),
(771,787,l),
(771,766,l),
(792,649,o),
(844,542,o),
(925,464,c),
(932,482,o),
(950,494,o),
(968,496,c),
(971,506,l),
(889,567,o),
(826,662,o),
(799,752,c),
(827,754,o),
(847,760,o),
(857,772,c),
(781,826,l)
);
},
{
closed = 1;
nodes = (
(796,787,l),
(604,787,l),
(613,757,l),
(796,757,l)
);
},
{
closed = 1;
nodes = (
(629,463,l),
(624,343,o),
(601,199,o),
(446,86,c),
(460,70,l),
(640,181,o),
(668,330,o),
(678,463,c)
);
},
{
closed = 1;
nodes = (
(806,483,l),
(816,483,l),
(811,254,o),
(798,158,o),
(778,136,cs),
(771,129,o),
(764,127,o),
(748,127,cs),
(731,127,o),
(686,131,o),
(657,133,c),
(656,115,l),
(680,112,o),
(708,106,o),
(717,99,cs),
(728,92,o),
(730,78,o),
(730,66,c),
(758,66,o),
(787,75,o),
(806,95,cs),
(837,127,o),
(853,230,o),
(858,450,c),
(878,452,o),
(890,456,o),
(896,464,c),
(834,514,l)
);
},
{
closed = 1;
nodes = (
(845,483,l),
(541,483,l),
(550,453,l),
(845,453,l)
);
},
{
closed = 1;
nodes = (
(598,742,l),
(587,659,o),
(555,545,o),
(501,472,c),
(513,458,l),
(581,525,o),
(621,628,o),
(642,703,c),
(666,702,o),
(673,707,o),
(678,718,c)
);
},
{
closed = 1;
nodes = (
(204,328,l),
(197,166,o),
(165,45,o),
(47,-57,c),
(57,-72,l),
(195,23,o),
(239,147,o),
(253,328,c)
);
},
{
closed = 1;
nodes = (
(326,328,l),
(326,20,ls),
(326,-32,o),
(348,-45,o),
(454,-45,cs),
(659,-45,ls),
(922,-45,o),
(960,-40,o),
(960,-12,cs),
(960,-2,o),
(952,3,o),
(930,9,c),
(928,144,l),
(914,144,l),
(904,81,o),
(893,33,o),
(885,15,cs),
(880,5,o),
(876,1,o),
(857,-1,cs),
(829,-4,o),
(755,-5,o),
(658,-5,cs),
(454,-5,ls),
(378,-5,o),
(370,2,o),
(370,24,cs),
(370,328,l)
);
},
{
closed = 1;
nodes = (
(265,834,l),
(265,529,l),
(309,529,l),
(309,797,l),
(333,800,o),
(344,810,o),
(346,824,c)
);
},
{
closed = 1;
nodes = (
(431,696,l),
(42,696,l),
(50,666,l),
(520,666,ls),
(534,666,o),
(544,671,o),
(546,682,c),
(517,710,o),
(471,746,o),
(471,746,c)
);
},
{
closed = 1;
nodes = (
(138,514,l),
(455,514,l),
(455,544,l),
(143,544,l),
(94,568,l),
(94,280,l),
(101,280,ls),
(119,280,o),
(138,290,o),
(138,294,cs)
);
},
{
closed = 1;
nodes = (
(455,343,l),
(116,343,l),
(116,313,l),
(455,313,l)
);
},
{
closed = 1;
nodes = (
(423,544,l),
(433,544,l),
(433,286,l),
(439,286,ls),
(454,286,o),
(476,298,o),
(477,304,c),
(477,505,l),
(496,509,o),
(512,517,o),
(518,524,c),
(452,575,l)
);
}
);
vertWidth = 1000;
width = 1000;
},
{
layerId = "435FFEB5-1267-4A4D-8575-60B204161920";
shapes = (
{
closed = 1;
nodes = (
(727,789,l),
(748,789,l),
(748,773,l),
(759,648,o),
(808,530,o),
(875,468,c),
(889,520,o),
(928,566,o),
(977,587,c),
(977,600,l),
(886,627,o),
(807,687,o),
(771,760,c),
(810,763,o),
(845,772,o),
(857,786,c),
(760,848,l)
);
},
{
closed = 1;
nodes = (
(768,789,l),
(602,789,l),
(611,761,l),
(768,761,l)
);
},
{
closed = 1;
nodes = (
(572,485,l),
(569,356,o),
(566,219,o),
(452,100,c),
(463,87,l),
(657,187,o),
(694,335,o),
(702,485,c)
);
},
{
closed = 1;
nodes = (
(737,498,l),
(747,498,l),
(746,301,o),
(744,244,o),
(731,231,cs),
(726,226,o),
(720,224,o),
(708,224,cs),
(692,224,o),
(658,225,o),
(639,226,c),
(639,215,l),
(669,206,o),
(685,195,o),
(696,178,cs),
(708,161,o),
(710,131,o),
(710,93,c),
(761,93,o),
(796,104,o),
(824,126,cs),
(866,160,o),
(872,223,o),
(874,449,c),
(894,453,o),
(905,459,o),
(912,467,c),
(801,559,l)
);
},
{
closed = 1;
nodes = (
(807,498,l),
(524,498,l),
(533,470,l),
(807,470,l)
);
},
{
closed = 1;
nodes = (
(561,765,l),
(553,682,o),
(537,604,o),
(502,528,c),
(480,473,l),
(576,520,o),
(642,604,o),
(684,684,c),
(708,683,o),
(716,690,o),
(720,700,c)
);
},
{
closed = 1;
nodes = (
(143,341,l),
(143,184,o),
(127,39,o),
(24,-75,c),
(31,-86,l),
(198,5,o),
(256,156,o),
(268,341,c)
);
},
{
closed = 1;
nodes = (
(292,340,l),
(292,54,ls),
(292,-42,o),
(337,-58,o),
(478,-58,cs),
(652,-58,ls),
(923,-58,o),
(975,-37,o),
(975,22,cs),
(975,49,o),
(963,63,o),
(918,76,c),
(915,202,l),
(905,202,l),
(878,136,o),
(861,99,o),
(845,79,cs),
(835,68,o),
(826,64,o),
(803,62,cs),
(777,61,o),
(722,60,o),
(665,60,cs),
(483,60,ls),
(431,60,o),
(422,65,o),
(422,84,cs),
(422,340,l)
);
},
{
closed = 1;
nodes = (
(212,855,l),
(212,536,l),
(349,536,l),
(349,813,l),
(377,817,o),
(384,827,o),
(386,841,c)
);
},
{
closed = 1;
nodes = (
(371,701,l),
(23,701,l),
(31,673,l),
(530,673,ls),
(544,673,o),
(555,677,o),
(558,689,c),
(512,729,o),
(438,785,o),
(438,785,c)
);
},
{
closed = 1;
nodes = (
(202,525,l),
(423,525,l),
(423,553,l),
(207,553,l),
(69,605,l),
(69,285,l),
(87,285,ls),
(142,285,o),
(202,312,o),
(202,322,cs)
);
},
{
closed = 1;
nodes = (
(425,352,l),
(142,352,l),
(142,324,l),
(425,324,l)
);
},
{
closed = 1;
nodes = (
(350,553,l),
(360,553,l),
(360,296,l),
(381,296,ls),
(428,296,o),
(493,318,o),
(495,325,c),
(495,508,l),
(509,511,o),
(522,518,o),
(528,527,c),
(409,616,l)
);
}
);
vertWidth = 1000;
width = 1000;
}
);
note = cid10877;
unicode = 20829;
}
{
glyphname = uni5241;
layers = (
{
layerId = m01;
shapes = (
{
closed = 1;
nodes = (
(338,240,l),
(421,179,o),
(501,103,o),
(546,40,c),
(605,12,o),
(615,137,o),
(348,251,c)
);
},
{
closed = 1;
nodes = (
(859,815,l),
(859,10,ls),
(859,-5,o),
(854,-11,o),
(834,-11,cs),
(815,-11,o),
(715,-3,o),
(715,-3,c),
(715,-20,l),
(758,-25,o),
(783,-31,o),
(798,-40,cs),
(811,-48,o),
(816,-62,o),
(819,-75,c),
(895,-67,o),
(903,-38,o),
(903,5,cs),
(903,779,l),
(927,782,o),
(937,791,o),
(940,805,c)
);
},
{
closed = 1;
nodes = (
(681,744,l),
(681,121,l),
(690,121,ls),
(707,121,o),
(725,132,o),
(725,140,cs),
(725,708,l),
(750,711,o),
(759,720,o),
(762,734,c)
);
},
{
closed = 1;
nodes = (
(317,436,l),
(317,-76,l),
(326,-76,ls),
(343,-76,o),
(361,-65,o),
(361,-57,cs),
(361,400,l),
(386,403,o),
(395,412,o),
(398,426,c)
);
},
{
closed = 1;
nodes = (
(288,295,l),
(248,191,o),
(153,79,o),
(41,4,c),
(53,-13,l),
(177,56,o),
(285,168,o),
(334,279,c),
(334,295,l)
);
},
{
closed = 1;
nodes = (
(53,305,l),
(61,275,l),
(600,275,ls),
(615,275,o),
(625,280,o),
(628,292,c),
(598,320,o),
(553,354,o),
(553,354,c),
(513,305,l)
);
},
{
closed = 1;
nodes = (
(183,779,l),
(183,750,l),
(458,750,l),
(458,779,l)
);
},
{
closed = 1;
nodes = (
(176,779,l),
(176,696,ls),
(176,592,o),
(158,478,o),
(38,385,c),
(51,371,l),
(199,464,o),
(220,587,o),
(220,696,cs),
(220,779,l),
(230,779,l),
(176,807,l)
);
},
{
closed = 1;
nodes = (
(423,779,l),
(423,486,ls),
(423,455,o),
(431,441,o),
(476,441,cs),
(521,441,ls),
(598,441,o),
(616,451,o),
(616,470,cs),
(616,480,o),
(613,485,o),
(598,491,c),
(594,591,l),
(581,591,l),
(575,551,o),
(566,502,o),
(562,492,cs),
(559,485,o),
(557,484,o),
(551,484,cs),
(546,483,o),
(534,483,o),
(520,483,cs),
(484,483,ls),
(470,483,o),
(468,486,o),
(468,497,cs),
(468,741,l),
(486,743,o),
(496,748,o),
(502,755,c),
(443,808,l),
(415,779,l)
);
}
);
vertWidth = 1000;
width = 1000;
},
{
layerId = "435FFEB5-1267-4A4D-8575-60B204161920";
shapes = (
{
closed = 1;
nodes = (
(365,236,l),
(411,179,o),
(452,104,o),
(469,43,c),
(596,-39,o),
(705,185,o),
(373,241,c)
);
},
{
closed = 1;
nodes = (
(801,841,l),
(801,68,ls),
(801,56,o),
(796,51,o),
(781,51,cs),
(759,51,o),
(659,57,o),
(659,57,c),
(659,44,l),
(710,35,o),
(730,20,o),
(746,0,cs),
(761,-21,o),
(766,-52,o),
(769,-95,c),
(914,-82,o),
(934,-33,o),
(934,58,cs),
(934,797,l),
(959,800,o),
(969,810,o),
(970,825,c)
);
},
{
closed = 1;
nodes = (
(626,784,l),
(626,135,l),
(648,135,ls),
(696,135,o),
(749,159,o),
(749,169,cs),
(749,741,l),
(776,745,o),
(783,755,o),
(785,769,c)
);
},
{
closed = 1;
nodes = (
(257,439,l),
(257,-94,l),
(282,-94,ls),
(332,-94,o),
(391,-68,o),
(391,-58,cs),
(391,399,l),
(416,402,o),
(422,412,o),
(424,424,c)
);
},
{
closed = 1;
nodes = (
(195,284,l),
(175,172,o),
(110,56,o),
(25,-17,c),
(34,-28,l),
(190,37,o),
(309,151,o),
(343,268,c),
(343,284,l)
);
},
{
closed = 1;
nodes = (
(43,294,l),
(51,266,l),
(585,266,ls),
(599,266,o),
(610,271,o),
(613,282,c),
(568,322,o),
(495,381,o),
(495,381,c),
(431,294,l)
);
},
{
closed = 1;
nodes = (
(205,775,l),
(205,747,l),
(438,747,l),
(438,775,l)
);
},
{
closed = 1;
nodes = (
(140,775,l),
(140,698,ls),
(140,593,o),
(124,478,o),
(21,375,c),
(30,363,l),
(232,456,o),
(272,582,o),
(272,697,cs),
(272,775,l),
(292,775,l),
(140,826,l)
);
},
{
closed = 1;
nodes = (
(376,775,l),
(376,537,ls),
(376,459,o),
(383,432,o),
(467,432,cs),
(507,432,ls),
(582,432,o),
(622,459,o),
(622,507,cs),
(622,531,o),
(618,546,o),
(594,560,c),
(591,665,l),
(581,665,l),
(566,617,o),
(553,578,o),
(545,565,cs),
(540,557,o),
(536,555,o),
(530,555,cs),
(527,555,o),
(525,555,o),
(522,555,cs),
(517,555,ls),
(509,555,o),
(507,558,o),
(507,569,cs),
(507,738,l),
(523,741,o),
(532,746,o),
(538,753,c),
(428,844,l),
(365,775,l)
);
}
);
vertWidth = 1000;
width = 1000;
}
);
note = cid11221;
unicode = 21057;
}
{
glyphname = uni53FC;
layers = (
{
layerId = m01;
shapes = (
{
closed = 1;
nodes = (
(429,218,l),
(437,223,o),
(442,233,o),
(443,245,c),
(536,298,o),
(669,380,o),
(788,459,c),
(780,475,l),
(616,384,o),
(464,304,o),
(386,268,c)
);
},
{
closed = 1;
nodes = (
(867,726,l),
(399,726,l),
(408,696,l),
(867,696,l)
);
},
{
closed = 1;
nodes = (
(315,216,l),
(105,216,l),
(105,186,l),
(315,186,l)
);
},
{
closed = 1;
nodes = (
(284,679,l),
(294,679,l),
(294,103,l),
(300,103,ls),
(316,103,o),
(337,116,o),
(338,122,c),
(338,640,l),
(358,644,o),
(375,651,o),
(382,659,c),
(314,712,l)
);
},
{
closed = 1;
nodes = (
(125,649,l),
(316,649,l),
(316,679,l),
(131,679,l),
(82,705,l),
(82,51,l),
(90,51,ls),
(110,51,o),
(125,63,o),
(125,69,cs)
);
},
{
closed = 1;
nodes = (
(831,726,l),
(842,726,l),
(834,316,o),
(815,50,o),
(774,8,cs),
(762,-5,o),
(755,-7,o),
(734,-7,cs),
(712,-7,o),
(642,0,o),
(599,5,c),
(598,-15,l),
(634,-21,o),
(676,-30,o),
(691,-39,cs),
(704,-47,o),
(707,-61,o),
(707,-75,c),
(747,-75,o),
(786,-60,o),
(810,-26,cs),
(856,33,o),
(877,286,o),
(885,692,c),
(907,694,o),
(919,699,o),
(927,707,c),
(861,761,l)
);
}
);
vertWidth = 1000;
width = 1000;
},
{
layerId = "435FFEB5-1267-4A4D-8575-60B204161920";
shapes = (
{
closed = 1;
nodes = (
(491,201,l),
(503,206,o),
(512,217,o),
(514,230,c),
(611,305,o),
(714,396,o),
(781,464,c),
(777,473,l),
(613,409,o),
(466,354,o),
(396,331,c)
);
},
{
closed = 1;
nodes = (
(847,735,l),
(410,735,l),
(419,707,l),
(847,707,l)
);
},
{
closed = 1;
nodes = (
(309,223,l),
(135,223,l),
(135,195,l),
(309,195,l)
);
},
{
closed = 1;
nodes = (
(239,703,l),
(249,703,l),
(249,102,l),
(271,102,ls),
(318,102,o),
(379,134,o),
(380,145,c),
(380,656,l),
(399,660,o),
(411,668,o),
(417,676,c),
(299,768,l)
);
},
{
closed = 1;
nodes = (
(185,675,l),
(316,675,l),
(316,703,l),
(189,703,l),
(56,757,l),
(56,51,l),
(76,51,ls),
(134,51,o),
(185,81,o),
(185,96,cs)
);
},
{
closed = 1;
nodes = (
(790,735,l),
(802,735,l),
(797,308,o),
(789,110,o),
(751,74,cs),
(741,65,o),
(730,60,o),
(714,60,cs),
(689,60,o),
(632,63,o),
(591,67,c),
(591,55,l),
(638,43,o),
(669,27,o),
(686,5,cs),
(702,-13,o),
(707,-46,o),
(707,-93,c),
(774,-93,o),
(823,-76,o),
(861,-35,cs),
(921,29,o),
(931,188,o),
(937,682,c),
(961,686,o),
(975,694,o),
(983,703,c),
(864,811,l)
);
}
);
vertWidth = 1000;
width = 1000;
}
);
note = cid11921;
unicode = 21500;
}
{
glyphname = uni5406;
layers = (
{
layerId = m01;
shapes = (
{
closed = 1;
nodes = (
(82,85,l),
(90,85,ls),
(109,85,o),
(125,97,o),
(125,103,cs),
(125,675,l),
(315,675,l),
(315,705,l),
(131,705,l),
(82,731,l)
);
},
{
closed = 1;
nodes = (
(293,705,l),
(293,133,l),
(299,133,ls),
(315,133,o),
(336,146,o),
(337,152,c),
(337,665,l),
(357,669,o),
(373,677,o),
(380,685,c),
(313,738,l),
(283,705,l)
);
},
{
closed = 1;
nodes = (
(103,244,l),
(103,214,l),
(315,214,l),
(315,244,l)
);
},
{
closed = 1;
nodes = (
(644,809,l),
(590,687,o),
(533,565,o),
(496,492,c),
(510,480,l),
(559,547,o),
(628,654,o),
(688,758,c),
(708,755,o),
(721,764,o),
(726,774,c)
);
},
{
closed = 1;
nodes = (
(391,577,l),
(451,521,o),
(529,424,o),
(548,353,c),
(610,310,o),
(636,456,o),
(404,585,c)
);
},
{
closed = 1;
nodes = (
(803,621,l),
(722,458,o),
(592,242,o),
(466,61,c),
(493,61,l),
(623,223,o),
(756,418,o),
(838,568,c),
(860,564,o),
(873,571,o),
(879,582,c)
);
},
{
closed = 1;
nodes = (
(369,-11,l),
(378,-8,o),
(387,-1,o),
(392,11,c),
(541,39,o),
(727,76,o),
(872,106,c),
(872,125,l),
(640,92,o),
(434,66,o),
(337,57,c)
);
},
{
closed = 1;
nodes = (
(742,272,l),
(826,166,o),
(888,53,o),
(903,-21,c),
(965,-72,o),
(1000,86,o),
(756,278,c)
);
}
);
vertWidth = 1000;
width = 1000;
},
{
layerId = "435FFEB5-1267-4A4D-8575-60B204161920";
shapes = (
{
closed = 1;
nodes = (
(59,69,l),
(80,69,ls),
(139,69,o),
(194,101,o),
(194,115,cs),
(194,653,l),
(312,653,l),
(312,681,l),
(197,681,l),
(59,737,l)
);
},
{
closed = 1;
nodes = (
(252,681,l),
(252,126,l),
(274,126,ls),
(319,126,o),
(383,152,o),
(384,160,c),
(384,632,l),
(404,636,o),
(418,645,o),
(424,653,c),
(302,747,l),
(242,681,l)
);
},
{
closed = 1;
nodes = (
(134,242,l),
(134,214,l),
(312,214,l),
(312,242,l)
);
},
{
closed = 1;
nodes = (
(601,845,l),
(573,736,o),
(536,605,o),
(505,507,c),
(514,500,l),
(586,562,o),
(676,659,o),
(747,753,c),
(771,751,o),
(785,759,o),
(790,772,c)
);
},
{
closed = 1;
nodes = (
(398,578,l),
(447,527,o),
(490,446,o),
(499,372,c),
(630,277,o),
(741,540,o),
(406,584,c)
);
},
{
closed = 1;
nodes = (
(768,650,l),
(704,471,o),
(590,238,o),
(472,44,c),
(484,44,l),
(640,190,o),
(802,385,o),
(904,550,c),
(929,546,o),
(942,555,o),
(948,566,c)
);
},
{
closed = 1;
nodes = (
(405,-58,l),
(418,-56,o),
(431,-48,o),
(438,-35,c),
(593,15,o),
(757,75,o),
(863,121,c),
(863,134,l),
(666,123,o),
(468,115,o),
(349,114,c)
);
},
{
closed = 1;
nodes = (
(744,266,l),
(803,178,o),
(845,64,o),
(852,-30,c),
(990,-150,o),
(1117,144,o),
(753,271,c)
);
}
);
vertWidth = 1000;
width = 1000;
}
);
note = cid11932;
unicode = 21510;
}
{
glyphname = uni5433;
layers = (
{
layerId = m01;
shapes = (
{
closed = 1;
nodes = (
(46,230,l),
(55,200,l),
(932,200,ls),
(946,200,o),
(955,205,o),
(958,216,c),
(927,244,o),
(879,282,o),
(879,282,c),
(836,230,l)
);
},
{
closed = 1;
nodes = (
(337,780,l),
(337,493,l),
(344,493,ls),
(363,493,o),
(381,502,o),
(381,507,cs),
(381,751,l),
(803,751,l),
(803,780,l),
(386,780,l),
(337,805,l),
(337,805,l)
);
},
{
closed = 1;
nodes = (
(769,780,l),
(769,499,l),
(775,499,ls),
(790,499,o),
(813,510,o),
(814,516,c),
(814,741,l),
(833,745,o),
(850,753,o),
(857,761,c),
(789,813,l),
(760,780,l)
);
},
{
closed = 1;
nodes = (
(350,575,l),
(350,546,l),
(790,546,l),
(790,575,l)
);
},
{
closed = 1;
nodes = (
(174,419,l),
(174,389,l),
(761,389,l),
(761,419,l)
);
},
{
closed = 1;
nodes = (
(155,754,l),
(155,317,l),
(164,317,ls),
(180,317,o),
(199,328,o),
(199,336,cs),
(199,720,l),
(221,723,o),
(230,732,o),
(232,745,c)
);
},
{
closed = 1;
nodes = (
(740,419,l),
(740,220,l),
(784,220,l),
(784,379,l),
(803,383,o),
(821,391,o),
(828,399,c),
(761,450,l),
(730,419,l)
);
},
{
closed = 1;
nodes = (
(476,404,l),
(476,173,o),
(421,16,o),
(37,-56,c),
(45,-74,l),
(460,-5,o),
(526,153,o),
(526,404,c)
);
},
{
closed = 1;
nodes = (
(500,220,l),
(571,52,o),
(710,-30,o),
(927,-72,c),
(933,-50,o),
(949,-35,o),
(969,-32,c),
(970,-22,l),
(749,6,o),
(590,80,o),
(517,230,c)
);
}
);
vertWidth = 1000;
width = 1000;
},
{
layerId = "435FFEB5-1267-4A4D-8575-60B204161920";
shapes = (
{
closed = 1;
nodes = (
(23,225,l),
(31,197,l),
(961,197,ls),
(976,197,o),
(987,202,o),
(989,213,c),
(946,256,o),
(869,322,o),
(869,322,c),
(801,225,l)
);
},
{
closed = 1;
nodes = (
(326,772,l),
(326,468,l),
(346,468,ls),
(403,468,o),
(465,498,o),
(465,510,cs),
(465,744,l),
(750,744,l),
(750,772,l),
(471,772,l),
(326,827,l),
(326,827,l)
);
},
{
closed = 1;
nodes = (
(694,772,l),
(694,486,l),
(719,486,ls),
(764,486,o),
(835,508,o),
(836,515,c),
(836,721,l),
(857,726,o),
(870,735,o),
(876,743,c),
(746,840,l),
(684,772,l)
);
},
{
closed = 1;
nodes = (
(394,571,l),
(394,543,l),
(764,543,l),
(764,571,l)
);
},
{
closed = 1;
nodes = (
(191,416,l),
(191,388,l),
(719,388,l),
(719,416,l)
);
},
{
closed = 1;
nodes = (
(117,750,l),
(117,302,l),
(143,302,ls),
(194,302,o),
(257,326,o),
(257,335,cs),
(257,713,l),
(278,716,o),
(283,725,o),
(285,735,c)
);
},
{
closed = 1;
nodes = (
(655,416,l),
(655,209,l),
(797,209,l),
(797,369,l),
(818,373,o),
(831,381,o),
(837,389,c),
(710,484,l),
(645,416,l)
);
},
{
closed = 1;
nodes = (
(386,402,l),
(382,146,o),
(353,0,o),
(21,-85,c),
(25,-97,l),
(480,-38,o),
(548,110,o),
(556,402,c)
);
},
{
closed = 1;
nodes = (
(533,217,l),
(588,26,o),
(702,-47,o),
(878,-95,c),
(891,-26,o),
(925,21,o),
(980,40,c),
(979,51,l),
(795,59,o),
(616,90,o),
(543,223,c)
);
}
);
vertWidth = 1000;
width = 1000;
}
);
note = cid12008;
unicode = 21555;
}
{
glyphname = uni5478;
layers = (
{
layerId = m01;
shapes = (
{
closed = 1;
nodes = (
(125,660,l),
(298,660,l),
(298,690,l),
(130,690,l),
(82,715,l),
(82,98,l),
(90,98,ls),
(109,98,o),
(125,109,o),
(125,115,cs)
);
},
{
closed = 1;
nodes = (
(298,250,l),
(104,250,l),
(104,220,l),
(298,220,l)
);
},
{
closed = 1;
nodes = (
(258,690,l),
(268,690,l),
(268,154,l),
(274,154,ls),
(289,154,o),
(311,168,o),
(312,174,c),
(312,650,l),
(332,654,o),
(349,662,o),
(355,670,c),
(288,723,l)
);
},
{
closed = 1;
nodes = (
(691,718,l),
(623,556,o),
(498,396,o),
(342,287,c),
(354,272,l),
(543,390,o),
(661,529,o),
(747,718,c)
);
},
{
closed = 1;
nodes = (
(609,545,l),
(609,32,l),
(618,32,ls),
(634,32,o),
(653,43,o),
(653,51,cs),
(653,509,l),
(678,512,o),
(686,522,o),
(689,536,c)
);
},
{
closed = 1;
nodes = (
(699,492,l),
(775,441,o),
(880,347,o),
(911,277,c),
(977,240,o),
(995,386,o),
(710,503,c)
);
},
{
closed = 1;
nodes = (
(846,13,l),
(342,13,l),
(349,-17,l),
(943,-17,ls),
(956,-17,o),
(965,-12,o),
(968,-1,c),
(938,28,o),
(889,66,o),
(889,66,c)
);
},
{
closed = 1;
nodes = (
(841,736,l),
(369,736,l),
(377,706,l),
(933,706,ls),
(946,706,o),
(955,711,o),
(958,722,c),
(929,750,o),
(883,786,o),
(883,786,c)
);
}
);
vertWidth = 1000;
width = 1000;
},
{
layerId = "435FFEB5-1267-4A4D-8575-60B204161920";
shapes = (
{
closed = 1;
nodes = (
(185,664,l),
(301,664,l),
(301,692,l),
(189,692,l),
(55,747,l),
(55,56,l),
(75,56,ls),
(133,56,o),
(185,86,o),
(185,101,cs)
);
},
{
closed = 1;
nodes = (
(301,255,l),
(120,255,l),
(120,227,l),
(301,227,l)
);
},
{
closed = 1;
nodes = (
(226,692,l),
(236,692,l),
(236,128,l),
(258,128,ls),
(304,128,o),
(369,155,o),
(370,163,c),
(370,642,l),
(391,647,o),
(404,655,o),
(410,664,c),
(287,759,l)
);
},
{
closed = 1;
nodes = (
(636,737,l),
(572,551,o),
(452,363,o),
(325,249,c),
(331,241,l),
(552,349,o),
(736,540,o),
(807,737,c)
);
},
{
closed = 1;
nodes = (
(569,535,l),
(569,5,l),
(596,5,ls),
(646,5,o),
(711,32,o),
(711,42,cs),
(711,502,l),
(729,505,o),
(734,512,o),
(735,521,c)
);
},
{
closed = 1;
nodes = (
(744,491,l),
(794,429,o),
(842,339,o),
(855,257,c),
(983,160,o),
(1093,420,o),
(753,497,c)
);
},
{
closed = 1;
nodes = (
(788,-32,l),
(314,-32,l),
(322,-60,l),
(962,-60,ls),
(976,-60,o),
(987,-55,o),
(990,-44,c),
(942,-1,o),
(860,62,o),
(860,62,c)
);
},
{
closed = 1;
nodes = (
(762,751,l),
(358,751,l),
(366,723,l),
(943,723,ls),
(958,723,o),
(969,728,o),
(972,739,c),
(922,783,o),
(837,849,o),
(837,849,c)
);
}
);
vertWidth = 1000;
width = 1000;
}
);
note = cid12104;
unicode = 21624;
}
{
glyphname = uni549A;
layers = (
{
layerId = m01;
shapes = (
{
closed = 1;
nodes = (
(595,832,l),
(544,684,o),
(450,542,o),
(350,466,c),
(364,452,l),
(473,522,o),
(576,649,o),
(630,781,c),
(652,776,o),
(665,783,o),
(670,793,c)
);
},
{
closed = 1;
nodes = (
(556,290,l),
(629,248,o),
(692,194,o),
(719,150,c),
(773,125,o),
(803,230,o),
(564,306,c)
);
},
{
closed = 1;
nodes = (
(530,650,l),
(591,466,o),
(741,312,o),
(920,250,c),
(926,272,o),
(944,283,o),
(964,285,c),
(967,296,l),
(779,342,o),
(615,486,o),
(543,669,c)
);
},
{
closed = 1;
nodes = (
(780,707,l),
(710,511,o),
(539,334,o),
(338,247,c),
(348,230,l),
(558,310,o),
(742,481,o),
(823,673,c),
(847,674,o),
(858,675,o),
(866,684,c),
(807,740,l),
(770,707,l)
);
},
{
closed = 1;
nodes = (
(570,707,l),
(556,677,l),
(807,677,l),
(807,707,l)
);
},
{
closed = 1;
nodes = (
(84,708,l),
(84,73,l),
(92,73,ls),
(113,73,o),
(127,85,o),
(127,91,cs),
(127,678,l),
(295,678,l),
(295,708,l),
(133,708,l),
(84,734,l)
);
},
{
closed = 1;
nodes = (
(106,222,l),
(106,192,l),
(296,192,l),
(296,222,l)
);
},
{
closed = 1;
nodes = (
(285,708,l),
(285,106,l),
(291,106,ls),
(307,106,o),
(328,120,o),
(329,126,c),
(329,669,l),
(349,673,o),
(367,680,o),
(373,688,c),
(305,741,l),
(275,708,l)
);
},
{
closed = 1;
nodes = (
(514,-70,l),
(523,-67,o),
(530,-57,o),
(533,-45,c),
(647,1,o),
(781,59,o),
(881,105,c),
(874,122,l),
(723,70,o),
(568,20,o),
(472,-7,c)
);
}
);
vertWidth = 1000;
width = 1000;
},
{
layerId = "435FFEB5-1267-4A4D-8575-60B204161920";
shapes = (
{
closed = 1;
nodes = (
(550,855,l),
(531,726,o),
(466,578,o),
(381,471,c),
(389,463,l),
(521,528,o),
(638,652,o),
(693,783,c),
(716,784,o),
(729,793,o),
(733,806,c)
);
},
{
closed = 1;
nodes = (
(547,302,l),
(603,254,o),
(638,192,o),
(648,160,c),
(766,83,o),
(890,326,o),
(554,314,c)
);
},
{
closed = 1;
nodes = (
(566,630,l),
(620,446,o),
(727,319,o),
(891,246,c),
(900,318,o),
(926,364,o),
(988,388,c),
(990,399,l),
(778,432,o),
(641,513,o),
(575,644,c)
);
},
{
closed = 1;
nodes = (
(734,700,l),
(685,531,o),
(543,364,o),
(368,267,c),
(375,256,l),
(600,314,o),
(795,465,o),
(880,648,c),
(904,651,o),
(914,654,o),
(920,665,c),
(797,773,l),
(721,700,l)
);
},
{
closed = 1;
nodes = (
(591,700,l),
(578,672,l),
(787,672,l),
(787,700,l)
);
},
{
closed = 1;
nodes = (
(57,712,l),
(57,72,l),
(77,72,ls),
(135,72,o),
(188,103,o),
(188,119,cs),
(188,684,l),
(298,684,l),
(298,712,l),
(191,712,l),
(57,768,l)
);
},
{
closed = 1;
nodes = (
(133,246,l),
(133,218,l),
(298,218,l),
(298,246,l)
);
},
{
closed = 1;
nodes = (
(243,712,l),
(243,127,l),
(265,127,ls),
(311,127,o),
(374,154,o),
(376,163,c),
(376,662,l),
(395,666,o),
(408,675,o),
(414,683,c),
(293,781,l),
(233,712,l)
);
},
{
closed = 1;
nodes = (
(572,-95,l),
(581,-92,o),
(589,-81,o),
(593,-68,c),
(723,5,o),
(849,91,o),
(921,155,c),
(918,166,l),
(749,115,o),
(576,72,o),
(470,54,c)
);
}
);
vertWidth = 1000;
width = 1000;
}
);
note = cid12147;
unicode = 21658;
}
{
glyphname = uni552C;
layers = (
{
layerId = m01;
shapes = (
{
closed = 1;
nodes = (
(84,83,l),
(92,83,ls),
(111,83,o),
(127,95,o),
(127,101,cs),
(127,673,l),
(292,673,l),
(292,703,l),
(132,703,l),
(84,729,l)
);
},
{
closed = 1;
nodes = (
(265,703,l),
(265,139,l),
(271,139,ls),
(287,139,o),
(308,152,o),
(309,159,c),
(309,663,l),
(329,667,o),
(346,675,o),
(352,683,c),
(285,736,l),
(255,703,l)
);
},
{
closed = 1;
nodes = (
(105,237,l),
(105,207,l),
(287,207,l),
(287,237,l)
);
},
{
closed = 1;
nodes = (
(616,833,l),
(616,608,l),
(660,608,l),
(660,796,l),
(684,799,o),
(694,809,o),
(696,823,c)
);
},
{
closed = 1;
nodes = (
(638,737,l),
(638,707,l),
(883,707,ls),
(895,707,o),
(905,712,o),
(908,723,c),
(879,750,o),
(832,784,o),
(832,784,c),
(792,737,l)
);
},
{
closed = 1;
nodes = (
(412,618,l),
(412,588,l),
(903,588,l),
(903,618,l)
);
},
{
closed = 1;
nodes = (
(862,618,l),
(858,590,o),
(849,539,o),
(840,511,c),
(855,503,l),
(877,523,o),
(902,555,o),
(916,580,c),
(935,581,o),
(946,582,o),
(953,589,c),
(892,654,l),
(857,618,l)
);
},
{
closed = 1;
nodes = (
(389,449,ls),
(389,280,o),
(375,95,o),
(269,-62,c),
(285,-74,l),
(421,83,o),
(433,298,o),
(433,449,cs),
(433,618,l),
(443,618,l),
(389,645,l)
);
},
{
closed = 1;
nodes = (
(459,465,l),
(472,431,l),
(817,463,ls),
(831,464,o),
(841,471,o),
(842,484,c),
(814,506,o),
(766,540,o),
(766,540,c),
(733,491,l)
);
},
{
closed = 1;
nodes = (
(603,573,l),
(603,376,ls),
(603,341,o),
(614,329,o),
(675,329,cs),
(766,329,ls),
(896,329,o),
(920,337,o),
(920,358,cs),
(920,367,o),
(914,372,o),
(897,377,c),
(894,454,l),
(881,454,l),
(875,421,o),
(867,388,o),
(861,378,cs),
(857,372,o),
(854,370,o),
(846,370,cs),
(835,369,o),
(804,369,o),
(765,369,cs),
(681,369,ls),
(650,369,o),
(647,371,o),
(647,384,cs),
(647,540,l),
(663,542,o),
(673,552,o),
(675,563,c)
);
},
{
closed = 1;
nodes = (
(555,287,l),
(553,164,o),
(549,35,o),
(401,-60,c),
(416,-76,l),
(589,15,o),
(594,147,o),
(600,255,c),
(620,257,o),
(629,268,o),
(630,279,c)
);
},
{
closed = 1;
nodes = (
(709,287,l),
(709,-12,ls),
(709,-44,o),
(719,-57,o),
(770,-57,cs),
(837,-57,ls),
(938,-57,o),
(959,-49,o),
(959,-29,cs),
(959,-20,o),
(955,-15,o),
(938,-10,c),
(936,101,l),
(922,101,l),
(915,56,o),
(907,5,o),
(901,-7,cs),
(898,-15,o),
(896,-17,o),
(889,-17,cs),
(882,-18,o),
(861,-18,o),
(834,-18,cs),
(777,-18,ls),
(754,-18,o),
(751,-15,o),
(751,-2,cs),
(751,253,l),
(768,256,o),
(778,265,o),
(780,277,c)
);
}
);
vertWidth = 1000;
width = 1000;
},
{
layerId = "435FFEB5-1267-4A4D-8575-60B204161920";
shapes = (
{
closed = 1;
nodes = (
(59,105,l),
(77,105,ls),
(129,105,o),
(175,132,o),
(175,145,cs),
(175,693,l),
(289,693,l),
(289,721,l),
(179,721,l),
(59,771,l)
);
},
{
closed = 1;
nodes = (
(229,721,l),
(229,166,l),
(250,166,ls),
(292,166,o),
(351,191,o),
(352,199,c),
(352,676,l),
(371,679,o),
(383,687,o),
(388,695,c),
(276,782,l),
(219,721,l)
);
},
{
closed = 1;
nodes = (
(110,273,l),
(110,245,l),
(294,245,l),
(294,273,l)
);
},
{
closed = 1;
nodes = (
(573,856,l),
(573,636,l),
(708,636,l),
(708,815,l),
(736,819,o),
(743,829,o),
(744,843,c)
);
},
{
closed = 1;
nodes = (
(648,738,l),
(648,710,l),
(916,710,ls),
(930,710,o),
(941,715,o),
(943,726,c),
(902,764,o),
(833,819,o),
(833,819,c),
(772,738,l)
);
},
{
closed = 1;
nodes = (
(447,643,l),
(447,615,l),
(865,615,l),
(865,643,l)
);
},
{
closed = 1;
nodes = (
(814,643,l),
(814,615,o),
(814,567,o),
(813,538,c),
(821,532,l),
(859,545,o),
(915,570,o),
(948,588,c),
(968,589,o),
(978,592,o),
(986,600,c),
(870,710,l),
(803,643,l)
);
},
{
closed = 1;
nodes = (
(393,454,ls),
(393,284,o),
(382,83,o),
(271,-76,c),
(280,-84,l),
(503,58,o),
(519,292,o),
(519,454,cs),
(519,643,l),
(539,643,l),
(393,694,l)
);
},
{
closed = 1;
nodes = (
(480,486,l),
(491,455,l),
(863,486,ls),
(877,487,o),
(888,494,o),
(890,506,c),
(845,540,o),
(782,580,o),
(782,580,c),
(732,507,l)
);
},
{
closed = 1;
nodes = (
(583,611,l),
(583,420,ls),
(583,345,o),
(598,323,o),
(693,323,cs),
(769,323,ls),
(901,323,o),
(945,342,o),
(945,390,cs),
(945,411,o),
(937,424,o),
(907,437,c),
(902,489,l),
(893,489,l),
(879,463,o),
(865,444,o),
(857,437,cs),
(850,432,o),
(841,430,o),
(832,430,cs),
(822,429,o),
(803,429,o),
(784,429,cs),
(728,429,ls),
(707,429,o),
(705,433,o),
(705,444,cs),
(705,574,l),
(724,577,o),
(733,586,o),
(735,599,c)
);
},
{
closed = 1;
nodes = (
(548,292,l),
(545,171,o),
(547,36,o),
(419,-83,c),
(429,-95,l),
(650,-1,o),
(672,137,o),
(685,254,c),
(708,258,o),
(716,267,o),
(718,280,c)
);
},
{
closed = 1;
nodes = (
(720,293,l),
(720,27,ls),
(720,-51,o),
(728,-77,o),
(811,-77,cs),
(853,-77,ls),
(942,-77,o),
(985,-47,o),
(985,0,cs),
(985,24,o),
(980,38,o),
(953,53,c),
(949,149,l),
(939,149,l),
(924,106,o),
(909,68,o),
(901,56,cs),
(895,49,o),
(890,48,o),
(883,48,cs),
(879,48,o),
(874,48,o),
(870,48,c),
(858,48,ls),
(849,48,o),
(847,51,o),
(847,62,cs),
(847,255,l),
(867,258,o),
(876,267,o),
(877,280,c)
);
}
);
vertWidth = 1000;
width = 1000;
}
);
note = cid12356;
unicode = 21804;
}
{
glyphname = uni5537;
layers = (
{
layerId = m01;
shapes = (
{
closed = 1;
nodes = (
(127,641,l),
(293,641,l),
(293,671,l),
(132,671,l),
(84,697,l),
(84,80,l),
(92,80,ls),
(111,80,o),
(127,90,o),
(127,96,cs)
);
},
{
closed = 1;
nodes = (
(261,671,l),
(271,671,l),
(271,136,l),
(277,136,ls),
(292,136,o),
(314,150,o),
(315,156,c),
(315,631,l),
(335,635,o),
(351,643,o),
(358,651,c),
(291,704,l)
);
},
{
closed = 1;
nodes = (
(293,237,l),
(105,237,l),
(105,207,l),
(293,207,l)
);
},
{
closed = 1;
nodes = (
(621,834,l),
(621,702,l),
(665,702,l),
(665,797,l),
(689,800,o),
(699,810,o),
(701,824,c)
);
},
{
closed = 1;
nodes = (
(840,717,l),
(350,717,l),
(358,687,l),
(934,687,ls),
(947,687,o),
(956,692,o),
(959,703,c),
(929,732,o),
(882,768,o),
(882,768,c)
);
},
{
closed = 1;
nodes = (
(580,705,l),
(549,636,o),
(510,562,o),
(478,512,c),
(507,512,l),
(546,557,o),
(599,632,o),
(643,705,c)
);
},
{
closed = 1;
nodes = (
(389,452,l),
(399,454,o),
(408,460,o),
(414,472,c),
(573,490,o),
(742,511,o),
(852,528,c),
(851,547,l),
(647,534,o),
(457,524,o),
(359,521,c)
);
},
{
closed = 1;
nodes = (
(689,644,l),
(793,585,o),
(876,510,o),
(904,452,c),
(968,421,o),
(977,566,o),
(698,656,c)
);
},
{
closed = 1;
nodes = (
(485,376,l),
(832,376,l),
(832,406,l),
(490,406,l),
(441,432,l),
(441,-74,l),
(449,-74,ls),
(467,-74,o),
(485,-63,o),
(485,-57,cs)
);
},
{
closed = 1;
nodes = (
(800,406,l),
(810,406,l),
(810,8,ls),
(810,-7,o),
(805,-13,o),
(784,-13,cs),
(762,-13,o),
(652,-5,o),
(652,-5,c),
(652,-22,l),
(698,-26,o),
(726,-34,o),
(742,-42,cs),
(756,-48,o),
(762,-61,o),
(765,-74,c),
(845,-66,o),
(854,-38,o),
(854,3,cs),
(854,366,l),
(874,369,o),
(891,378,o),
(897,385,c),
(826,438,l)
);
},
{
closed = 1;
nodes = (
(832,279,l),
(463,279,l),
(463,249,l),
(832,249,l)
);
},
{
closed = 1;
nodes = (
(832,150,l),
(463,150,l),
(463,120,l),
(832,120,l)
);
}
);
vertWidth = 1000;
width = 1000;
},
{
layerId = "435FFEB5-1267-4A4D-8575-60B204161920";
shapes = (
{
closed = 1;
nodes = (
(180,652,l),
(278,652,l),
(278,680,l),
(184,680,l),
(55,733,l),
(55,60,l),
(75,60,ls),
(130,60,o),
(180,89,o),
(180,103,cs)
);
},
{
closed = 1;
nodes = (
(218,680,l),
(228,680,l),
(228,121,l),
(249,121,ls),
(293,121,o),
(356,146,o),
(357,154,c),
(357,631,l),
(377,635,o),
(391,644,o),
(397,652,c),
(277,745,l)
);
},
{
closed = 1;
nodes = (
(278,237,l),
(130,237,l),
(130,209,l),
(278,209,l)
);
},
{
closed = 1;
nodes = (
(574,855,l),
(574,703,l),
(719,703,l),
(719,814,l),
(747,818,o),
(753,828,o),
(755,842,c)
);
},
{
closed = 1;
nodes = (
(802,719,l),
(356,719,l),
(364,691,l),
(963,691,ls),
(978,691,o),
(989,696,o),
(992,707,c),
(947,749,o),
(870,811,o),
(870,811,c)
);
},
{
closed = 1;
nodes = (
(528,706,l),
(515,650,o),
(491,575,o),
(466,512,c),
(484,512,l),
(561,563,o),
(650,638,o),
(714,706,c)
);
},
{
closed = 1;
nodes = (
(407,425,l),
(419,427,o),
(432,434,o),
(439,448,c),
(595,482,o),
(763,525,o),
(874,559,c),
(874,573,l),
(634,569,o),
(434,568,o),
(357,570,c)
);
},
{
closed = 1;
nodes = (
(712,666,l),
(769,612,o),
(832,521,o),
(854,446,c),
(986,366,o),
(1073,627,o),
(720,672,c)
);
},
{
closed = 1;
nodes = (
(570,378,l),
(806,378,l),
(806,406,l),
(575,406,l),
(430,464,l),
(430,-93,l),
(451,-93,ls),
(510,-93,o),
(570,-61,o),
(570,-47,cs)
);
},
{
closed = 1;
nodes = (
(746,406,l),
(756,406,l),
(756,62,ls),
(756,50,o),
(752,44,o),
(738,44,cs),
(715,44,o),
(635,49,o),
(635,49,c),
(635,36,l),
(681,28,o),
(698,13,o),
(711,-6,cs),
(725,-25,o),
(729,-55,o),
(731,-96,c),
(878,-85,o),
(898,-37,o),
(898,49,cs),
(898,355,l),
(919,359,o),
(932,369,o),
(938,377,c),
(808,476,l)
);
},
{
closed = 1;
nodes = (
(806,289,l),
(520,289,l),
(520,261,l),
(806,261,l)
);
},
{
closed = 1;
nodes = (
(806,168,l),
(520,168,l),
(520,140,l),
(806,140,l)
);
}
);
vertWidth = 1000;
width = 1000;
}
);
note = cid12374;
unicode = 21815;
}
{
glyphname = uni5555;
layers = (
{
layerId = m01;
shapes = (
{
closed = 1;
nodes = (
(127,684,l),
(280,684,l),
(280,714,l),
(132,714,l),
(84,740,l),
(84,94,l),
(92,94,ls),
(111,94,o),
(127,106,o),
(127,112,cs)
);
},
{
closed = 1;
nodes = (
(240,714,l),
(250,714,l),
(250,151,l),
(256,151,ls),
(272,151,o),
(293,164,o),
(294,170,c),
(294,674,l),
(314,678,o),
(331,686,o),
(338,694,c),
(270,747,l)
);
},
{
closed = 1;
nodes = (
(272,253,l),
(105,253,l),
(105,223,l),
(272,223,l)
);
},
{
closed = 1;
nodes = (
(486,830,l),
(442,711,o),
(371,600,o),
(303,533,c),
(318,521,l),
(400,584,o),
(479,686,o),
(523,785,c),
(544,782,o),
(556,791,o),
(561,801,c)
);
},
{
closed = 1;
nodes = (
(899,701,l),
(468,701,l),
(449,671,l),
(899,671,l)
);
},
{
closed = 1;
nodes = (
(869,701,l),
(880,701,l),
(873,325,o),
(854,47,o),
(814,6,cs),
(802,-6,o),
(795,-9,o),
(773,-9,cs),
(750,-9,o),
(669,-1,o),
(620,5,c),
(619,-15,l),
(660,-21,o),
(710,-31,o),
(727,-40,cs),
(740,-47,o),
(743,-60,o),
(743,-73,c),
(788,-73,o),
(826,-61,o),
(851,-28,cs),
(897,32,o),
(916,306,o),
(923,666,c),
(945,669,o),
(957,674,o),
(965,682,c),
(899,737,l)
);
},
{
closed = 1;
nodes = (
(465,638,l),
(438,550,o),
(394,467,o),
(348,414,c),
(364,404,l),
(416,446,o),
(469,520,o),
(501,595,c),
(521,593,o),
(532,602,o),
(537,612,c)
);
},
{
closed = 1;
nodes = (
(686,533,l),
(450,533,l),
(433,503,l),
(759,503,ls),
(773,503,o),
(782,508,o),
(785,519,c),
(760,544,o),
(721,575,o),
(721,575,c)
);
},
{
closed = 1;
nodes = (
(709,381,l),
(334,381,l),
(341,351,l),
(785,351,ls),
(797,351,o),
(806,356,o),
(809,367,c),
(784,392,o),
(744,424,o),
(744,424,c)
);
},
{
closed = 1;
nodes = (
(597,518,l),
(553,518,l),
(553,131,l),
(597,131,l)
);
},
{
closed = 1;
nodes = (
(383,295,l),
(383,43,l),
(392,43,ls),
(408,43,o),
(427,55,o),
(427,62,cs),
(427,261,l),
(449,264,o),
(458,273,o),
(459,286,c)
);
},
{
closed = 1;
nodes = (
(741,146,l),
(405,146,l),
(405,116,l),
(741,116,l)
);
},
{
closed = 1;
nodes = (
(719,295,l),
(719,57,l),
(728,57,ls),
(744,57,o),
(763,69,o),
(763,76,cs),
(763,261,l),
(785,264,o),
(793,273,o),
(795,286,c)
);
}
);
vertWidth = 1000;
width = 1000;
},
{
layerId = "435FFEB5-1267-4A4D-8575-60B204161920";
shapes = (
{
closed = 1;
nodes = (
(171,681,l),
(258,681,l),
(258,709,l),
(175,709,l),
(57,758,l),
(57,85,l),
(75,85,ls),
(126,85,o),
(171,112,o),
(171,125,cs)
);
},
{
closed = 1;
nodes = (
(198,709,l),
(208,709,l),
(208,145,l),
(229,145,ls),
(271,145,o),
(330,170,o),
(331,179,c),
(331,664,l),
(350,667,o),
(361,675,o),
(367,683,c),
(255,770,l)
);
},
{
closed = 1;
nodes = (
(258,265,l),
(121,265,l),
(121,237,l),
(258,237,l)
);
},
{
closed = 1;
nodes = (
(463,862,l),
(437,738,o),
(375,594,o),
(303,489,c),
(311,481,l),
(427,538,o),
(540,653,o),
(605,780,c),
(628,779,o),
(642,787,o),
(646,800,c)
);
},
{
closed = 1;
nodes = (
(883,678,l),
(474,678,l),
(460,650,l),
(883,650,l)
);
},
{
closed = 1;
nodes = (
(803,678,l),
(815,678,l),
(812,248,o),
(808,91,o),
(776,58,cs),
(767,50,o),
(757,46,o),
(742,46,cs),
(722,46,o),
(678,48,o),
(647,50,c),
(647,38,l),
(686,28,o),
(710,15,o),
(725,-6,cs),
(738,-24,o),
(741,-52,o),
(741,-94,c),
(800,-94,o),
(848,-81,o),
(883,-43,cs),
(937,16,o),
(942,142,o),
(945,626,c),
(969,630,o),
(982,638,o),
(990,647,c),
(874,751,l)
);
},
{
closed = 1;
nodes = (
(433,645,l),
(424,560,o),
(399,474,o),
(371,417,c),
(384,409,l),
(446,443,o),
(508,509,o),
(546,579,c),
(569,579,o),
(581,588,o),
(585,600,c)
);
},
{
closed = 1;
nodes = (
(633,524,l),
(463,524,l),
(449,496,l),
(759,496,ls),
(773,496,o),
(783,501,o),
(786,512,c),
(749,546,o),
(687,595,o),
(687,595,c)
);
},
{
closed = 1;
nodes = (
(658,388,l),
(342,388,l),
(350,360,l),
(782,360,ls),
(796,360,o),
(806,365,o),
(808,376,c),
(772,410,o),
(711,460,o),
(711,460,c)
);
},
{
closed = 1;
nodes = (
(627,510,l),
(516,510,l),
(516,122,l),
(627,122,l)
);
},
{
closed = 1;
nodes = (
(372,331,l),
(372,39,l),
(392,39,ls),
(428,39,o),
(476,58,o),
(476,66,cs),
(476,302,l),
(491,305,o),
(495,311,o),
(497,320,c)
);
},
{
closed = 1;
nodes = (
(715,136,l),
(426,136,l),
(426,108,l),
(715,108,l)
);
},
{
closed = 1;
nodes = (
(665,331,l),
(665,76,l),
(681,76,ls),
(717,76,o),
(765,101,o),
(765,112,cs),
(765,303,l),
(780,306,o),
(784,312,o),
(786,320,c)
);
}
);
vertWidth = 1000;
width = 1000;
}
);
note = cid12428;
unicode = 21845;
}
{
glyphname = uni55E1;
layers = (
{
layerId = m01;
shapes = (
{
closed = 1;
nodes = (
(123,675,l),
(276,675,l),
(276,705,l),
(128,705,l),
(80,731,l),
(80,106,l),
(88,106,ls),
(107,106,o),
(123,117,o),
(123,123,cs)
);
},
{
closed = 1;
nodes = (
(269,267,l),
(102,267,l),
(102,237,l),
(269,237,l)
);
},
{
closed = 1;
nodes = (
(235,705,l),
(245,705,l),
(245,162,l),
(251,162,ls),
(266,162,o),
(288,175,o),
(289,181,c),
(289,665,l),
(309,669,o),
(326,677,o),
(332,685,c),
(265,738,l)
);
},
{
closed = 1;
nodes = (
(481,810,l),
(453,739,o),
(392,647,o),
(322,591,c),
(332,578,l),
(415,625,o),
(484,704,o),
(520,766,c),
(543,763,o),
(551,767,o),
(556,778,c)
);
},
{
closed = 1;
nodes = (
(399,467,l),
(408,469,o),
(418,476,o),
(423,488,c),
(532,501,o),
(669,520,o),
(778,537,c),
(776,556,l),
(608,544,o),
(453,534,o),
(376,532,c)
);
},
{
closed = 1;
nodes = (
(671,630,l),
(730,591,o),
(805,517,o),
(825,460,c),
(880,426,o),
(902,553,o),
(682,640,c)
);
},
{
closed = 1;
nodes = (
(320,401,l),
(329,371,l),
(556,371,l),
(556,401,l)
);
},
{
closed = 1;
nodes = (
(540,401,l),
(540,6,ls),
(540,-9,o),
(535,-14,o),
(518,-14,cs),
(499,-14,o),
(413,-7,o),
(413,-7,c),
(413,-24,l),
(450,-28,o),
(473,-35,o),
(487,-43,cs),
(498,-49,o),
(503,-63,o),
(506,-76,c),
(576,-68,o),
(584,-42,o),
(584,0,cs),
(584,361,l),
(604,364,o),
(621,373,o),
(627,380,c),
(556,433,l),
(530,401,l)
);
},
{
closed = 1;
nodes = (
(641,401,l),
(650,371,l),
(892,371,l),
(892,401,l)
);
},
{
closed = 1;
nodes = (
(867,401,l),
(867,7,ls),
(867,-8,o),
(862,-14,o),
(843,-14,cs),
(822,-14,o),
(723,-7,o),
(723,-7,c),
(723,-23,l),
(766,-28,o),
(791,-35,o),
(806,-43,cs),
(819,-50,o),
(824,-62,o),
(827,-76,c),
(902,-68,o),
(911,-41,o),
(911,1,cs),
(911,361,l),
(931,364,o),
(948,373,o),
(954,380,c),
(883,433,l),
(857,401,l)
);
},
{
closed = 1;
nodes = (
(580,706,l),
(551,637,o),
(510,563,o),
(474,515,c),
(489,505,l),
(535,548,o),
(587,613,o),
(624,673,c),
(648,671,o),
(656,675,o),
(659,686,c)
);
},
{
closed = 1;
nodes = (
(715,793,l),
(715,777,l),
(747,706,o),
(826,647,o),
(918,607,c),
(924,628,o),
(944,643,o),
(964,647,c),
(966,658,l),
(872,679,o),
(783,719,o),
(747,763,c),
(773,764,o),
(794,770,o),
(804,781,c),
(726,832,l),
(700,793,l)
);
},
{
closed = 1;
nodes = (
(578,793,l),
(586,768,l),
(745,768,l),
(745,793,l)
);
},
{
closed = 1;
nodes = (
(452,376,l),
(418,318,o),
(362,254,o),
(308,211,c),
(320,198,l),
(385,234,o),
(449,292,o),
(483,335,c),
(504,330,o),
(512,334,o),
(519,344,c)
);
},
{
closed = 1;
nodes = (
(500,263,l),
(453,179,o),
(353,74,o),
(253,12,c),
(264,-3,l),
(375,53,o),
(479,147,o),
(531,221,c),
(553,217,o),
(561,221,o),
(568,231,c)
);
},
{
closed = 1;
nodes = (
(759,371,l),
(730,322,o),
(669,253,o),
(611,212,c),
(623,198,l),
(689,232,o),
(755,287,o),
(790,330,c),
(812,325,o),
(819,328,o),
(826,338,c)
);
},
{
closed = 1;
nodes = (
(827,276,l),
(782,197,o),
(690,98,o),
(594,39,c),
(605,24,l),
(710,77,o),
(808,165,o),
(857,236,c),
(877,232,o),
(886,234,o),
(893,246,c)
);
}
);
vertWidth = 1000;
width = 1000;
},
{
layerId = "435FFEB5-1267-4A4D-8575-60B204161920";
shapes = (
{
closed = 1;
nodes = (
(171,663,l),
(316,663,l),
(316,691,l),
(174,691,l),
(57,740,l),
(57,47,l),
(75,47,ls),
(126,47,o),
(171,74,o),
(171,87,cs)
);
},
{
closed = 1;
nodes = (
(275,240,l),
(115,240,l),
(115,212,l),
(275,212,l)
);
},
{
closed = 1;
nodes = (
(200,691,l),
(210,691,l),
(210,111,l),
(229,111,ls),
(270,111,o),
(326,135,o),
(327,143,c),
(327,646,l),
(345,650,o),
(358,658,o),
(363,665,c),
(255,750,l)
);
},
{
closed = 1;
nodes = (
(443,838,l),
(427,769,o),
(385,667,o),
(333,602,c),
(341,591,l),
(429,627,o),
(507,687,o),
(557,745,c),
(580,742,o),
(589,749,o),
(594,759,c)
);
},
{
closed = 1;
nodes = (
(435,431,l),
(446,433,o),
(457,440,o),
(464,453,c),
(617,501,o),
(717,536,o),
(785,564,c),
(784,577,l),
(613,571,o),
(448,567,o),
(375,568,c)
);
},
{
closed = 1;
nodes = (
(666,630,l),
(702,591,o),
(746,530,o),
(764,475,c),
(881,410,o),
(962,627,o),
(674,636,c)
);
},
{
closed = 1;
nodes = (
(357,413,l),
(366,385,l),
(559,385,l),
(559,413,l)
);
},
{
closed = 1;
nodes = (
(513,413,l),
(513,44,ls),
(513,32,o),
(509,25,o),
(494,25,cs),
(470,25,o),
(384,31,o),
(384,31,c),
(384,18,l),
(429,10,o),
(448,-3,o),
(463,-19,cs),
(477,-34,o),
(481,-61,o),
(484,-96,c),
(612,-85,o),
(629,-42,o),
(629,33,cs),
(629,365,l),
(650,369,o),
(664,378,o),
(670,386,c),
(555,473,l),
(503,413,l)
);
},
{
closed = 1;
nodes = (
(666,413,l),
(675,385,l),
(887,385,l),
(887,413,l)
);
},
{
closed = 1;
nodes = (
(818,413,l),
(818,48,ls),
(818,36,o),
(814,30,o),
(799,30,cs),
(775,30,o),
(688,35,o),
(688,35,c),
(688,22,l),
(734,14,o),
(753,1,o),
(767,-16,cs),
(782,-34,o),
(786,-59,o),
(789,-95,c),
(920,-84,o),
(938,-40,o),
(938,37,cs),
(938,365,l),
(959,368,o),
(973,378,o),
(979,386,c),
(862,474,l),
(808,413,l)
);
},
{
closed = 1;
nodes = (
(553,727,l),
(538,673,o),
(507,599,o),
(483,555,c),
(491,549,l),
(561,578,o),
(640,629,o),
(699,671,c),
(726,669,o),
(734,674,o),
(737,685,c)
);
},
{
closed = 1;
nodes = (
(725,797,l),
(725,781,l),
(746,703,o),
(805,624,o),
(879,577,c),
(890,631,o),
(934,679,o),
(982,698,c),
(980,712,l),
(889,716,o),
(796,739,o),
(749,771,c),
(784,775,o),
(821,784,o),
(831,797,c),
(737,855,l),
(705,797,l)
);
},
{
closed = 1;
nodes = (
(579,797,l),
(586,774,l),
(739,774,l),
(739,797,l)
);
},
{
closed = 1;
nodes = (
(417,396,l),
(393,325,o),
(354,250,o),
(315,201,c),
(325,190,l),
(387,216,o),
(458,262,o),
(509,309,c),
(529,305,o),
(539,308,o),
(546,322,c)
);
},
{
closed = 1;
nodes = (
(458,252,l),
(431,192,o),
(370,100,o),
(309,42,c),
(318,32,l),
(412,61,o),
(505,108,o),
(559,155,c),
(582,151,o),
(591,156,o),
(597,166,c)
);
},
{
closed = 1;
nodes = (
(725,396,l),
(706,337,o),
(675,275,o),
(646,237,c),
(655,226,l),
(715,245,o),
(776,276,o),
(817,307,c),
(840,303,o),
(850,308,o),
(855,318,c)
);
},
{
closed = 1;
nodes = (
(770,261,l),
(748,208,o),
(696,126,o),
(645,74,c),
(653,64,l),
(733,85,o),
(818,123,o),
(873,161,c),
(896,157,o),
(905,163,o),
(911,172,c)
);
}
);
vertWidth = 1000;
width = 1000;
}
);
note = cid12671;
unicode = 21985;
}
{
glyphname = uni57C2;
layers = (
{
layerId = m01;
shapes = (
{
closed = 1;
nodes = (
(358,752,l),
(366,722,l),
(944,722,ls),
(958,722,o),
(966,727,o),
(969,738,c),
(940,765,o),
(894,801,o),
(894,801,c),
(853,752,l)
);
},
{
closed = 1;
nodes = (
(622,752,l),
(622,375,ls),
(622,147,o),
(553,34,o),
(241,-54,c),
(250,-73,l),
(593,3,o),
(666,143,o),
(666,378,cs),
(666,752,l)
);
},
{
closed = 1;
nodes = (
(401,617,l),
(401,249,l),
(408,249,ls),
(427,249,o),
(444,259,o),
(444,264,cs),
(444,587,l),
(871,587,l),
(871,617,l),
(450,617,l),
(401,641,l)
);
},
{
closed = 1;
nodes = (
(850,617,l),
(850,260,l),
(856,260,ls),
(871,260,o),
(894,273,o),
(894,279,cs),
(894,577,l),
(914,581,o),
(931,589,o),
(938,597,c),
(870,649,l),
(840,617,l)
);
},
{
closed = 1;
nodes = (
(427,477,l),
(427,447,l),
(876,447,l),
(876,477,l)
);
},
{
closed = 1;
nodes = (
(427,338,l),
(427,308,l),
(876,308,l),
(876,338,l)
);
},
{
closed = 1;
nodes = (
(528,253,l),
(497,270,l),
(477,228,l),
(448,206,o),
(401,174,o),
(373,159,c),
(413,105,l),
(420,109,o),
(423,116,o),
(419,126,c),
(438,149,o),
(473,193,o),
(494,219,c)
);
},
{
closed = 1;
nodes = (
(476,209,l),
(552,36,o),
(693,-35,o),
(930,-71,c),
(936,-47,o),
(952,-32,o),
(973,-28,c),
(974,-18,l),
(732,3,o),
(569,65,o),
(494,219,c)
);
},
{
closed = 1;
nodes = (
(47,542,l),
(55,512,l),
(357,512,ls),
(370,512,o),
(380,517,o),
(382,528,c),
(355,555,o),
(309,590,o),
(309,590,c),
(271,542,l)
);
},
{
closed = 1;
nodes = (
(175,801,l),
(175,143,l),
(220,157,l),
(220,764,l),
(244,767,o),
(253,777,o),
(256,791,c)
);
},
{
closed = 1;
nodes = (
(74,47,l),
(83,50,o),
(89,61,o),
(91,73,c),
(217,142,o),
(314,201,o),
(387,244,c),
(380,258,l),
(235,193,o),
(94,131,o),
(36,110,c)
);
}
);
vertWidth = 1000;
width = 1000;
},
{
layerId = "435FFEB5-1267-4A4D-8575-60B204161920";
shapes = (
{
closed = 1;
nodes = (
(345,758,l),
(353,730,l),
(951,730,ls),
(966,730,o),
(977,735,o),
(980,746,c),
(926,790,o),
(837,854,o),
(837,854,c),
(759,758,l)
);
},
{
closed = 1;
nodes = (
(591,758,l),
(591,348,ls),
(591,128,o),
(538,11,o),
(242,-86,c),
(247,-96,l),
(676,-32,o),
(727,129,o),
(727,351,cs),
(727,758,l)
);
},
{
closed = 1;
nodes = (
(397,628,l),
(397,251,l),
(416,251,ls),
(469,251,o),
(526,279,o),
(526,291,cs),
(526,600,l),
(878,600,l),
(878,628,l),
(533,628,l),
(397,681,l)
);
},
{
closed = 1;
nodes = (
(792,628,l),
(792,241,l),
(815,241,ls),
(861,241,o),
(931,264,o),
(932,272,c),
(932,575,l),
(955,579,o),
(969,589,o),
(976,598,c),
(844,698,l),
(781,628,l)
);
},
{
closed = 1;
nodes = (
(464,480,l),
(464,452,l),
(868,452,l),
(868,480,l)
);
},
{
closed = 1;
nodes = (
(464,329,l),
(464,301,l),
(868,301,l),
(868,329,l)
);
},
{
closed = 1;
nodes = (
(541,254,l),
(495,276,l),
(480,224,l),
(449,206,o),
(392,179,o),
(359,167,c),
(409,72,l),
(417,76,o),
(422,86,o),
(418,97,c),
(439,125,o),
(479,183,o),
(500,216,c)
);
},
{
closed = 1;
nodes = (
(489,209,l),
(556,19,o),
(692,-51,o),
(888,-94,c),
(901,-24,o),
(934,25,o),
(990,44,c),
(990,56,l),
(787,58,o),
(583,85,o),
(499,216,c)
);
},
{
closed = 1;
nodes = (
(25,565,l),
(33,537,l),
(369,537,ls),
(383,537,o),
(393,542,o),
(396,553,c),
(365,595,o),
(304,663,o),
(304,663,c),
(250,565,l)
);
},
{
closed = 1;
nodes = (
(118,829,l),
(118,161,l),
(258,205,l),
(258,785,l),
(286,789,o),
(293,800,o),
(295,814,c)
);
},
{
closed = 1;
nodes = (
(75,44,l),
(88,48,o),
(98,60,o),
(103,73,c),
(215,149,o),
(325,232,o),
(389,289,c),
(387,297,l),
(244,259,o),
(100,223,o),
(14,206,c)
);
}
);
vertWidth = 1000;
width = 1000;
}
);
note = cid13445;
unicode = 22466;
}
{
glyphname = uni5A1B;
layers = (
{
layerId = m01;
shapes = (
{
closed = 1;
nodes = (
(588,558,l),
(588,528,l),
(859,528,l),
(859,558,l)
);
},
{
closed = 1;
nodes = (
(460,406,l),
(460,376,l),
(825,376,l),
(825,406,l)
);
},
{
closed = 1;
nodes = (
(834,777,l),
(834,479,l),
(840,479,ls),
(855,479,o),
(878,491,o),
(879,497,c),
(879,738,l),
(898,742,o),
(915,750,o),
(922,758,c),
(854,810,l),
(825,777,l)
);
},
{
closed = 1;
nodes = (
(569,777,l),
(569,469,l),
(576,469,ls),
(595,469,o),
(614,480,o),
(614,485,cs),
(614,748,l),
(862,748,l),
(862,777,l),
(619,777,l),
(569,802,l),
(569,802,l)
);
},
{
closed = 1;
nodes = (
(423,745,l),
(423,303,l),
(432,303,ls),
(448,303,o),
(467,314,o),
(467,322,cs),
(467,708,l),
(492,711,o),
(501,721,o),
(503,735,c)
);
},
{
closed = 1;
nodes = (
(789,406,l),
(789,193,l),
(833,193,l),
(833,367,l),
(852,370,o),
(870,378,o),
(877,386,c),
(810,437,l),
(779,406,l)
);
},
{
closed = 1;
nodes = (
(346,211,l),
(354,181,l),
(946,181,ls),
(959,181,o),
(968,186,o),
(971,197,c),
(942,225,o),
(895,261,o),
(895,261,c),
(855,211,l)
);
},
{
closed = 1;
nodes = (
(617,391,l),
(617,155,o),
(562,23,o),
(332,-58,c),
(344,-75,l),
(604,6,o),
(665,139,o),
(666,391,c)
);
},
{
closed = 1;
nodes = (
(642,200,l),
(687,66,o),
(786,-33,o),
(917,-74,c),
(922,-52,o),
(943,-39,o),
(967,-34,c),
(968,-23,l),
(817,8,o),
(708,92,o),
(662,210,c)
);
},
{
closed = 1;
nodes = (
(41,612,l),
(50,582,l),
(312,582,l),
(312,612,l)
);
},
{
closed = 1;
nodes = (
(183,834,l),
(166,682,o),
(96,346,o),
(51,209,c),
(71,203,o),
(90,204,o),
(100,211,c),
(143,374,o),
(203,665,o),
(224,799,c),
(248,801,o),
(257,811,o),
(260,824,c)
);
},
{
closed = 1;
nodes = (
(88,292,l),
(176,238,o),
(302,138,o),
(340,62,c),
(407,28,o),
(414,178,o),
(99,303,c)
);
},
{
closed = 1;
nodes = (
(294,612,l),
(280,354,o),
(236,108,o),
(34,-49,c),
(46,-64,l),
(275,89,o),
(318,333,o),
(340,576,c),
(360,578,o),
(368,581,o),
(376,589,c),
(316,644,l),
(285,612,l)
);
}
);
vertWidth = 1000;
width = 1000;
},
{
layerId = "435FFEB5-1267-4A4D-8575-60B204161920";
shapes = (
{
closed = 1;
nodes = (
(651,554,l),
(651,526,l),
(844,526,l),
(844,554,l)
);
},
{
closed = 1;
nodes = (
(490,410,l),
(490,382,l),
(793,382,l),
(793,410,l)
);
},
{
closed = 1;
nodes = (
(788,771,l),
(788,476,l),
(812,476,ls),
(858,476,o),
(925,503,o),
(925,511,cs),
(925,721,l),
(946,725,o),
(959,734,o),
(965,742,c),
(839,837,l),
(778,771,l)
);
},
{
closed = 1;
nodes = (
(586,771,l),
(586,446,l),
(604,446,ls),
(658,446,o),
(714,474,o),
(714,486,cs),
(714,743,l),
(872,743,l),
(872,771,l),
(718,771,l),
(586,822,l),
(586,822,l)
);
},
{
closed = 1;
nodes = (
(420,766,l),
(420,286,l),
(441,286,ls),
(485,286,o),
(540,312,o),
(540,323,cs),
(540,731,l),
(560,734,o),
(566,742,o),
(568,753,c)
);
},
{
closed = 1;
nodes = (
(741,410,l),
(741,212,l),
(870,212,l),
(870,366,l),
(888,370,o),
(900,377,o),
(906,385,c),
(790,470,l),
(731,410,l)
);
},
{
closed = 1;
nodes = (
(371,221,l),
(379,193,l),
(973,193,ls),
(986,193,o),
(996,198,o),
(999,209,c),
(970,250,o),
(911,316,o),
(911,316,c),
(860,221,l)
);
},
{
closed = 1;
nodes = (
(569,396,l),
(569,171,o),
(531,5,o),
(312,-83,c),
(319,-95,l),
(638,-27,o),
(705,131,o),
(710,396,c)
);
},
{
closed = 1;
nodes = (
(690,210,l),
(726,72,o),
(789,-35,o),
(889,-92,c),
(893,-33,o),
(929,13,o),
(987,54,c),
(988,69,l),
(876,77,o),
(755,111,o),
(705,220,c)
);
},
{
closed = 1;
nodes = (
(22,613,l),
(31,585,l),
(325,585,l),
(325,613,l)
);
},
{
closed = 1;
nodes = (
(123,854,l),
(116,711,o),
(61,348,o),
(20,180,c),
(74,167,o),
(124,172,o),
(146,189,c),
(181,355,o),
(227,673,o),
(241,797,c),
(267,797,o),
(277,807,o),
(281,820,c)
);
},
{
closed = 1;
nodes = (
(135,264,l),
(207,209,o),
(286,116,o),
(316,34,c),
(444,-36,o),
(512,224,o),
(143,271,c)
);
},
{
closed = 1;
nodes = (
(264,613,l),
(257,344,o),
(225,85,o),
(20,-72,c),
(29,-83,l),
(329,53,o),
(373,304,o),
(392,563,c),
(414,567,o),
(423,571,o),
(430,582,c),
(315,681,l),
(252,613,l)
);
}
);
vertWidth = 1000;
width = 1000;
}
);
note = cid14598;
unicode = 23067;
}
{
glyphname = uni5B53;
layers = (
{
layerId = m01;
shapes = (
{
closed = 1;
nodes = (
(159,536,l),
(291,309,o),
(553,153,o),
(888,103,c),
(895,127,o),
(921,136,o),
(951,137,c),
(952,150,l),
(586,193,o),
(308,337,o),
(178,552,c)
);
},
{
closed = 1;
nodes = (
(483,564,l),
(483,14,ls),
(483,-6,o),
(476,-13,o),
(450,-13,cs),
(423,-13,o),
(276,-2,o),
(276,-2,c),
(276,-19,l),
(335,-25,o),
(372,-31,o),
(392,-40,cs),
(409,-47,o),
(417,-59,o),
(421,-73,c),
(517,-64,o),
(527,-32,o),
(527,10,cs),
(527,528,l),
(551,531,o),
(560,540,o),
(563,554,c)
);
},
{
closed = 1;
nodes = (
(766,753,l),
(710,693,o),
(588,593,o),
(488,542,c),
(509,542,l),
(618,583,o),
(739,662,o),
(815,718,c),
(837,719,o),
(850,721,o),
(859,728,c),
(793,789,l),
(755,753,l)
);
},
{
closed = 1;
nodes = (
(149,753,l),
(158,723,l),
(791,723,l),
(791,753,l)
);
},
{
closed = 1;
nodes = (
(211,602,l),
(174,613,l),
(160,557,l),
(129,519,o),
(81,468,o),
(50,440,c),
(105,393,l),
(112,400,o),
(114,409,o),
(106,420,c),
(125,452,o),
(158,513,o),
(178,552,c)
);
}
);
vertWidth = 1000;
width = 1000;
},
{
layerId = "435FFEB5-1267-4A4D-8575-60B204161920";
shapes = (
{
closed = 1;
nodes = (
(138,550,l),
(234,304,o),
(485,134,o),
(838,76,c),
(847,147,o),
(894,202,o),
(980,225,c),
(981,240,l),
(582,256,o),
(285,371,o),
(153,562,c)
);
},
{
closed = 1;
nodes = (
(425,575,l),
(425,84,ls),
(425,71,o),
(419,65,o),
(402,65,cs),
(373,65,o),
(214,74,o),
(214,74,c),
(214,62,l),
(286,49,o),
(313,33,o),
(337,10,cs),
(362,-13,o),
(369,-46,o),
(375,-95,c),
(552,-80,o),
(578,-25,o),
(578,74,cs),
(578,532,l),
(600,536,o),
(610,544,o),
(612,559,c)
);
},
{
closed = 1;
nodes = (
(697,754,l),
(662,698,o),
(583,592,o),
(519,535,c),
(531,535,l),
(641,575,o),
(768,644,o),
(860,701,c),
(882,703,o),
(893,706,o),
(901,716,c),
(767,832,l),
(685,754,l)
);
},
{
closed = 1;
nodes = (
(138,754,l),
(147,726,l),
(799,726,l),
(799,754,l)
);
},
{
closed = 1;
nodes = (
(187,612,l),
(139,622,l),
(134,565,l),
(105,535,o),
(52,491,o),
(21,469,c),
(92,390,l),
(100,397,o),
(102,408,o),
(95,419,c),
(111,453,o),
(138,522,o),
(153,562,c)
);
}
);
vertWidth = 1000;
width = 1000;
}
);
note = cid15334;
unicode = 23379;
}
{
glyphname = uni5BF3;
layers = (
{
layerId = m01;
shapes = (
{
closed = 1;
nodes = (
(142,407,l),
(151,410,o),
(158,416,o),
(163,429,c),
(303,451,o),
(406,470,o),
(476,484,c),
(474,501,l),
(322,485,o),
(173,469,o),
(105,465,c)
);
},
{
closed = 1;
nodes = (
(164,656,l),
(171,627,l),
(454,627,ls),
(468,627,o),
(477,631,o),
(479,642,c),
(455,665,o),
(419,693,o),
(419,693,c),
(387,656,l)
);
},
{
closed = 1;
nodes = (
(169,571,l),
(176,542,l),
(437,542,ls),
(450,542,o),
(459,547,o),
(461,558,c),
(439,579,o),
(407,604,o),
(407,604,c),
(378,571,l)
);
},
{
closed = 1;
nodes = (
(747,555,l),
(791,524,o),
(832,481,o),
(852,443,c),
(904,417,o),
(921,528,o),
(756,566,c)
);
},
{
closed = 1;
nodes = (
(284,656,l),
(284,459,l),
(328,465,l),
(328,656,l)
);
},
{
closed = 1;
nodes = (
(575,717,l),
(555,668,o),
(517,603,o),
(479,565,c),
(493,555,l),
(540,586,o),
(585,640,o),
(611,684,c),
(632,680,o),
(640,684,o),
(644,693,c)
);
},
{
closed = 1;
nodes = (
(666,645,l),
(666,479,ls),
(666,468,o),
(663,463,o),
(650,463,cs),
(636,463,o),
(580,467,o),
(580,467,c),
(580,451,l),
(608,448,o),
(623,444,o),
(632,438,cs),
(640,432,o),
(644,422,o),
(645,412,c),
(701,419,o),
(710,440,o),
(710,479,cs),
(710,645,l)
);
},
{
closed = 1;
nodes = (
(572,580,l),
(546,529,o),
(504,476,o),
(463,441,c),
(477,427,l),
(521,457,o),
(566,498,o),
(594,534,c),
(613,528,o),
(626,535,o),
(632,544,c)
);
},
{
closed = 1;
nodes = (
(254,305,l),
(254,276,l),
(769,276,l),
(769,305,l)
);
},
{
closed = 1;
nodes = (
(254,206,l),
(254,176,l),
(769,176,l),
(769,206,l)
);
},
{
closed = 1;
nodes = (
(254,106,l),
(254,77,l),
(769,77,l),
(769,106,l)
);
},
{
closed = 1;
nodes = (
(748,403,l),
(748,46,l),
(754,46,ls),
(768,46,o),
(791,59,o),
(792,65,c),
(792,369,l),
(807,371,o),
(821,378,o),
(826,385,c),
(766,432,l),
(740,403,l)
);
},
{
closed = 1;
nodes = (
(237,403,l),
(237,36,l),
(245,36,ls),
(264,36,o),
(282,46,o),
(282,50,cs),
(282,373,l),
(780,373,l),
(780,403,l),
(287,403,l),
(237,429,l)
);
},
{
closed = 1;
nodes = (
(393,70,l),
(328,24,o),
(195,-29,o),
(75,-55,c),
(81,-73,l),
(206,-57,o),
(336,-18,o),
(414,20,c),
(434,13,o),
(450,14,o),
(457,22,c)
);
},
{
closed = 1;
nodes = (
(589,36,l),
(718,9,o),
(818,-27,o),
(878,-64,cs),
(942,-100,o),
(1017,16,o),
(593,54,c)
);
},
{
closed = 1;
nodes = (
(164,744,l),
(164,714,l),
(881,714,l),
(881,744,l)
);
},
{
closed = 1;
nodes = (
(476,833,l),
(476,728,l),
(520,728,l),
(520,797,l),
(544,800,o),
(555,810,o),
(558,824,c)
);
},
{
closed = 1;
nodes = (
(152,790,l),
(154,735,o),
(127,678,o),
(95,656,cs),
(80,644,o),
(71,628,o),
(80,614,cs),
(91,598,o),
(119,606,o),
(136,621,cs),
(164,645,o),
(190,704,o),
(171,790,c)
);
},
{
closed = 1;
nodes = (
(862,744,l),
(855,710,o),
(841,668,o),
(827,637,c),
(842,630,l),
(866,651,o),
(893,681,o),
(910,707,c),
(929,708,o),
(941,710,o),
(948,717,c),
(885,778,l),
(851,744,l)
);
},
{
closed = 1;
nodes = (
(552,650,l),
(552,620,l),
(808,620,l),
(808,650,l)
);
},
{
closed = 1;
nodes = (
(793,650,l),
(790,627,o),
(782,598,o),
(773,574,c),
(789,566,l),
(805,579,o),
(823,598,o),
(836,615,c),
(854,616,o),
(866,617,o),
(873,623,c),
(813,683,l),
(782,650,l)
);
}
);
vertWidth = 1000;
width = 1000;
},
{
layerId = "435FFEB5-1267-4A4D-8575-60B204161920";
shapes = (
{
closed = 1;
nodes = (
(129,380,l),
(140,382,o),
(151,389,o),
(157,402,c),
(307,447,o),
(410,480,o),
(480,506,c),
(479,520,l),
(310,508,o),
(147,499,o),
(75,497,c)
);
},
{
closed = 1;
nodes = (
(131,669,l),
(139,641,l),
(459,641,ls),
(473,641,o),
(482,646,o),
(485,657,c),
(450,688,o),
(393,729,o),
(393,729,c),
(344,669,l)
);
},
{
closed = 1;
nodes = (
(143,586,l),
(151,558,l),
(445,558,ls),
(458,558,o),
(468,563,o),
(470,574,c),
(440,601,o),
(393,636,o),
(393,636,c),
(351,586,l)
);
},
{
closed = 1;
nodes = (
(765,570,l),
(806,537,o),
(836,487,o),
(843,439,c),
(948,373,o),
(1035,569,o),
(772,578,c)
);
},
{
closed = 1;
nodes = (
(229,669,l),
(229,473,l),
(349,493,l),
(349,669,l)
);
},
{
closed = 1;
nodes = (
(546,731,l),
(533,663,o),
(498,588,o),
(452,545,c),
(461,537,l),
(545,566,o),
(612,620,o),
(655,679,c),
(680,676,o),
(687,680,o),
(691,690,c)
);
},
{
closed = 1;
nodes = (
(642,642,l),
(642,505,ls),
(642,497,o),
(640,490,o),
(628,490,cs),
(614,490,o),
(575,492,o),
(575,492,c),
(575,479,l),
(604,475,o),
(614,465,o),
(621,457,cs),
(629,447,o),
(631,430,o),
(632,408,c),
(742,415,o),
(757,437,o),
(757,503,cs),
(757,642,l)
);
},
{
closed = 1;
nodes = (
(535,597,l),
(512,534,o),
(470,467,o),
(426,425,c),
(436,413,l),
(502,433,o),
(572,477,o),
(619,527,c),
(640,525,o),
(653,533,o),
(658,544,c)
);
},
{
closed = 1;
nodes = (
(240,296,l),
(240,268,l),
(734,268,l),
(734,296,l)
);
},
{
closed = 1;
nodes = (
(240,203,l),
(240,175,l),
(734,175,l),
(734,203,l)
);
},
{
closed = 1;
nodes = (
(240,108,l),
(240,80,l),
(734,80,l),
(734,108,l)
);
},
{
closed = 1;
nodes = (
(654,387,l),
(654,46,l),
(679,46,ls),
(725,46,o),
(795,71,o),
(796,79,c),
(796,343,l),
(813,346,o),
(822,353,o),
(827,359,c),
(705,451,l),
(645,387,l)
);
},
{
closed = 1;
nodes = (
(215,387,l),
(215,34,l),
(235,34,ls),
(293,34,o),
(355,65,o),
(355,77,cs),
(355,359,l),
(776,359,l),
(776,387,l),
(363,387,l),
(215,443,l)
);
},
{
closed = 1;
nodes = (
(374,83,l),
(306,22,o),
(165,-48,o),
(30,-81,c),
(33,-94,l),
(185,-93,o),
(349,-67,o),
(448,-22,c),
(480,-30,o),
(500,-25,o),
(510,-15,c)
);
},
{
closed = 1;
nodes = (
(544,39,l),
(666,10,o),
(750,-40,o),
(795,-75,cs),
(916,-161,o),
(1155,69,o),
(547,51,c)
);
},
{
closed = 1;
nodes = (
(157,755,l),
(157,727,l),
(857,727,l),
(857,755,l)
);
},
{
closed = 1;
nodes = (
(423,859,l),
(423,738,l),
(573,738,l),
(573,817,l),
(601,822,o),
(608,832,o),
(609,846,c)
);
},
{
closed = 1;
nodes = (
(165,809,l),
(166,775,o),
(131,743,o),
(101,732,cs),
(66,718,o),
(39,689,o),
(49,648,cs),
(60,604,o),
(109,589,o),
(144,605,cs),
(194,627,o),
(223,704,o),
(178,809,c)
);
},
{
closed = 1;
nodes = (
(797,755,l),
(795,721,o),
(789,679,o),
(781,647,c),
(789,641,l),
(837,656,o),
(890,680,o),
(928,701,c),
(949,702,o),
(959,704,o),
(967,713,c),
(852,821,l),
(786,755,l)
);
},
{
closed = 1;
nodes = (
(570,651,l),
(570,623,l),
(858,623,l),
(858,651,l)
);
},
{
closed = 1;
nodes = (
(794,651,l),
(793,632,o),
(788,599,o),
(783,580,c),
(795,573,l),
(824,579,o),
(862,592,o),
(885,606,c),
(904,607,o),
(914,609,o),
(922,617,c),
(832,702,l),
(783,651,l)
);
}
);
vertWidth = 1000;
width = 1000;
}
);
note = cid15651;
unicode = 23539;
}
{
glyphname = uni5C44;
layers = (
{
layerId = m01;
shapes = (
{
closed = 1;
nodes = (
(184,778,l),
(184,748,l),
(837,748,l),
(837,778,l)
);
},
{
closed = 1;
nodes = (
(812,778,l),
(812,521,l),
(818,521,ls),
(833,521,o),
(855,533,o),
(856,539,c),
(856,738,l),
(875,742,o),
(893,750,o),
(900,758,c),
(832,811,l),
(802,778,l)
);
},
{
closed = 1;
nodes = (
(184,594,l),
(184,564,l),
(837,564,l),
(837,594,l)
);
},
{
closed = 1;
nodes = (
(166,517,ls),
(166,317,o),
(151,110,o),
(39,-58,c),
(57,-70,l),
(197,99,o),
(209,337,o),
(209,518,cs),
(209,778,l),
(220,778,l),
(166,806,l)
);
},
{
closed = 1;
nodes = (
(527,540,l),
(527,407,l),
(571,407,l),
(571,505,l),
(593,509,o),
(601,518,o),
(603,531,c)
);
},
{
closed = 1;
nodes = (
(307,480,l),
(307,421,o),
(277,358,o),
(248,333,cs),
(232,319,o),
(223,299,o),
(234,285,cs),
(246,269,o),
(277,277,o),
(293,295,cs),
(337,345,o),
(338,422,o),
(326,479,c)
);
},
{
closed = 1;
nodes = (
(315,427,l),
(315,397,l),
(846,397,l),
(846,427,l)
);
},
{
closed = 1;
nodes = (
(808,427,l),
(793,380,o),
(773,329,o),
(755,295,c),
(770,288,l),
(797,314,o),
(835,360,o),
(855,391,c),
(874,392,o),
(886,393,o),
(893,400,c),
(831,460,l),
(798,427,l)
);
},
{
closed = 1;
nodes = (
(394,253,l),
(355,111,o),
(264,-10,o),
(158,-59,c),
(168,-72,l),
(283,-30,o),
(386,81,o),
(434,216,c),
(457,212,o),
(465,216,o),
(470,225,c)
);
},
{
closed = 1;
nodes = (
(439,320,l),
(448,290,l),
(652,290,l),
(652,320,l)
);
},
{
closed = 1;
nodes = (
(626,320,l),
(626,304,l),
(667,129,o),
(758,3,o),
(900,-75,c),
(907,-58,o),
(924,-47,o),
(944,-44,c),
(948,-34,l),
(793,35,o),
(697,141,o),
(657,286,c),
(685,287,o),
(707,293,o),
(717,304,c),
(637,361,l),
(608,320,l)
);
}
);
vertWidth = 1000;
width = 1000;
},
{
layerId = "435FFEB5-1267-4A4D-8575-60B204161920";
shapes = (
{
closed = 1;
nodes = (
(192,777,l),
(192,749,l),
(842,749,l),
(842,777,l)
);
},
{
closed = 1;
nodes = (
(752,777,l),
(752,524,l),
(778,524,ls),
(824,524,o),
(899,547,o),
(900,553,c),
(900,725,l),
(921,730,o),
(933,739,o),
(939,747,c),
(805,847,l),
(742,777,l)
);
},
{
closed = 1;
nodes = (
(192,601,l),
(192,573,l),
(842,573,l),
(842,601,l)
);
},
{
closed = 1;
nodes = (
(140,506,ls),
(140,309,o),
(130,91,o),
(16,-81,c),
(24,-87,l),
(271,68,o),
(282,324,o),
(282,506,cs),
(282,777,l),
(303,777,l),
(140,832,l)
);
},
{
closed = 1;
nodes = (
(517,551,l),
(517,416,l),
(655,416,l),
(655,512,l),
(679,516,o),
(686,525,o),
(687,538,c)
);
},
{
closed = 1;
nodes = (
(363,508,l),
(366,467,o),
(331,420,o),
(307,402,cs),
(285,386,o),
(256,364,o),
(267,321,cs),
(279,274,o),
(342,264,o),
(370,291,cs),
(421,342,o),
(401,447,o),
(376,508,c)
);
},
{
closed = 1;
nodes = (
(370,431,l),
(370,403,l),
(850,403,l),
(850,431,l)
);
},
{
closed = 1;
nodes = (
(782,431,l),
(779,394,o),
(771,344,o),
(763,301,c),
(772,295,l),
(812,316,o),
(869,353,o),
(902,379,c),
(923,380,o),
(933,382,o),
(941,391,c),
(834,493,l),
(772,431,l)
);
},
{
closed = 1;
nodes = (
(396,278,l),
(374,128,o),
(286,-11,o),
(167,-82,c),
(173,-91,l),
(330,-47,o),
(468,71,o),
(532,214,c),
(553,212,o),
(569,219,o),
(573,232,c)
);
},
{
closed = 1;
nodes = (
(470,321,l),
(479,293,l),
(660,293,l),
(660,321,l)
);
},
{
closed = 1;
nodes = (
(633,321,l),
(633,305,l),
(655,127,o),
(726,-9,o),
(853,-96,c),
(865,-41,o),
(910,12,o),
(963,35,c),
(966,47,l),
(819,83,o),
(701,176,o),
(658,288,c),
(701,291,o),
(738,300,o),
(751,315,c),
(647,384,l),
(609,321,l)
);
}
);
vertWidth = 1000;
width = 1000;
}
);
note = cid15786;
unicode = 23620;
}
{
glyphname = uni609E;
layers = (
{
layerId = m01;
shapes = (
{
closed = 1;
nodes = (
(536,788,l),
(536,492,l),
(543,492,ls),
(562,492,o),
(580,502,o),
(580,507,cs),
(580,759,l),
(851,759,l),
(851,788,l),
(585,788,l),
(536,813,l),
(536,813,l)
);
},
{
closed = 1;
nodes = (
(821,788,l),
(821,494,l),
(827,494,ls),
(841,494,o),
(864,505,o),
(865,511,c),
(865,749,l),
(885,753,o),
(901,761,o),
(908,768,c),
(840,821,l),
(811,788,l)
);
},
{
closed = 1;
nodes = (
(558,568,l),
(558,539,l),
(847,539,l),
(847,568,l)
);
},
{
closed = 1;
nodes = (
(408,434,l),
(408,405,l),
(810,405,l),
(810,434,l)
);
},
{
closed = 1;
nodes = (
(389,735,l),
(389,339,l),
(398,339,ls),
(415,339,o),
(434,350,o),
(434,358,cs),
(434,698,l),
(458,702,o),
(468,711,o),
(470,725,c)
);
},
{
closed = 1;
nodes = (
(792,434,l),
(792,231,l),
(838,231,l),
(838,395,l),
(857,399,o),
(875,407,o),
(881,415,c),
(814,467,l),
(782,434,l)
);
},
{
closed = 1;
nodes = (
(322,245,l),
(330,216,l),
(946,216,ls),
(959,216,o),
(968,221,o),
(971,232,c),
(944,259,o),
(898,297,o),
(898,297,c),
(859,245,l)
);
},
{
closed = 1;
nodes = (
(632,239,l),
(660,147,o),
(724,11,o),
(923,-72,c),
(930,-48,o),
(946,-45,o),
(969,-43,c),
(971,-31,l),
(762,45,o),
(682,159,o),
(650,245,c)
);
},
{
closed = 1;
nodes = (
(199,834,l),
(199,-74,l),
(208,-74,ls),
(225,-74,o),
(243,-62,o),
(243,-53,cs),
(243,797,l),
(268,801,o),
(276,811,o),
(279,825,c)
);
},
{
closed = 1;
nodes = (
(122,636,l),
(122,564,o),
(93,482,o),
(64,449,cs),
(49,433,o),
(42,412,o),
(54,398,cs),
(69,382,o),
(100,396,o),
(115,419,cs),
(139,453,o),
(161,533,o),
(141,635,c)
);
},
{
closed = 1;
nodes = (
(265,665,l),
(288,624,o),
(312,557,o),
(311,506,c),
(357,461,o),
(410,566,o),
(279,670,c)
);
},
{
closed = 1;
nodes = (
(597,420,l),
(597,191,o),
(590,50,o),
(291,-57,c),
(303,-75,l),
(630,29,o),
(643,172,o),
(645,420,c)
);
}
);
vertWidth = 1000;
width = 1000;
},
{
layerId = "435FFEB5-1267-4A4D-8575-60B204161920";
shapes = (
{
closed = 1;
nodes = (
(562,780,l),
(562,492,l),
(580,492,ls),
(634,492,o),
(692,520,o),
(692,531,cs),
(692,752,l),
(833,752,l),
(833,780,l),
(696,780,l),
(562,832,l),
(562,832,l)
);
},
{
closed = 1;
nodes = (
(780,780,l),
(780,506,l),
(803,506,ls),
(848,506,o),
(914,532,o),
(915,540,c),
(915,730,l),
(936,734,o),
(949,744,o),
(955,751,c),
(830,845,l),
(770,780,l)
);
},
{
closed = 1;
nodes = (
(637,580,l),
(637,552,l),
(840,552,l),
(840,580,l)
);
},
{
closed = 1;
nodes = (
(468,439,l),
(468,411,l),
(795,411,l),
(795,439,l)
);
},
{
closed = 1;
nodes = (
(391,776,l),
(391,310,l),
(412,310,ls),
(458,310,o),
(515,336,o),
(515,347,cs),
(515,740,l),
(536,744,o),
(541,752,o),
(543,763,c)
);
},
{
closed = 1;
nodes = (
(743,439,l),
(743,219,l),
(872,219,l),
(872,395,l),
(890,399,o),
(902,407,o),
(907,414,c),
(792,499,l),
(733,439,l)
);
},
{
closed = 1;
nodes = (
(319,225,l),
(327,197,l),
(971,197,ls),
(985,197,o),
(995,202,o),
(997,213,c),
(969,253,o),
(910,318,o),
(910,318,c),
(859,225,l)
);
},
{
closed = 1;
nodes = (
(672,220,l),
(690,120,o),
(749,-26,o),
(891,-89,c),
(895,-13,o),
(928,17,o),
(990,32,c),
(990,45,l),
(809,80,o),
(710,150,o),
(685,224,c)
);
},
{
closed = 1;
nodes = (
(155,854,l),
(155,-95,l),
(183,-95,ls),
(236,-95,o),
(295,-68,o),
(295,-57,cs),
(295,808,l),
(323,812,o),
(330,823,o),
(332,837,c)
);
},
{
closed = 1;
nodes = (
(92,675,l),
(99,608,o),
(70,533,o),
(45,503,c),
(19,482,o),
(6,451,o),
(23,422,cs),
(43,390,o),
(93,392,o),
(116,423,cs),
(148,468,o),
(156,558,o),
(107,675,c)
);
},
{
closed = 1;
nodes = (
(285,683,l),
(303,643,o),
(321,583,o),
(318,533,c),
(390,460,o),
(490,606,o),
(296,688,c)
);
},
{
closed = 1;
nodes = (
(554,425,l),
(554,178,o),
(558,34,o),
(298,-82,c),
(305,-95,l),
(673,-4,o),
(689,140,o),
(694,425,c)
);
}
);
vertWidth = 1000;
width = 1000;
}
);
note = cid17856;
unicode = 24734;
}
{
glyphname = uni60E6;
layers = (
{
layerId = m01;
shapes = (
{
closed = 1;
nodes = (
(266,663,l),
(292,623,o),
(321,556,o),
(323,506,c),
(370,462,o),
(420,569,o),
(280,669,c)
);
},
{
closed = 1;
nodes = (
(116,643,l),
(116,571,o),
(86,490,o),
(58,457,cs),
(43,440,o),
(36,419,o),
(48,406,cs),
(63,390,o),
(93,404,o),
(109,426,cs),
(133,461,o),
(155,541,o),
(135,642,c)
);
},
{
closed = 1;
nodes = (
(200,834,l),
(200,-74,l),
(209,-74,ls),
(225,-74,o),
(244,-62,o),
(244,-53,cs),
(244,796,l),
(269,800,o),
(277,810,o),
(280,824,c)
);
},
{
closed = 1;
nodes = (
(475,269,l),
(475,-73,l),
(481,-73,ls),
(503,-73,o),
(518,-61,o),
(518,-56,cs),
(518,239,l),
(855,239,l),
(855,-61,l),
(862,-61,ls),
(879,-61,o),
(899,-48,o),
(899,-44,cs),
(899,236,l),
(918,239,o),
(929,245,o),
(934,252,c),
(876,298,l),
(852,269,l),
(530,269,l),
(475,295,l)
);
},
{
closed = 1;
nodes = (
(494,30,l),
(494,0,l),
(873,0,l),
(873,30,l)
);
},
{
closed = 1;
nodes = (
(653,630,l),
(653,255,l),
(697,255,l),
(697,592,l),
(721,596,o),
(732,606,o),
(734,620,c)
);
},
{
closed = 1;
nodes = (
(672,468,l),
(672,438,l),
(930,438,ls),
(944,438,o),
(954,443,o),
(956,454,c),
(927,482,o),
(880,518,o),
(880,518,c),
(839,468,l)
);
},
{
closed = 1;
nodes = (
(630,824,l),
(630,680,l),
(674,680,l),
(674,787,l),
(698,790,o),
(708,800,o),
(710,814,c)
);
},
{
closed = 1;
nodes = (
(414,693,l),
(414,663,l),
(923,663,ls),
(937,663,o),
(947,668,o),
(950,679,c),
(918,708,o),
(869,746,o),
(869,746,c),
(826,693,l)
);
},
{
closed = 1;
nodes = (
(386,693,l),
(386,489,ls),
(386,306,o),
(378,105,o),
(290,-65,c),
(308,-76,l),
(423,95,o),
(430,327,o),
(430,490,cs),
(430,693,l),
(440,693,l),
(386,721,l),
(386,702,l)
);
}
);
vertWidth = 1000;
width = 1000;
},
{
layerId = "435FFEB5-1267-4A4D-8575-60B204161920";
shapes = (
{
closed = 1;
nodes = (
(269,683,l),
(288,643,o),
(305,582,o),
(303,530,c),
(377,455,o),
(480,606,o),
(280,688,c)
);
},
{
closed = 1;
nodes = (
(85,675,l),
(92,605,o),
(66,525,o),
(41,494,c),
(17,473,o),
(6,443,o),
(22,417,cs),
(42,388,o),
(89,394,o),
(110,425,cs),
(139,469,o),
(147,559,o),
(100,675,c)
);
},
{
closed = 1;
nodes = (
(149,854,l),
(149,-95,l),
(176,-95,ls),
(225,-95,o),
(280,-70,o),
(280,-59,cs),
(280,809,l),
(308,813,o),
(315,823,o),
(317,838,c)
);
},
{
closed = 1;
nodes = (
(488,279,l),
(488,-93,l),
(512,-93,ls),
(580,-93,o),
(621,-72,o),
(621,-63,cs),
(621,251,l),
(794,251,l),
(794,-77,l),
(818,-77,ls),
(891,-77,o),
(934,-54,o),
(934,-49,cs),
(934,242,l),
(957,246,o),
(967,252,o),
(973,261,c),
(854,351,l),
(790,279,l),
(632,279,l),
(488,334,l)
);
},
{
closed = 1;
nodes = (
(546,31,l),
(546,3,l),
(879,3,l),
(879,31,l)
);
},
{
closed = 1;
nodes = (
(628,649,l),
(628,270,l),
(761,270,l),
(761,607,l),
(788,611,o),
(795,621,o),
(797,635,c)
);
},
{
closed = 1;
nodes = (
(692,468,l),
(692,440,l),
(944,440,ls),
(958,440,o),
(969,445,o),
(972,456,c),
(928,497,o),
(854,558,o),
(854,558,c),
(788,468,l)
);
},
{
closed = 1;
nodes = (
(592,845,l),
(592,682,l),
(729,682,l),
(729,804,l),
(757,808,o),
(764,818,o),
(765,832,c)
);
},
{
closed = 1;
nodes = (
(438,701,l),
(438,673,l),
(951,673,ls),
(966,673,o),
(977,678,o),
(980,689,c),
(935,731,o),
(858,794,o),
(858,794,c),
(791,701,l)
);
},
{
closed = 1;
nodes = (
(373,701,l),
(373,488,ls),
(373,308,o),
(368,93,o),
(283,-77,c),
(293,-84,l),
(490,71,o),
(501,318,o),
(501,488,cs),
(501,701,l),
(520,701,l),
(373,752,l),
(373,711,l)
);
}
);
vertWidth = 1000;
width = 1000;
}
);
note = cid17969;
unicode = 24806;
}
{
glyphname = uni6286;
layers = (
{
layerId = m01;
shapes = (
{
closed = 1;
nodes = (
(797,627,l),
(755,317,o),
(618,90,o),
(311,-58,c),
(321,-73,l),
(657,66,o),
(796,294,o),
(850,627,c)
);
},
{
closed = 1;
nodes = (
(518,512,l),
(570,224,o),
(698,30,o),
(904,-73,c),
(915,-53,o),
(934,-41,o),
(956,-42,c),
(959,-32,l),
(740,61,o),
(601,245,o),
(538,521,c)
);
},
{
closed = 1;
nodes = (
(856,627,l),
(416,627,l),
(424,597,l),
(947,597,ls),
(961,597,o),
(970,602,o),
(973,613,c),
(943,641,o),
(897,677,o),
(897,677,c)
);
},
{
closed = 1;
nodes = (
(640,831,l),
(640,609,l),
(684,609,l),
(684,795,l),
(708,798,o),
(719,807,o),
(721,821,c)
);
},
{
closed = 1;
nodes = (
(85,239,l),
(94,243,o),
(100,253,o),
(102,264,c),
(229,329,o),
(328,385,o),
(400,424,c),
(393,439,l),
(247,377,o),
(104,317,o),
(45,298,c)
);
},
{
closed = 1;
nodes = (
(209,833,l),
(209,11,ls),
(209,-4,o),
(204,-9,o),
(186,-9,cs),
(169,-9,o),
(79,-2,o),
(79,-2,c),
(79,-19,l),
(116,-23,o),
(140,-29,o),
(154,-38,cs),
(166,-46,o),
(171,-60,o),
(174,-73,c),
(245,-65,o),
(253,-37,o),
(253,6,cs),
(253,797,l),
(277,800,o),
(287,809,o),
(290,823,c)
);
},
{
closed = 1;
nodes = (
(297,621,l),
(46,621,l),
(54,591,l),
(379,591,ls),
(393,591,o),
(402,596,o),
(405,607,c),
(377,634,o),
(335,667,o),
(335,667,c)
);
},
{
closed = 1;
nodes = (
(564,566,l),
(528,576,l),
(518,527,l),
(490,491,o),
(443,436,o),
(415,408,c),
(472,361,l),
(478,368,o),
(480,378,o),
(472,388,c),
(490,422,o),
(521,486,o),
(538,521,c)
);
}
);
vertWidth = 1000;
width = 1000;
},
{
layerId = "435FFEB5-1267-4A4D-8575-60B204161920";
shapes = (
{
closed = 1;
nodes = (
(735,619,l),
(710,347,o),
(586,82,o),
(309,-87,c),
(315,-96,l),
(684,36,o),
(840,308,o),
(891,619,c)
);
},
{
closed = 1;
nodes = (
(511,521,l),
(524,231,o),
(635,26,o),
(847,-96,c),
(873,-31,o),
(923,9,o),
(986,16,c),
(989,27,l),
(727,115,o),
(574,281,o),
(526,527,c)
);
},
{
closed = 1;
nodes = (
(784,619,l),
(398,619,l),
(406,591,l),
(956,591,ls),
(970,591,o),
(981,596,o),
(984,607,c),
(936,650,o),
(855,713,o),
(855,713,c)
);
},
{
closed = 1;
nodes = (
(571,855,l),
(571,607,l),
(716,607,l),
(716,813,l),
(744,818,o),
(750,827,o),
(752,841,c)
);
},
{
closed = 1;
nodes = (
(88,192,l),
(101,197,o),
(111,209,o),
(115,223,c),
(253,319,o),
(348,398,o),
(404,450,c),
(402,459,l),
(249,410,o),
(87,364,o),
(25,350,c)
);
},
{
closed = 1;
nodes = (
(156,855,l),
(156,71,ls),
(156,60,o),
(151,56,o),
(137,56,cs),
(119,56,o),
(38,61,o),
(38,61,c),
(38,48,l),
(82,39,o),
(99,24,o),
(112,4,cs),
(125,-17,o),
(129,-49,o),
(132,-94,c),
(274,-81,o),
(293,-31,o),
(293,62,cs),
(293,810,l),
(318,814,o),
(328,824,o),
(330,839,c)
);
},
{
closed = 1;
nodes = (
(275,619,l),
(25,619,l),
(33,591,l),
(409,591,ls),
(423,591,o),
(434,596,o),
(436,607,c),
(401,650,o),
(334,717,o),
(334,717,c)
);
},
{
closed = 1;
nodes = (
(550,572,l),
(507,581,l),
(506,531,l),
(477,494,o),
(424,435,o),
(393,405,c),
(472,325,l),
(479,334,o),
(481,347,o),
(473,359,c),
(488,399,o),
(514,483,o),
(526,527,c)
);
}
);
vertWidth = 1000;
width = 1000;
}
);
note = cid18717;
unicode = 25222;
}
{
glyphname = uni6757;
layers = (
{
layerId = m01;
shapes = (
{
closed = 1;
nodes = (
(484,273,l),
(431,273,l),
(344,155,o),
(205,47,o),
(48,-25,c),
(57,-42,l),
(235,26,o),
(387,129,o),
(484,258,c)
);
},
{
closed = 1;
nodes = (
(510,268,l),
(591,138,o),
(743,19,o),
(905,-41,c),
(913,-17,o),
(932,-2,o),
(953,0,c),
(954,11,l),
(787,56,o),
(622,159,o),
(527,278,c)
);
},
{
closed = 1;
nodes = (
(59,293,l),
(68,263,l),
(922,263,ls),
(936,263,o),
(946,268,o),
(949,279,c),
(917,309,o),
(867,347,o),
(867,347,c),
(822,293,l)
);
},
{
closed = 1;
nodes = (
(476,419,l),
(476,-72,l),
(485,-72,ls),
(501,-72,o),
(520,-60,o),
(520,-52,cs),
(520,382,l),
(545,385,o),
(553,395,o),
(556,409,c)
);
},
{
closed = 1;
nodes = (
(49,717,l),
(58,687,l),
(925,687,ls),
(939,687,o),
(948,692,o),
(951,703,c),
(921,732,o),
(874,768,o),
(874,768,c),
(832,717,l)
);
},
{
closed = 1;
nodes = (
(477,835,l),
(477,704,l),
(521,704,l),
(521,799,l),
(545,802,o),
(556,812,o),
(558,826,c)
);
},
{
closed = 1;
nodes = (
(203,712,l),
(203,524,ls),
(203,473,o),
(221,466,o),
(332,465,cs),
(549,464,ls),
(825,463,o),
(860,469,o),
(860,495,cs),
(860,505,o),
(852,508,o),
(828,514,cs),
(824,515,l),
(815,515,l),
(807,512,o),
(797,510,o),
(788,509,cs),
(780,508,o),
(770,507,o),
(758,506,cs),
(728,504,o),
(645,504,o),
(551,504,cs),
(330,504,ls),
(251,504,o),
(247,508,o),
(247,527,cs),
(247,688,ls),
(247,695,o),
(247,704,o),
(247,712,c)
);
}
);
vertWidth = 1000;
width = 1000;
},
{
layerId = "435FFEB5-1267-4A4D-8575-60B204161920";
shapes = (
{
closed = 1;
nodes = (
(431,277,l),
(304,277,l),
(250,165,o),
(147,47,o),
(17,-27,c),
(24,-37,l),
(194,13,o),
(337,88,o),
(431,190,c)
);
},
{
closed = 1;
nodes = (
(563,289,l),
(620,130,o),
(722,23,o),
(871,-35,c),
(886,38,o),
(928,86,o),
(982,102,c),
(984,113,l),
(795,139,o),
(646,204,o),
(571,292,c)
);
},
{
closed = 1;
nodes = (
(31,292,l),
(39,264,l),
(942,264,ls),
(957,264,o),
(968,269,o),
(971,280,c),
(921,323,o),
(837,386,o),
(837,386,c),
(763,292,l)
);
},
{
closed = 1;
nodes = (
(421,422,l),
(421,-95,l),
(448,-95,ls),
(508,-95,o),
(575,-69,o),
(575,-59,cs),
(575,377,l),
(603,382,o),
(610,392,o),
(612,406,c)
);
},
{
closed = 1;
nodes = (
(29,719,l),
(37,691,l),
(944,691,ls),
(958,691,o),
(969,696,o),
(972,707,c),
(925,747,o),
(848,804,o),
(848,804,c),
(779,719,l)
);
},
{
closed = 1;
nodes = (
(426,856,l),
(426,711,l),
(571,711,l),
(571,815,l),
(599,819,o),
(605,829,o),
(607,843,c)
);
},
{
closed = 1;
nodes = (
(165,714,l),
(165,546,ls),
(165,451,o),
(214,438,o),
(366,438,cs),
(561,438,ls),
(865,438,o),
(914,452,o),
(914,516,cs),
(914,541,o),
(899,559,o),
(845,572,cs),
(839,573,l),
(830,573,l),
(814,568,o),
(793,564,o),
(782,562,cs),
(771,560,o),
(749,558,o),
(727,556,cs),
(697,555,o),
(629,554,o),
(571,554,cs),
(365,554,ls),
(312,554,o),
(307,558,o),
(307,572,cs),
(307,684,ls),
(307,693,o),
(307,706,o),
(307,714,c)
);
}
);
vertWidth = 1000;
width = 1000;
}
);
note = cid20769;
unicode = 26455;
}
{
glyphname = uni6AE5;
layers = (
{
layerId = m01;
shapes = (
{
closed = 1;
nodes = (
(204,422,l),
(240,384,o),
(284,318,o),
(295,270,c),
(343,233,o),
(381,339,o),
(217,429,c)
);
},
{
closed = 1;
nodes = (
(174,838,l),
(174,-71,l),
(184,-71,ls),
(199,-71,o),
(218,-59,o),
(218,-51,cs),
(218,801,l),
(243,805,o),
(251,814,o),
(253,829,c)
);
},
{
closed = 1;
nodes = (
(165,604,l),
(144,450,o),
(107,293,o),
(43,168,c),
(59,154,l),
(140,278,o),
(188,428,o),
(214,588,c),
(214,604,l)
);
},
{
closed = 1;
nodes = (
(45,604,l),
(53,574,l),
(317,574,ls),
(331,574,o),
(340,579,o),
(343,590,c),
(317,618,o),
(274,655,o),
(274,655,c),
(236,604,l)
);
},
{
closed = 1;
nodes = (
(388,715,l),
(388,685,l),
(935,685,ls),
(949,685,o),
(957,690,o),
(960,701,c),
(930,730,o),
(881,768,o),
(881,768,c),
(837,715,l)
);
},
{
closed = 1;
nodes = (
(363,725,l),
(363,492,ls),
(363,308,o),
(355,105,o),
(267,-64,c),
(285,-75,l),
(400,94,o),
(407,328,o),
(407,493,cs),
(407,715,l),
(417,715,l),
(363,743,l)
);
},
{
closed = 1;
nodes = (
(617,380,l),
(617,194,l),
(623,194,ls),
(637,194,o),
(657,205,o),
(658,210,c),
(658,344,l),
(676,347,o),
(692,354,o),
(698,361,c),
(635,409,l),
(608,380,l)
);
},
{
closed = 1;
nodes = (
(448,185,l),
(455,185,ls),
(472,185,o),
(489,195,o),
(489,199,cs),
(489,350,l),
(639,350,l),
(639,380,l),
(494,380,l),
(448,403,l)
);
},
{
closed = 1;
nodes = (
(602,180,l),
(595,133,o),
(583,67,o),
(573,24,c),
(594,20,l),
(613,57,o),
(634,103,o),
(647,140,c),
(668,138,o),
(679,147,o),
(682,159,c)
);
},
{
closed = 1;
nodes = (
(705,384,l),
(725,335,o),
(748,257,o),
(746,199,c),
(788,155,o),
(835,260,o),
(720,389,c)
);
},
{
closed = 1;
nodes = (
(442,164,l),
(458,132,o),
(478,79,o),
(480,41,c),
(518,3,o),
(563,83,o),
(456,169,c)
);
},
{
closed = 1;
nodes = (
(419,-63,l),
(427,-61,o),
(435,-54,o),
(439,-41,c),
(567,-7,o),
(663,23,o),
(732,44,c),
(729,61,l),
(586,32,o),
(446,6,o),
(385,-2,c)
);
},
{
closed = 1;
nodes = (
(825,665,l),
(825,11,ls),
(825,-3,o),
(821,-8,o),
(806,-8,cs),
(791,-8,o),
(718,-2,o),
(718,-2,c),
(718,-19,l),
(749,-23,o),
(769,-27,o),
(781,-36,cs),
(791,-44,o),
(795,-58,o),
(796,-71,c),
(862,-64,o),
(869,-37,o),
(869,6,cs),
(869,629,l),
(893,632,o),
(903,641,o),
(906,655,c)
);
},
{
closed = 1;
nodes = (
(634,251,l),
(471,251,l),
(471,221,l),
(634,221,l)
);
},
{
closed = 1;
nodes = (
(684,500,l),
(692,470,l),
(936,470,ls),
(949,470,o),
(958,475,o),
(961,486,c),
(942,514,o),
(906,555,o),
(906,555,c),
(875,500,l)
);
},
{
closed = 1;
nodes = (
(434,466,l),
(442,436,l),
(670,436,ls),
(684,436,o),
(693,441,o),
(695,452,c),
(671,476,o),
(634,506,o),
(634,506,c),
(601,466,l)
);
},
{
closed = 1;
nodes = (
(420,578,l),
(428,548,l),
(686,548,ls),
(700,548,o),
(709,553,o),
(712,564,c),
(686,589,o),
(646,621,o),
(646,621,c),
(611,578,l)
);
},
{
closed = 1;
nodes = (
(537,665,l),
(537,453,l),
(578,453,l),
(578,631,l),
(600,634,o),
(610,643,o),
(612,656,c)
);
},
{
closed = 1;
nodes = (
(611,833,l),
(611,695,l),
(656,695,l),
(656,797,l),
(679,800,o),
(690,810,o),
(692,824,c)
);
}
);
vertWidth = 1000;
width = 1000;
},
{
layerId = "435FFEB5-1267-4A4D-8575-60B204161920";
shapes = (
{
closed = 1;
nodes = (
(231,446,l),
(251,404,o),
(268,340,o),
(264,286,c),
(335,208,o),
(430,369,o),
(242,452,c)
);
},
{
closed = 1;
nodes = (
(128,857,l),
(128,-96,l),
(151,-96,ls),
(195,-96,o),
(245,-67,o),
(245,-54,cs),
(245,813,l),
(272,817,o),
(279,827,o),
(282,841,c)
);
},
{
closed = 1;
nodes = (
(123,600,l),
(108,446,o),
(78,277,o),
(21,154,c),
(33,143,l),
(143,262,o),
(211,410,o),
(240,584,c),
(240,600,l)
);
},
{
closed = 1;
nodes = (
(30,600,l),
(38,572,l),
(334,572,ls),
(347,572,o),
(357,577,o),
(359,588,c),
(332,621,o),
(282,670,o),
(282,670,c),
(239,600,l)
);
},
{
closed = 1;
nodes = (
(418,720,l),
(418,692,l),
(951,692,ls),
(965,692,o),
(976,697,o),
(979,708,c),
(935,747,o),
(863,804,o),
(863,804,c),
(799,720,l)
);
},
{
closed = 1;
nodes = (
(342,730,l),
(342,506,ls),
(342,319,o),
(336,101,o),
(245,-74,c),
(256,-81,l),
(446,81,o),
(457,330,o),
(457,506,cs),
(457,720,l),
(475,720,l),
(342,767,l)
);
},
{
closed = 1;
nodes = (
(612,385,l),
(612,198,l),
(626,198,ls),
(652,198,o),
(694,214,o),
(695,221,c),
(695,347,l),
(711,350,o),
(723,357,o),
(728,363,c),
(643,427,l),
(604,385,l)
);
},
{
closed = 1;
nodes = (
(469,189,l),
(481,189,ls),
(515,189,o),
(552,207,o),
(552,214,cs),
(552,357,l),
(648,357,l),
(648,385,l),
(556,385,l),
(469,421,l)
);
},
{
closed = 1;
nodes = (
(598,198,l),
(597,151,o),
(592,84,o),
(587,40,c),
(603,40,l),
(633,72,o),
(663,112,o),
(683,141,c),
(705,140,o),
(716,149,o),
(719,161,c)
);
},
{
closed = 1;
nodes = (
(702,409,l),
(715,353,o),
(724,278,o),
(718,213,c),
(785,125,o),
(886,286,o),
(714,413,c)
);
},
{
closed = 1;
nodes = (
(459,182,l),
(470,154,o),
(480,110,o),
(478,73,c),
(536,12,o),
(629,121,o),
(471,186,c)
);
},
{
closed = 1;
nodes = (
(465,-85,l),
(477,-82,o),
(487,-73,o),
(491,-60,c),
(610,1,o),
(692,47,o),
(746,80,c),
(745,92,l),
(605,65,o),
(466,42,o),
(406,35,c)
);
},
{
closed = 1;
nodes = (
(789,676,l),
(789,44,ls),
(789,33,o),
(785,29,o),
(772,29,cs),
(756,29,o),
(684,34,o),
(684,34,c),
(684,20,l),
(722,13,o),
(738,1,o),
(750,-15,cs),
(761,-32,o),
(765,-58,o),
(767,-92,c),
(882,-81,o),
(897,-40,o),
(897,37,cs),
(897,635,l),
(921,638,o),
(930,647,o),
(933,662,c)
);
},
{
closed = 1;
nodes = (
(645,249,l),
(514,249,l),
(514,221,l),
(645,221,l)
);
},
{
closed = 1;
nodes = (
(712,503,l),
(719,475,l),
(960,475,ls),
(974,475,o),
(983,480,o),
(985,491,c),
(964,521,o),
(922,568,o),
(922,568,c),
(886,503,l)
);
},
{
closed = 1;
nodes = (
(464,462,l),
(471,434,l),
(710,434,ls),
(723,434,o),
(732,439,o),
(734,450,c),
(712,479,o),
(670,523,o),
(670,523,c),
(634,462,l)
);
},
{
closed = 1;
nodes = (
(454,584,l),
(462,556,l),
(729,556,ls),
(743,556,o),
(752,561,o),
(754,572,c),
(730,603,o),
(683,648,o),
(683,648,c),
(643,584,l)
);
},
{
closed = 1;
nodes = (
(537,679,l),
(537,444,l),
(633,444,l),
(633,644,l),
(653,648,o),
(660,656,o),
(662,667,c)
);
},
{
closed = 1;
nodes = (
(587,855,l),
(587,700,l),
(702,700,l),
(702,814,l),
(729,818,o),
(737,828,o),
(739,842,c)
);
}
);
vertWidth = 1000;
width = 1000;
}
);
note = cid22321;
unicode = 27365;
}
{
glyphname = uni6C26;
layers = (
{
layerId = m01;
shapes = (
{
closed = 1;
nodes = (
(734,535,l),
(737,297,o),
(757,46,o),
(873,-42,c),
(903,-69,o),
(939,-84,o),
(954,-66,cs),
(961,-57,o),
(956,-46,o),
(938,-24,c),
(951,103,l),
(938,105,l),
(930,73,o),
(920,40,o),
(910,10,cs),
(906,-2,o),
(902,-3,o),
(892,5,cs),
(801,73,o),
(778,315,o),
(780,496,c),
(801,499,o),
(815,504,o),
(821,511,c),
(756,567,l),
(725,535,l)
);
},
{
closed = 1;
nodes = (
(140,535,l),
(149,505,l),
(782,505,l),
(782,535,l)
);
},
{
closed = 1;
nodes = (
(247,634,l),
(255,605,l),
(829,605,ls),
(843,605,o),
(853,610,o),
(856,621,c),
(827,648,o),
(779,686,o),
(779,686,c),
(738,634,l)
);
},
{
closed = 1;
nodes = (
(243,734,l),
(229,704,l),
(887,704,ls),
(900,704,o),
(910,709,o),
(912,720,c),
(881,751,o),
(832,787,o),
(832,787,c),
(789,734,l)
);
},
{
closed = 1;
nodes = (
(280,833,l),
(237,725,o),
(149,596,o),
(59,523,c),
(73,510,l),
(175,578,o),
(271,697,o),
(321,795,c),
(344,791,o),
(352,794,o),
(357,804,c)
);
},
{
closed = 1;
nodes = (
(90,391,l),
(98,361,l),
(691,361,ls),
(704,361,o),
(713,366,o),
(716,377,c),
(686,406,o),
(637,444,o),
(637,444,c),
(594,391,l)
);
},
{
closed = 1;
nodes = (
(166,293,l),
(212,270,o),
(267,223,o),
(285,183,c),
(340,157,o),
(359,271,o),
(175,304,c)
);
},
{
closed = 1;
nodes = (
(493,322,l),
(420,224,o),
(264,123,o),
(109,71,c),
(118,55,l),
(285,98,o),
(445,188,o),
(524,276,c),
(547,270,o),
(555,273,o),
(562,283,c)
);
},
{
closed = 1;
nodes = (
(597,239,l),
(499,105,o),
(285,-9,o),
(60,-58,c),
(66,-75,l),
(305,-36,o),
(522,71,o),
(626,193,c),
(647,186,o),
(656,189,o),
(664,198,c)
);
},
{
closed = 1;
nodes = (
(459,74,l),
(550,37,o),
(646,-20,o),
(708,-72,c),
(771,-88,o),
(770,24,o),
(467,87,c)
);
},
{
closed = 1;
nodes = (
(376,480,l),
(376,378,l),
(421,378,l),
(421,445,l),
(442,449,o),
(452,458,o),
(453,471,c)
);
},
{
closed = 1;
nodes = (
(343,382,l),
(320,339,o),
(290,292,o),
(265,261,c),
(279,249,l),
(315,275,o),
(353,309,o),
(379,338,c),
(393,333,o),
(406,336,o),
(412,347,c)
);
}
);
vertWidth = 1000;
width = 1000;
},
{
layerId = "435FFEB5-1267-4A4D-8575-60B204161920";
shapes = (
{
closed = 1;
nodes = (
(664,530,l),
(666,303,o),
(692,73,o),
(803,-40,c),
(840,-85,o),
(911,-120,o),
(960,-76,cs),
(984,-54,o),
(980,-10,o),
(951,50,c),
(960,202,l),
(951,204,l),
(940,168,o),
(927,131,o),
(915,106,cs),
(909,95,o),
(902,94,o),
(893,103,cs),
(830,164,o),
(809,355,o),
(815,486,c),
(834,490,o),
(849,496,o),
(855,504,c),
(721,607,l),
(652,530,l)
);
},
{
closed = 1;
nodes = (
(139,530,l),
(148,502,l),
(753,502,l),
(753,530,l)
);
},
{
closed = 1;
nodes = (
(264,633,l),
(272,605,l),
(842,605,ls),
(856,605,o),
(867,610,o),
(870,621,c),
(823,661,o),
(746,717,o),
(746,717,c),
(678,633,l)
);
},
{
closed = 1;
nodes = (
(244,734,l),
(230,706,l),
(908,706,ls),
(923,706,o),
(934,711,o),
(937,722,c),
(885,766,o),
(805,824,o),
(805,824,c),
(733,734,l)
);
},
{
closed = 1;
nodes = (
(230,855,l),
(202,726,o),
(129,585,o),
(40,508,c),
(47,501,l),
(194,557,o),
(313,666,o),
(383,785,c),
(410,782,o),
(418,787,o),
(422,798,c)
);
},
{
closed = 1;
nodes = (
(50,389,l),
(58,361,l),
(658,361,ls),
(673,361,o),
(683,366,o),
(686,377,c),
(645,413,o),
(579,465,o),
(579,465,c),
(520,389,l)
);
},
{
closed = 1;
nodes = (
(128,303,l),
(162,273,o),
(198,221,o),
(209,174,c),
(315,113,o),
(392,313,o),
(136,309,c)
);
},
{
closed = 1;
nodes = (
(451,347,l),
(387,234,o),
(247,112,o),
(84,45,c),
(91,32,l),
(286,68,o),
(451,162,o),
(541,263,c),
(564,259,o),
(574,264,o),
(580,274,c)
);
},
{
closed = 1;
nodes = (
(543,233,l),
(454,104,o),
(264,-18,o),
(49,-81,c),
(54,-94,l),
(300,-66,o),
(511,32,o),
(625,147,c),
(648,141,o),
(658,145,o),
(665,155,c)
);
},
{
closed = 1;
nodes = (
(466,53,l),
(525,19,o),
(576,-35,o),
(598,-86,c),
(719,-155,o),
(818,69,o),
(474,59,c)
);
},
{
closed = 1;
nodes = (
(296,494,l),
(296,373,l),
(427,373,l),
(427,456,l),
(452,460,o),
(458,469,o),
(460,481,c)
);
},
{
closed = 1;
nodes = (
(259,380,l),
(256,343,o),
(247,294,o),
(237,252,c),
(251,248,l),
(284,266,o),
(329,294,o),
(366,321,c),
(388,320,o),
(400,328,o),
(406,339,c)
);
}
);
vertWidth = 1000;
width = 1000;
}
);
note = cid22896;
unicode = 27686;
}
{
glyphname = uni6C61;
layers = (
{
layerId = m01;
shapes = (
{
closed = 1;
nodes = (
(120,809,l),
(167,781,o),
(224,728,o),
(239,684,c),
(300,652,o),
(325,778,o),
(130,819,c)
);
},
{
closed = 1;
nodes = (
(42,586,l),
(89,563,o),
(145,515,o),
(163,475,c),
(222,445,o),
(242,567,o),
(52,597,c)
);
},
{
closed = 1;
nodes = (
(96,200,o),
(63,200,o),
(63,200,c),
(63,177,l),
(84,175,o),
(98,173,o),
(110,164,cs),
(131,150,o),
(138,77,o),
(126,-24,c),
(126,-53,o),
(133,-73,o),
(149,-73,cs),
(176,-73,o),
(190,-50,o),
(192,-10,cs),
(196,69,o),
(172,119,o),
(172,160,cs),
(172,184,o),
(179,214,o),
(188,243,cs),
(202,289,o),
(292,525,o),
(336,651,c),
(316,656,l),
(145,255,o),
(145,255,o),
(129,221,cs),
(120,201,o),
(117,200,o),
(106,200,cs)
);
},
{
closed = 1;
nodes = (
(781,756,l),
(386,756,l),
(394,726,l),
(872,726,ls),
(885,726,o),
(894,731,o),
(897,742,c),
(868,770,o),
(821,806,o),
(821,806,c)
);
},
{
closed = 1;
nodes = (
(835,533,l),
(329,533,l),
(337,503,l),
(926,503,ls),
(940,503,o),
(949,508,o),
(952,519,c),
(923,547,o),
(876,583,o),
(876,583,c)
);
},
{
closed = 1;
nodes = (
(485,508,l),
(465,425,o),
(424,308,o),
(392,245,c),
(411,238,o),
(432,237,o),
(442,244,c),
(467,303,o),
(507,419,o),
(533,507,c)
);
},
{
closed = 1;
nodes = (
(833,333,l),
(454,333,l),
(447,303,l),
(833,303,l)
);
},
{
closed = 1;
nodes = (
(797,333,l),
(807,333,l),
(796,168,o),
(758,31,o),
(723,4,cs),
(711,-5,o),
(701,-8,o),
(680,-8,cs),
(659,-8,o),
(582,0,o),
(540,4,c),
(539,-15,l),
(576,-20,o),
(618,-29,o),
(632,-38,cs),
(646,-46,o),
(651,-61,o),
(651,-76,c),
(689,-76,o),
(727,-65,o),
(753,-43,cs),
(799,-4,o),
(840,126,o),
(856,298,c),
(876,300,o),
(889,305,o),
(896,312,c),
(829,367,l)
);
}
);
vertWidth = 1000;
width = 1000;
},
{
layerId = "435FFEB5-1267-4A4D-8575-60B204161920";
shapes = (
{
closed = 1;
nodes = (
(92,827,l),
(130,787,o),
(175,723,o),
(193,665,c),
(322,593,o),
(411,832,o),
(99,833,c)
);
},
{
closed = 1;
nodes = (
(20,599,l),
(56,561,o),
(95,500,o),
(107,443,c),
(230,366,o),
(328,600,o),
(27,605,c)
);
},
{
closed = 1;
nodes = (
(73,207,o),
(37,207,o),
(37,207,c),
(37,190,l),
(58,188,o),
(76,182,o),
(91,172,cs),
(115,156,o),
(119,59,o),
(98,-44,c),
(109,-83,o),
(139,-96,o),
(165,-96,cs),
(224,-96,o),
(265,-59,o),
(267,-6,cs),
(269,83,o),
(222,111,o),
(220,169,cs),
(219,194,o),
(227,233,o),
(236,267,cs),
(250,322,o),
(317,537,o),
(356,654,c),
(342,658,l),
(144,266,o),
(144,266,o),
(118,227,cs),
(106,207,o),
(101,207,o),
(84,207,cs)
);
},
{
closed = 1;
nodes = (
(736,750,l),
(382,750,l),
(390,722,l),
(886,722,ls),
(901,722,o),
(911,727,o),
(914,738,c),
(872,778,o),
(800,838,o),
(800,838,c)
);
},
{
closed = 1;
nodes = (
(798,530,l),
(337,530,l),
(345,502,l),
(949,502,ls),
(963,502,o),
(974,507,o),
(977,518,c),
(935,558,o),
(862,618,o),
(862,618,c)
);
},
{
closed = 1;
nodes = (
(458,514,l),
(446,440,o),
(401,292,o),
(370,220,c),
(433,200,o),
(493,201,o),
(527,221,c),
(553,298,o),
(591,428,o),
(611,514,c)
);
},
{
closed = 1;
nodes = (
(813,329,l),
(501,329,l),
(495,301,l),
(813,301,l)
);
},
{
closed = 1;
nodes = (
(748,329,l),
(759,329,l),
(743,171,o),
(717,77,o),
(687,55,cs),
(677,48,o),
(667,46,o),
(650,46,cs),
(626,46,o),
(547,51,o),
(495,55,c),
(495,44,l),
(545,34,o),
(585,17,o),
(605,-4,cs),
(624,-23,o),
(629,-56,o),
(628,-93,c),
(698,-93,o),
(740,-82,o),
(778,-57,cs),
(839,-16,o),
(874,93,o),
(894,277,c),
(916,280,o),
(929,286,o),
(936,295,c),
(818,395,l)
);
}
);
vertWidth = 1000;
width = 1000;
}
);
note = cid22980;
unicode = 27745;
}
{
glyphname = uni752D;
layers = (
{
layerId = m01;
shapes = (
{
closed = 1;
nodes = (
(596,780,l),
(544,780,l),
(438,685,o),
(246,585,o),
(47,521,c),
(56,503,l),
(269,558,o),
(478,660,o),
(596,766,c)
);
},
{
closed = 1;
nodes = (
(500,716,l),
(475,684,l),
(475,497,l),
(483,497,ls),
(499,497,o),
(518,509,o),
(519,513,c),
(519,680,l),
(535,683,o),
(546,689,o),
(549,698,c)
);
},
{
closed = 1;
nodes = (
(812,782,l),
(76,782,l),
(85,752,l),
(902,752,ls),
(916,752,o),
(926,757,o),
(928,768,c),
(899,796,o),
(852,832,o),
(852,832,c)
);
},
{
closed = 1;
nodes = (
(576,662,l),
(727,629,o),
(853,569,o),
(908,525,c),
(970,509,o),
(975,636,o),
(580,680,c)
);
},
{
closed = 1;
nodes = (
(201,448,l),
(815,448,l),
(815,478,l),
(213,478,l),
(157,505,l),
(157,-77,l),
(163,-77,ls),
(185,-77,o),
(201,-64,o),
(201,-59,cs)
);
},
{
closed = 1;
nodes = (
(782,478,l),
(793,478,l),
(793,11,ls),
(793,-5,o),
(788,-10,o),
(769,-10,cs),
(749,-10,o),
(651,-2,o),
(651,-2,c),
(651,-19,l),
(693,-24,o),
(718,-30,o),
(733,-38,cs),
(746,-45,o),
(751,-58,o),
(754,-71,c),
(829,-63,o),
(837,-36,o),
(837,5,cs),
(837,435,l),
(859,439,o),
(877,448,o),
(885,457,c),
(810,513,l)
);
},
{
closed = 1;
nodes = (
(519,463,l),
(475,463,l),
(475,-68,l),
(481,-68,ls),
(503,-68,o),
(519,-55,o),
(519,-51,cs)
);
},
{
closed = 1;
nodes = (
(815,315,l),
(179,315,l),
(179,285,l),
(815,285,l)
);
},
{
closed = 1;
nodes = (
(815,146,l),
(179,146,l),
(179,116,l),
(815,116,l)
);
}
);
vertWidth = 1000;
width = 1000;
},
{
layerId = "435FFEB5-1267-4A4D-8575-60B204161920";
shapes = (
{
closed = 1;
nodes = (
(619,771,l),
(435,771,l),
(345,665,o),
(203,574,o),
(37,515,c),
(42,504,l),
(304,547,o),
(511,637,o),
(619,755,c)
);
},
{
closed = 1;
nodes = (
(476,720,l),
(425,643,l),
(425,466,l),
(450,466,ls),
(505,466,o),
(556,494,o),
(558,505,c),
(558,660,l),
(575,663,o),
(585,670,o),
(589,678,c)
);
},
{
closed = 1;
nodes = (
(765,772,l),
(61,772,l),
(69,744,l),
(938,744,ls),
(952,744,o),
(964,749,o),
(966,760,c),
(917,801,o),
(836,861,o),
(836,861,c)
);
},
{
closed = 1;
nodes = (
(604,672,l),
(715,620,o),
(810,546,o),
(849,505,c),
(986,457,o),
(1055,733,o),
(606,682,c)
);
},
{
closed = 1;
nodes = (
(288,422,l),
(750,422,l),
(750,450,l),
(302,450,l),
(146,507,l),
(146,-83,l),
(172,-83,ls),
(245,-83,o),
(288,-52,o),
(288,-42,cs)
);
},
{
closed = 1;
nodes = (
(698,450,l),
(710,450,l),
(710,70,ls),
(710,59,o),
(707,52,o),
(692,52,cs),
(672,52,o),
(590,57,o),
(590,57,c),
(590,45,l),
(637,37,o),
(653,22,o),
(666,6,cs),
(680,-11,o),
(683,-40,o),
(686,-78,c),
(834,-67,o),
(855,-24,o),
(855,58,cs),
(855,390,l),
(882,396,o),
(898,408,o),
(907,418,c),
(765,528,l)
);
},
{
closed = 1;
nodes = (
(563,438,l),
(423,438,l),
(423,-68,l),
(449,-68,ls),
(521,-68,o),
(562,-44,o),
(563,-38,c)
);
},
{
closed = 1;
nodes = (
(750,312,l),
(248,312,l),
(248,284,l),
(750,284,l)
);
},
{
closed = 1;
nodes = (
(750,165,l),
(248,165,l),
(248,137,l),
(750,137,l)
);
}
);
vertWidth = 1000;
width = 1000;
}
);
note = cid26950;
unicode = 29997;
}
{
glyphname = uni7CB5;
layers = (
{
layerId = m01;
shapes = (
{
closed = 1;
nodes = (
(520,664,l),
(476,658,l),
(476,361,l),
(483,361,ls),
(504,361,o),
(520,372,o),
(520,377,cs)
);
},
{
closed = 1;
nodes = (
(651,709,l),
(563,683,o),
(421,660,o),
(283,649,c),
(287,629,l),
(439,633,o),
(583,647,o),
(660,665,c),
(679,657,o),
(694,658,o),
(701,666,c)
);
},
{
closed = 1;
nodes = (
(624,650,l),
(614,623,o),
(587,573,o),
(566,540,c),
(578,533,l),
(606,556,o),
(636,583,o),
(653,602,c),
(671,597,o),
(685,607,o),
(687,614,c)
);
},
{
closed = 1;
nodes = (
(333,617,l),
(361,595,o),
(384,565,o),
(391,538,c),
(432,510,o),
(463,591,o),
(344,626,c)
);
},
{
closed = 1;
nodes = (
(499,475,l),
(565,452,o),
(656,402,o),
(693,364,c),
(748,347,o),
(744,453,o),
(507,489,c)
);
},
{
closed = 1;
nodes = (
(498,526,l),
(453,526,l),
(409,466,o),
(340,413,o),
(263,378,c),
(274,360,l),
(366,390,o),
(446,444,o),
(498,510,c)
);
},
{
closed = 1;
nodes = (
(652,527,l),
(258,527,l),
(266,497,l),
(719,497,ls),
(732,497,o),
(741,502,o),
(744,513,c),
(720,536,o),
(684,562,o),
(684,562,c)
);
},
{
closed = 1;
nodes = (
(474,840,l),
(466,811,o),
(452,763,o),
(443,738,c),
(472,738,l),
(487,758,o),
(505,782,o),
(518,801,c),
(539,801,o),
(551,809,o),
(555,822,c)
);
},
{
closed = 1;
nodes = (
(759,749,l),
(769,749,l),
(769,276,l),
(775,276,ls),
(790,276,o),
(812,289,o),
(813,296,c),
(813,710,l),
(833,714,o),
(850,721,o),
(857,729,c),
(789,782,l)
);
},
{
closed = 1;
nodes = (
(234,719,l),
(799,719,l),
(799,749,l),
(239,749,l),
(190,775,l),
(190,269,l),
(198,269,ls),
(217,269,o),
(234,280,o),
(234,286,cs)
);
},
{
closed = 1;
nodes = (
(791,341,l),
(210,341,l),
(210,311,l),
(791,311,l)
);
},
{
closed = 1;
nodes = (
(766,142,l),
(274,142,l),
(274,112,l),
(766,112,l)
);
},
{
closed = 1;
nodes = (
(734,142,l),
(744,142,l),
(733,63,o),
(711,8,o),
(691,-6,cs),
(682,-12,o),
(672,-14,o),
(654,-14,cs),
(633,-14,o),
(554,-7,o),
(512,-3,c),
(511,-22,l),
(549,-26,o),
(590,-33,o),
(603,-41,cs),
(617,-48,o),
(621,-62,o),
(621,-75,c),
(654,-75,o),
(690,-66,o),
(711,-52,cs),
(745,-30,o),
(772,30,o),
(783,109,c),
(804,111,o),
(816,115,o),
(823,122,c),
(762,173,l)
);
},
{
closed = 1;
nodes = (
(839,250,l),
(49,250,l),
(58,220,l),
(929,220,ls),
(943,220,o),
(952,225,o),
(954,236,c),
(926,264,o),
(880,300,o),
(880,300,c)
);
},
{
closed = 1;
nodes = (
(295,250,l),
(281,203,o),
(240,103,o),
(210,59,c),
(228,51,o),
(247,49,o),
(257,55,c),
(280,100,o),
(324,197,o),
(342,250,c)
);
}
);
vertWidth = 1000;
width = 1000;
},
{
layerId = "435FFEB5-1267-4A4D-8575-60B204161920";
shapes = (
{
closed = 1;
nodes = (
(549,680,l),
(444,669,l),
(444,350,l),
(463,350,ls),
(516,350,o),
(549,373,o),
(549,379,cs)
);
},
{
closed = 1;
nodes = (
(614,735,l),
(543,710,o),
(409,675,o),
(305,658,c),
(309,641,l),
(419,639,o),
(552,646,o),
(638,655,c),
(662,644,o),
(681,643,o),
(692,651,c)
);
},
{
closed = 1;
nodes = (
(595,655,l),
(588,630,o),
(569,581,o),
(554,551,c),
(564,544,l),
(599,558,o),
(639,574,o),
(662,587,c),
(681,582,o),
(693,591,o),
(697,599,c)
);
},
{
closed = 1;
nodes = (
(313,630,l),
(330,612,o),
(348,580,o),
(350,551,c),
(421,502,o),
(494,630,o),
(323,636,c)
);
},
{
closed = 1;
nodes = (
(534,487,l),
(566,464,o),
(606,419,o),
(620,381,c),
(715,338,o),
(764,513,o),
(542,494,c)
);
},
{
closed = 1;
nodes = (
(511,536,l),
(399,536,l),
(373,468,o),
(327,407,o),
(273,366,c),
(282,352,l),
(385,391,o),
(467,451,o),
(511,520,c)
);
},
{
closed = 1;
nodes = (
(602,536,l),
(277,536,l),
(285,508,l),
(695,508,ls),
(708,508,o),
(718,513,o),
(720,524,c),
(688,547,o),
(643,572,o),
(643,572,c)
);
},
{
closed = 1;
nodes = (
(432,859,l),
(430,826,o),
(425,775,o),
(422,747,c),
(469,747,l),
(499,762,o),
(547,787,o),
(576,803,c),
(598,806,o),
(612,814,o),
(616,831,c)
);
},
{
closed = 1;
nodes = (
(711,757,l),
(721,757,l),
(721,277,l),
(744,277,ls),
(791,277,o),
(855,307,o),
(856,317,c),
(856,707,l),
(877,711,o),
(890,720,o),
(896,729,c),
(772,824,l)
);
},
{
closed = 1;
nodes = (
(272,729,l),
(791,729,l),
(791,757,l),
(282,757,l),
(141,812,l),
(141,258,l),
(161,258,ls),
(216,258,o),
(272,288,o),
(272,302,cs)
);
},
{
closed = 1;
nodes = (
(782,340,l),
(207,340,l),
(207,312,l),
(782,312,l)
);
},
{
closed = 1;
nodes = (
(727,139,l),
(304,139,l),
(304,111,l),
(727,111,l)
);
},
{
closed = 1;
nodes = (
(663,139,l),
(673,139,l),
(667,78,o),
(658,42,o),
(646,34,cs),
(639,30,o),
(632,29,o),
(616,29,cs),
(597,29,o),
(512,33,o),
(459,38,c),
(459,27,l),
(509,18,o),
(553,3,o),
(574,-16,cs),
(595,-35,o),
(599,-59,o),
(599,-93,c),
(667,-93,o),
(707,-87,o),
(737,-72,cs),
(782,-48,o),
(800,-2,o),
(811,88,c),
(830,91,o),
(841,97,o),
(848,105,c),
(731,199,l)
);
},
{
closed = 1;
nodes = (
(786,241,l),
(33,241,l),
(41,213,l),
(945,213,ls),
(959,213,o),
(970,218,o),
(973,229,c),
(927,267,o),
(852,321,o),
(852,321,c)
);
},
{
closed = 1;
nodes = (
(265,241,l),
(255,195,o),
(220,99,o),
(195,52,c),
(252,31,o),
(309,30,o),
(342,47,c),
(360,94,o),
(397,192,o),
(410,241,c)
);
}
);
vertWidth = 1000;
width = 1000;
}
);
note = cid30494;
unicode = 31925;
}
{
glyphname = uni7DD4;
layers = (
{
layerId = m01;
shapes = (
{
closed = 1;
nodes = (
(208,387,l),
(208,-73,l),
(214,-73,ls),
(236,-73,o),
(252,-61,o),
(252,-56,cs),
(252,390,l)
);
},
{
closed = 1;
nodes = (
(202,834,l),
(174,759,o),
(139,673,o),
(112,619,c),
(128,610,l),
(166,656,o),
(210,726,o),
(245,785,c),
(265,784,o),
(277,792,o),
(282,803,c)
);
},
{
closed = 1;
nodes = (
(308,721,l),
(261,618,o),
(182,475,o),
(120,378,c),
(144,378,l),
(216,466,o),
(298,587,o),
(345,671,c),
(365,667,o),
(378,674,o),
(384,685,c)
);
},
{
closed = 1;
nodes = (
(69,335,l),
(78,337,o),
(87,342,o),
(93,355,c),
(211,369,o),
(300,382,o),
(363,392,c),
(362,410,l),
(231,403,o),
(102,397,o),
(43,397,c)
);
},
{
closed = 1;
nodes = (
(41,664,l),
(81,634,o),
(127,580,o),
(138,537,c),
(189,503,o),
(222,615,o),
(52,673,c)
);
},
{
closed = 1;
nodes = (
(276,493,l),
(305,450,o),
(339,381,o),
(343,329,c),
(389,288,o),
(436,395,o),
(290,499,c)
);
},
{
closed = 1;
nodes = (
(293,267,l),
(314,221,o),
(337,146,o),
(336,91,c),
(380,43,o),
(434,153,o),
(307,272,c)
);
},
{
closed = 1;
nodes = (
(105,272,l),
(92,181,o),
(68,85,o),
(41,18,c),
(58,10,l),
(95,68,o),
(125,155,o),
(146,234,c),
(166,234,o),
(175,243,o),
(179,255,c)
);
},
{
closed = 1;
nodes = (
(557,197,l),
(557,168,l),
(763,168,l),
(763,197,l)
);
},
{
closed = 1;
nodes = (
(731,408,l),
(731,109,l),
(737,109,ls),
(752,109,o),
(774,121,o),
(775,127,c),
(775,368,l),
(795,372,o),
(812,380,o),
(819,388,c),
(751,440,l),
(721,408,l)
);
},
{
closed = 1;
nodes = (
(634,829,l),
(634,534,l),
(678,534,l),
(678,793,l),
(702,796,o),
(712,806,o),
(714,820,c)
);
},
{
closed = 1;
nodes = (
(738,755,l),
(803,709,o),
(892,627,o),
(921,568,c),
(986,534,o),
(1007,670,o),
(749,764,c)
);
},
{
closed = 1;
nodes = (
(863,548,l),
(863,9,ls),
(863,-8,o),
(858,-14,o),
(838,-14,cs),
(816,-14,o),
(711,-5,o),
(711,-5,c),
(711,-22,l),
(756,-27,o),
(783,-32,o),
(798,-40,cs),
(812,-47,o),
(817,-59,o),
(820,-72,c),
(898,-64,o),
(907,-36,o),
(907,3,cs),
(907,508,l),
(927,512,o),
(944,520,o),
(951,528,c),
(879,581,l),
(853,548,l)
);
},
{
closed = 1;
nodes = (
(502,768,l),
(464,675,o),
(400,576,o),
(336,511,c),
(348,499,l),
(427,557,o),
(502,643,o),
(543,722,c),
(566,718,o),
(574,723,o),
(580,733,c)
);
},
{
closed = 1;
nodes = (
(416,553,l),
(416,-71,l),
(424,-71,ls),
(445,-71,o),
(460,-59,o),
(460,-53,cs),
(460,519,l),
(891,519,l),
(891,548,l),
(465,548,l),
(416,573,l)
);
},
{
closed = 1;
nodes = (
(543,408,l),
(543,86,l),
(550,86,ls),
(569,86,o),
(586,96,o),
(586,101,cs),
(586,379,l),
(770,379,l),
(770,408,l),
(591,408,l),
(543,432,l)
);
}
);
vertWidth = 1000;
width = 1000;
},
{
layerId = "435FFEB5-1267-4A4D-8575-60B204161920";
shapes = (
{
closed = 1;
nodes = (
(158,389,l),
(158,-96,l),
(181,-96,ls),
(244,-96,o),
(283,-69,o),
(283,-62,cs),
(283,398,l)
);
},
{
closed = 1;
nodes = (
(140,856,l),
(129,778,o),
(113,688,o),
(99,633,c),
(112,626,l),
(165,665,o),
(222,723,o),
(269,783,c),
(292,783,o),
(305,791,o),
(309,804,c)
);
},
{
closed = 1;
nodes = (
(243,729,l),
(211,626,o),
(152,475,o),
(100,372,c),
(113,372,l),
(206,456,o),
(304,570,o),
(360,647,c),
(383,644,o),
(396,651,o),
(401,662,c)
);
},
{
closed = 1;
nodes = (
(62,290,l),
(74,292,o),
(85,300,o),
(91,313,c),
(208,360,o),
(289,397,o),
(343,423,c),
(342,436,l),
(208,426,o),
(75,418,o),
(18,417,c)
);
},
{
closed = 1;
nodes = (
(20,685,l),
(44,648,o),
(69,592,o),
(71,542,c),
(165,465,o),
(272,645,o),
(29,690,c)
);
},
{
closed = 1;
nodes = (
(268,516,l),
(288,468,o),
(308,402,o),
(306,343,c),
(395,256,o),
(513,432,o),
(278,520,c)
);
},
{
closed = 1;
nodes = (
(274,288,l),
(292,237,o),
(309,167,o),
(307,106,c),
(392,18,o),
(510,190,o),
(285,292,c)
);
},
{
closed = 1;
nodes = (
(58,268,l),
(57,170,o),
(44,64,o),
(21,-13,c),
(36,-21,l),
(95,34,o),
(138,118,o),
(166,216,c),
(188,218,o),
(199,227,o),
(202,241,c)
);
},
{
closed = 1;
nodes = (
(595,210,l),
(595,182,l),
(736,182,l),
(736,210,l)
);
},
{
closed = 1;
nodes = (
(684,407,l),
(684,112,l),
(701,112,ls),
(734,112,o),
(786,131,o),
(787,137,c),
(787,361,l),
(807,365,o),
(821,374,o),
(828,382,c),
(723,461,l),
(674,407,l)
);
},
{
closed = 1;
nodes = (
(598,855,l),
(598,527,l),
(737,527,l),
(737,813,l),
(765,817,o),
(772,827,o),
(774,841,c)
);
},
{
closed = 1;
nodes = (
(745,780,l),
(798,723,o),
(844,646,o),
(866,580,c),
(1001,483,o),
(1080,751,o),
(752,787,c)
);
},
{
closed = 1;
nodes = (
(815,535,l),
(815,63,ls),
(815,51,o),
(811,44,o),
(796,44,cs),
(776,44,o),
(683,50,o),
(683,50,c),
(683,37,l),
(731,28,o),
(750,14,o),
(764,-5,cs),
(779,-23,o),
(783,-54,o),
(786,-94,c),
(926,-82,o),
(945,-35,o),
(945,49,cs),
(945,486,l),
(966,490,o),
(979,499,o),
(985,507,c),
(862,601,l),
(805,535,l)
);
},
{
closed = 1;
nodes = (
(457,799,l),
(439,693,o),
(393,579,o),
(338,504,c),
(347,494,l),
(439,544,o),
(531,634,o),
(585,728,c),
(609,730,o),
(617,737,o),
(620,749,c)
);
},
{
closed = 1;
nodes = (
(395,535,l),
(395,-95,l),
(415,-95,ls),
(470,-95,o),
(521,-65,o),
(521,-51,cs),
(521,508,l),
(898,508,l),
(898,535,l),
(529,535,l),
(395,589,l)
);
},
{
closed = 1;
nodes = (
(549,407,l),
(549,90,l),
(563,90,ls),
(603,90,o),
(644,112,o),
(644,121,cs),
(644,380,l),
(736,380,l),
(736,407,l),
(648,407,l),
(549,448,l)
);
}
);
vertWidth = 1000;
width = 1000;
}
);
note = cid31103;
unicode = 32212;
}
{
glyphname = uni7E9F;
layers = (
{
layerId = m01;
shapes = (
{
closed = 1;
nodes = (
(275,818,l),
(244,709,o),
(197,582,o),
(153,493,c),
(170,484,l),
(223,568,o),
(279,677,o),
(314,768,c),
(334,765,o),
(349,771,o),
(353,784,c)
);
},
{
closed = 1;
nodes = (
(100,433,l),
(112,435,o),
(122,444,o),
(125,455,c),
(225,472,o),
(325,492,o),
(383,505,c),
(381,523,l),
(264,510,o),
(147,501,o),
(77,498,c)
);
},
{
closed = 1;
nodes = (
(419,646,l),
(346,495,o),
(250,339,o),
(171,241,c),
(187,232,l),
(275,324,o),
(376,464,o),
(451,595,c),
(469,590,o),
(484,595,o),
(490,609,c)
);
},
{
closed = 1;
nodes = (
(103,178,l),
(115,182,o),
(125,192,o),
(128,204,c),
(240,230,o),
(365,261,o),
(452,286,c),
(449,304,l),
(306,277,o),
(161,254,o),
(74,245,c)
);
},
{
closed = 1;
nodes = (
(122,-32,l),
(131,-28,o),
(139,-19,o),
(142,-7,c),
(286,44,o),
(396,92,o),
(479,129,c),
(475,145,l),
(317,97,o),
(157,52,o),
(84,37,c)
);
}
);
vertWidth = 1000;
width = 1000;
},
{
layerId = "435FFEB5-1267-4A4D-8575-60B204161920";
shapes = (
{
closed = 1;
nodes = (
(234,849,l),
(205,745,o),
(156,621,o),
(109,527,c),
(119,519,l),
(208,591,o),
(301,683,o),
(361,758,c),
(382,755,o),
(399,762,o),
(404,775,c)
);
},
{
closed = 1;
nodes = (
(94,398,l),
(112,402,o),
(125,413,o),
(127,426,c),
(216,459,o),
(330,510,o),
(423,559,c),
(421,572,l),
(260,558,o),
(115,549,o),
(44,550,c)
);
},
{
closed = 1;
nodes = (
(371,667,l),
(297,527,o),
(193,370,o),
(102,261,c),
(113,254,l),
(231,332,o),
(370,448,o),
(474,556,c),
(493,552,o),
(511,557,o),
(521,569,c)
);
},
{
closed = 1;
nodes = (
(98,146,l),
(116,150,o),
(129,161,o),
(132,175,c),
(258,219,o),
(392,274,o),
(481,316,c),
(480,329,l),
(286,312,o),
(119,301,o),
(48,301,c)
);
},
{
closed = 1;
nodes = (
(115,-71,l),
(128,-68,o),
(140,-57,o),
(145,-44,c),
(305,38,o),
(409,109,o),
(479,162,c),
(478,171,l),
(318,135,o),
(137,108,o),
(58,101,c)
);
}
);
vertWidth = 1000;
width = 1000;
}
);
note = cid31546;
unicode = 32415;
}
{
glyphname = uni8A68;
layers = (
{
layerId = m01;
shapes = (
{
closed = 1;
nodes = (
(528,400,l),
(572,183,o),
(710,14,o),
(912,-71,c),
(921,-49,o),
(939,-36,o),
(960,-36,c),
(963,-26,l),
(744,47,o),
(595,204,o),
(547,410,c)
);
},
{
closed = 1;
nodes = (
(722,594,l),
(789,549,o),
(880,466,o),
(908,406,c),
(973,371,o),
(993,508,o),
(733,604,c)
);
},
{
closed = 1;
nodes = (
(544,612,l),
(514,546,o),
(451,455,o),
(385,398,c),
(397,384,l),
(475,434,o),
(545,510,o),
(581,568,c),
(604,564,o),
(612,568,o),
(618,578,c)
);
},
{
closed = 1;
nodes = (
(771,450,l),
(723,226,o),
(587,34,o),
(332,-57,c),
(339,-73,l),
(617,9,o),
(758,200,o),
(817,411,c),
(844,411,o),
(853,417,o),
(857,428,c)
);
},
{
closed = 1;
nodes = (
(635,831,l),
(635,656,l),
(679,656,l),
(679,795,l),
(703,798,o),
(714,807,o),
(716,821,c)
);
},
{
closed = 1;
nodes = (
(834,671,l),
(407,671,l),
(415,641,l),
(918,641,ls),
(932,641,o),
(941,646,o),
(944,657,c),
(916,684,o),
(872,719,o),
(872,719,c)
);
},
{
closed = 1;
nodes = (
(341,35,l),
(104,35,l),
(104,5,l),
(341,5,l)
);
},
{
closed = 1;
nodes = (
(300,268,l),
(310,268,l),
(310,-34,l),
(316,-34,ls),
(331,-34,o),
(353,-23,o),
(354,-17,c),
(354,229,l),
(374,233,o),
(391,240,o),
(398,248,c),
(330,301,l)
);
},
{
closed = 1;
nodes = (
(127,238,l),
(341,238,l),
(341,268,l),
(132,268,l),
(83,293,l),
(83,-68,l),
(90,-68,ls),
(109,-68,o),
(127,-57,o),
(127,-52,cs)
);
},
{
closed = 1;
nodes = (
(307,646,l),
(42,646,l),
(50,616,l),
(394,616,ls),
(407,616,o),
(416,621,o),
(418,632,c),
(391,659,o),
(345,694,o),
(345,694,c)
);
},
{
closed = 1;
nodes = (
(268,394,l),
(77,394,l),
(85,364,l),
(347,364,ls),
(361,364,o),
(370,369,o),
(372,380,c),
(346,406,o),
(305,438,o),
(305,438,c)
);
},
{
closed = 1;
nodes = (
(272,520,l),
(77,520,l),
(85,490,l),
(348,490,ls),
(362,490,o),
(371,495,o),
(374,506,c),
(348,531,o),
(308,563,o),
(308,563,c)
);
},
{
closed = 1;
nodes = (
(272,772,l),
(81,772,l),
(89,742,l),
(358,742,ls),
(371,742,o),
(381,747,o),
(382,758,c),
(355,785,o),
(311,820,o),
(311,820,c)
);
},
{
closed = 1;
nodes = (
(575,446,l),
(544,459,l),
(530,419,l),
(504,390,o),
(459,346,o),
(432,324,c),
(475,283,l),
(480,290,o),
(483,297,o),
(476,306,c),
(496,333,o),
(529,382,o),
(547,410,c)
);
}
);
vertWidth = 1000;
width = 1000;
},
{
layerId = "435FFEB5-1267-4A4D-8575-60B204161920";
shapes = (
{
closed = 1;
nodes = (
(563,423,l),
(588,171,o),
(679,13,o),
(865,-96,c),
(887,-30,o),
(931,12,o),
(989,21,c),
(991,33,l),
(760,106,o),
(634,227,o),
(576,429,c)
);
},
{
closed = 1;
nodes = (
(714,623,l),
(785,560,o),
(842,480,o),
(862,416,c),
(996,345,o),
(1079,580,o),
(722,629,c)
);
},
{
closed = 1;
nodes = (
(512,649,l),
(487,561,o),
(443,464,o),
(397,397,c),
(406,387,l),
(489,431,o),
(574,499,o),
(625,563,c),
(650,561,o),
(659,568,o),
(663,578,c)
);
},
{
closed = 1;
nodes = (
(716,471,l),
(685,252,o),
(594,38,o),
(358,-85,c),
(365,-96,l),
(664,-12,o),
(788,193,o),
(849,406,c),
(875,407,o),
(883,415,o),
(887,427,c)
);
},
{
closed = 1;
nodes = (
(607,849,l),
(607,671,l),
(747,671,l),
(747,808,l),
(775,812,o),
(782,822,o),
(783,836,c)
);
},
{
closed = 1;
nodes = (
(798,696,l),
(412,696,l),
(420,668,l),
(955,668,ls),
(970,668,o),
(980,673,o),
(983,684,c),
(939,724,o),
(864,782,o),
(864,782,c)
);
},
{
closed = 1;
nodes = (
(321,28,l),
(123,28,l),
(123,0,l),
(321,0,l)
);
},
{
closed = 1;
nodes = (
(257,261,l),
(266,261,l),
(266,-59,l),
(288,-59,ls),
(331,-59,o),
(392,-33,o),
(392,-24,cs),
(392,216,l),
(411,219,o),
(422,227,o),
(428,234,c),
(313,321,l)
);
},
{
closed = 1;
nodes = (
(185,233,l),
(322,233,l),
(322,261,l),
(189,261,l),
(60,312,l),
(60,-96,l),
(78,-96,ls),
(131,-96,o),
(185,-68,o),
(185,-57,cs)
);
},
{
closed = 1;
nodes = (
(278,651,l),
(23,651,l),
(31,623,l),
(410,623,ls),
(424,623,o),
(434,628,o),
(437,639,c),
(398,675,o),
(334,726,o),
(334,726,c)
);
},
{
closed = 1;
nodes = (
(246,389,l),
(61,389,l),
(69,361,l),
(374,361,ls),
(388,361,o),
(398,366,o),
(401,377,c),
(364,412,o),
(301,463,o),
(301,463,c)
);
},
{
closed = 1;
nodes = (
(246,520,l),
(61,520,l),
(69,492,l),
(374,492,ls),
(388,492,o),
(398,497,o),
(401,508,c),
(364,543,o),
(301,594,o),
(301,594,c)
);
},
{
closed = 1;
nodes = (
(241,778,l),
(66,778,l),
(74,750,l),
(374,750,ls),
(388,750,o),
(399,755,o),
(401,766,c),
(363,802,o),
(298,854,o),
(298,854,c)
);
},
{
closed = 1;
nodes = (
(607,467,l),
(565,482,l),
(556,434,l),
(525,406,o),
(477,369,o),
(446,347,c),
(516,266,l),
(522,272,o),
(525,282,o),
(519,293,c),
(535,326,o),
(560,386,o),
(576,429,c)
);
}
);
vertWidth = 1000;
width = 1000;
}
);
note = cid37711;
unicode = 35432;
}
{
glyphname = uni8AA4;
layers = (
{
layerId = m01;
shapes = (
{
closed = 1;
nodes = (
(81,767,l),
(89,738,l),
(341,738,ls),
(355,738,o),
(364,743,o),
(367,754,c),
(339,780,o),
(296,815,o),
(296,815,c),
(258,767,l)
);
},
{
closed = 1;
nodes = (
(82,516,l),
(90,487,l),
(338,487,ls),
(352,487,o),
(361,492,o),
(363,502,c),
(338,527,o),
(299,559,o),
(299,559,c),
(263,516,l)
);
},
{
closed = 1;
nodes = (
(82,389,l),
(90,360,l),
(338,360,ls),
(352,360,o),
(361,365,o),
(363,375,c),
(338,400,o),
(299,432,o),
(299,432,c),
(263,389,l)
);
},
{
closed = 1;
nodes = (
(41,642,l),
(49,613,l),
(382,613,ls),
(396,613,o),
(405,618,o),
(408,629,c),
(380,655,o),
(336,691,o),
(336,691,c),
(297,642,l)
);
},
{
closed = 1;
nodes = (
(87,263,l),
(87,-73,l),
(94,-73,ls),
(112,-73,o),
(131,-62,o),
(131,-57,cs),
(131,234,l),
(313,234,l),
(313,263,l),
(136,263,l),
(87,288,l),
(87,288,l)
);
},
{
closed = 1;
nodes = (
(292,263,l),
(292,-35,l),
(298,-35,ls),
(312,-35,o),
(335,-24,o),
(336,-18,c),
(336,224,l),
(356,228,o),
(372,236,o),
(379,243,c),
(311,296,l),
(282,263,l)
);
},
{
closed = 1;
nodes = (
(109,44,l),
(109,15,l),
(314,15,l),
(314,44,l)
);
},
{
closed = 1;
nodes = (
(571,789,l),
(571,485,l),
(578,485,ls),
(597,485,o),
(616,496,o),
(616,500,cs),
(616,760,l),
(876,760,l),
(876,789,l),
(621,789,l),
(571,814,l),
(571,814,l)
);
},
{
closed = 1;
nodes = (
(849,789,l),
(849,491,l),
(855,491,ls),
(870,491,o),
(893,502,o),
(894,508,c),
(894,750,l),
(913,754,o),
(930,761,o),
(937,769,c),
(869,822,l),
(839,789,l)
);
},
{
closed = 1;
nodes = (
(589,569,l),
(589,540,l),
(864,540,l),
(864,569,l)
);
},
{
closed = 1;
nodes = (
(456,435,l),
(456,406,l),
(821,406,l),
(821,435,l)
);
},
{
closed = 1;
nodes = (
(431,728,l),
(431,323,l),
(439,323,ls),
(456,323,o),
(475,334,o),
(475,342,cs),
(475,692,l),
(500,696,o),
(509,704,o),
(511,718,c)
);
},
{
closed = 1;
nodes = (
(800,435,l),
(800,214,l),
(844,214,l),
(844,396,l),
(863,400,o),
(881,408,o),
(888,416,c),
(821,467,l),
(790,435,l)
);
},
{
closed = 1;
nodes = (
(376,229,l),
(384,199,l),
(943,199,ls),
(957,199,o),
(965,204,o),
(967,215,c),
(945,241,o),
(905,279,o),
(905,279,c),
(872,229,l)
);
},
{
closed = 1;
nodes = (
(653,219,l),
(702,72,o),
(791,-25,o),
(923,-73,c),
(928,-51,o),
(944,-38,o),
(963,-35,c),
(964,-25,l),
(826,11,o),
(721,102,o),
(671,227,c)
);
},
{
closed = 1;
nodes = (
(625,420,l),
(623,195,o),
(624,56,o),
(347,-52,c),
(361,-70,l),
(659,36,o),
(664,178,o),
(669,420,c)
);
}
);
vertWidth = 1000;
width = 1000;
},
{
layerId = "435FFEB5-1267-4A4D-8575-60B204161920";
shapes = (
{
closed = 1;
nodes = (
(65,778,l),
(73,750,l),
(364,750,ls),
(378,750,o),
(388,755,o),
(391,766,c),
(352,802,o),
(288,854,o),
(288,854,c),
(231,778,l)
);
},
{
closed = 1;
nodes = (
(64,520,l),
(72,492,l),
(368,492,ls),
(382,492,o),
(392,497,o),
(395,508,c),
(357,543,o),
(295,594,o),
(295,594,c),
(239,520,l)
);
},
{
closed = 1;
nodes = (
(64,389,l),
(72,361,l),
(368,361,ls),
(382,361,o),
(392,366,o),
(395,377,c),
(357,412,o),
(295,463,o),
(295,463,c),
(239,389,l)
);
},
{
closed = 1;
nodes = (
(16,651,l),
(24,623,l),
(417,623,ls),
(431,623,o),
(441,628,o),
(444,639,c),
(405,675,o),
(341,726,o),
(341,726,c),
(285,651,l)
);
},
{
closed = 1;
nodes = (
(63,250,l),
(63,-95,l),
(81,-95,ls),
(134,-95,o),
(188,-67,o),
(188,-56,cs),
(188,222,l),
(325,222,l),
(325,250,l),
(192,250,l),
(63,301,l),
(63,301,l)
);
},
{
closed = 1;
nodes = (
(259,250,l),
(259,-57,l),
(281,-57,ls),
(324,-57,o),
(385,-31,o),
(385,-22,cs),
(385,205,l),
(404,208,o),
(415,216,o),
(421,223,c),
(306,310,l),
(250,250,l)
);
},
{
closed = 1;
nodes = (
(127,34,l),
(127,6,l),
(325,6,l),
(325,34,l)
);
},
{
closed = 1;
nodes = (
(584,780,l),
(584,447,l),
(602,447,ls),
(654,447,o),
(709,475,o),
(709,486,cs),
(709,752,l),
(854,752,l),
(854,780,l),
(713,780,l),
(584,830,l),
(584,830,l)
);
},
{
closed = 1;
nodes = (
(798,780,l),
(798,468,l),
(821,468,ls),
(865,468,o),
(928,495,o),
(929,503,c),
(929,730,l),
(950,735,o),
(963,744,o),
(969,752,c),
(847,844,l),
(788,780,l)
);
},
{
closed = 1;
nodes = (
(656,553,l),
(656,525,l),
(859,525,l),
(859,553,l)
);
},
{
closed = 1;
nodes = (
(490,411,l),
(490,383,l),
(793,383,l),
(793,411,l)
);
},
{
closed = 1;
nodes = (
(418,747,l),
(418,285,l),
(439,285,ls),
(486,285,o),
(543,312,o),
(543,323,cs),
(543,711,l),
(564,715,o),
(570,723,o),
(571,734,c)
);
},
{
closed = 1;
nodes = (
(747,411,l),
(747,200,l),
(877,200,l),
(877,367,l),
(895,371,o),
(907,378,o),
(912,386,c),
(796,472,l),
(737,411,l)
);
},
{
closed = 1;
nodes = (
(400,215,l),
(408,187,l),
(975,187,ls),
(988,187,o),
(997,192,o),
(1000,203,c),
(975,239,o),
(924,295,o),
(924,295,c),
(879,215,l)
);
},
{
closed = 1;
nodes = (
(697,211,l),
(726,55,o),
(777,-38,o),
(887,-99,c),
(901,-26,o),
(937,21,o),
(987,36,c),
(988,47,l),
(868,64,o),
(752,123,o),
(706,215,c)
);
},
{
closed = 1;
nodes = (
(572,397,l),
(572,158,o),
(575,31,o),
(338,-83,c),
(346,-95,l),
(687,-8,o),
(709,118,o),
(709,397,c)
);
}
);
vertWidth = 1000;
width = 1000;
}
);
note = cid62703;
unicode = 35492;
}
{
glyphname = uni8BA0;
layers = (
{
layerId = m01;
shapes = (
{
closed = 1;
nodes = (
(152,820,l),
(214,766,o),
(265,700,o),
(284,649,c),
(339,614,o),
(369,733,o),
(164,829,c)
);
},
{
closed = 1;
nodes = (
(245,500,l),
(245,27,l),
(251,27,ls),
(266,27,o),
(289,39,o),
(289,45,cs),
(289,464,l),
(306,467,o),
(322,475,o),
(328,481,c),
(264,531,l),
(236,500,l)
);
},
{
closed = 1;
nodes = (
(50,500,l),
(59,470,l),
(275,470,l),
(275,500,l)
);
},
{
closed = 1;
nodes = (
(188,-40,l),
(197,-35,o),
(204,-26,o),
(206,-14,c),
(296,22,o),
(400,71,o),
(477,114,c),
(471,131,l),
(357,86,o),
(234,44,o),
(152,22,c)
);
}
);
vertWidth = 1000;
width = 1000;
},
{
layerId = "435FFEB5-1267-4A4D-8575-60B204161920";
shapes = (
{
closed = 1;
nodes = (
(153,845,l),
(201,785,o),
(240,712,o),
(254,656,c),
(392,566,o),
(506,826,o),
(161,850,c)
);
},
{
closed = 1;
nodes = (
(224,498,l),
(224,46,l),
(249,46,ls),
(294,46,o),
(367,66,o),
(368,73,c),
(368,448,l),
(385,450,o),
(400,458,o),
(408,469,c),
(277,567,l),
(213,498,l)
);
},
{
closed = 1;
nodes = (
(42,498,l),
(51,470,l),
(274,470,l),
(274,498,l)
);
},
{
closed = 1;
nodes = (
(229,-67,l),
(244,-61,o),
(254,-49,o),
(255,-36,c),
(367,46,o),
(475,130,o),
(534,184,c),
(532,194,l),
(368,144,o),
(213,101,o),
(129,82,c)
);
}
);
vertWidth = 1000;
width = 1000;
}
);
note = cid38434;
unicode = 35744;
}
{
glyphname = uni92D8;
layers = (
{
layerId = m01;
shapes = (
{
closed = 1;
nodes = (
(577,566,l),
(577,537,l),
(857,537,l),
(857,566,l)
);
},
{
closed = 1;
nodes = (
(441,758,l),
(441,334,l),
(450,334,ls),
(467,334,o),
(486,346,o),
(486,353,cs),
(486,721,l),
(510,725,o),
(520,734,o),
(522,748,c)
);
},
{
closed = 1;
nodes = (
(457,429,l),
(457,399,l),
(835,399,l),
(835,429,l)
);
},
{
closed = 1;
nodes = (
(372,237,l),
(380,208,l),
(948,208,ls),
(961,208,o),
(970,213,o),
(973,224,c),
(951,250,o),
(911,288,o),
(911,288,c),
(877,237,l)
);
},
{
closed = 1;
nodes = (
(824,786,l),
(824,492,l),
(829,492,ls),
(844,492,o),
(867,503,o),
(868,509,c),
(868,747,l),
(888,751,o),
(904,759,o),
(911,766,c),
(843,819,l),
(814,786,l)
);
},
{
closed = 1;
nodes = (
(576,786,l),
(576,477,l),
(582,477,ls),
(605,477,o),
(621,491,o),
(621,495,cs),
(621,786,l),
(632,786,l),
(576,813,l)
);
},
{
closed = 1;
nodes = (
(577,786,l),
(577,757,l),
(857,757,l),
(857,786,l)
);
},
{
closed = 1;
nodes = (
(625,414,l),
(623,209,o),
(611,58,o),
(313,-54,c),
(326,-72,l),
(647,39,o),
(666,192,o),
(669,414,c)
);
},
{
closed = 1;
nodes = (
(646,228,l),
(696,79,o),
(786,-21,o),
(927,-70,c),
(933,-48,o),
(948,-35,o),
(968,-32,c),
(969,-22,l),
(826,13,o),
(716,106,o),
(664,236,c)
);
},
{
closed = 1;
nodes = (
(804,429,l),
(804,213,l),
(848,213,l),
(848,397,l),
(863,399,o),
(872,401,o),
(878,408,c),
(823,458,l),
(795,429,l)
);
},
{
closed = 1;
nodes = (
(267,788,o),
(277,794,o),
(280,805,c),
(202,830,l),
(172,728,o),
(94,574,o),
(19,490,c),
(34,479,l),
(123,559,o),
(200,690,o),
(242,787,c)
);
},
{
closed = 1;
nodes = (
(213,793,l),
(287,732,o),
(342,658,o),
(365,606,c),
(412,571,o),
(475,678,o),
(229,796,c)
);
},
{
closed = 1;
nodes = (
(109,545,l),
(117,515,l),
(353,515,ls),
(367,515,o),
(375,520,o),
(377,531,c),
(352,557,o),
(309,590,o),
(309,590,c),
(273,545,l)
);
},
{
closed = 1;
nodes = (
(49,386,l),
(57,357,l),
(387,357,ls),
(400,357,o),
(410,362,o),
(412,372,c),
(385,399,o),
(342,433,o),
(342,433,c),
(304,386,l)
);
},
{
closed = 1;
nodes = (
(203,545,l),
(203,13,l),
(247,23,l),
(247,545,l)
);
},
{
closed = 1;
nodes = (
(80,-69,l),
(89,-66,o),
(96,-58,o),
(99,-45,c),
(242,6,o),
(351,50,o),
(429,82,c),
(424,98,l),
(263,52,o),
(106,9,o),
(40,-5,c)
);
},
{
closed = 1;
nodes = (
(319,307,l),
(310,240,o),
(296,164,o),
(281,111,c),
(300,105,l),
(324,148,o),
(349,211,o),
(367,263,c),
(386,264,o),
(397,273,o),
(401,284,c)
);
},
{
closed = 1;
nodes = (
(76,294,l),
(96,240,o),
(115,157,o),
(110,95,c),
(152,47,o),
(203,160,o),
(91,298,c)
);
}
);
vertWidth = 1000;
width = 1000;
},
{
layerId = "435FFEB5-1267-4A4D-8575-60B204161920";
shapes = (
{
closed = 1;
nodes = (
(659,566,l),
(659,538,l),
(838,538,l),
(838,566,l)
);
},
{
closed = 1;
nodes = (
(432,763,l),
(432,315,l),
(455,315,ls),
(496,315,o),
(549,336,o),
(549,345,cs),
(549,730,l),
(567,733,o),
(572,741,o),
(573,750,c)
);
},
{
closed = 1;
nodes = (
(506,424,l),
(506,396,l),
(828,396,l),
(828,424,l)
);
},
{
closed = 1;
nodes = (
(376,229,l),
(384,201,l),
(974,201,ls),
(987,201,o),
(997,206,o),
(999,217,c),
(974,253,o),
(923,309,o),
(923,309,c),
(879,229,l)
);
},
{
closed = 1;
nodes = (
(790,770,l),
(790,484,l),
(812,484,ls),
(853,484,o),
(918,505,o),
(919,512,c),
(919,724,l),
(937,728,o),
(949,736,o),
(955,743,c),
(837,831,l),
(780,770,l)
);
},
{
closed = 1;
nodes = (
(591,770,l),
(591,469,l),
(614,469,ls),
(677,469,o),
(715,496,o),
(715,504,cs),
(715,770,l),
(731,770,l),
(591,822,l)
);
},
{
closed = 1;
nodes = (
(659,770,l),
(659,742,l),
(838,742,l),
(838,770,l)
);
},
{
closed = 1;
nodes = (
(572,410,l),
(571,190,o),
(566,42,o),
(312,-85,c),
(320,-98,l),
(679,1,o),
(705,150,o),
(710,410,c)
);
},
{
closed = 1;
nodes = (
(695,224,l),
(723,65,o),
(774,-31,o),
(886,-95,c),
(900,-22,o),
(935,26,o),
(986,41,c),
(987,52,l),
(866,71,o),
(750,132,o),
(704,228,c)
);
},
{
closed = 1;
nodes = (
(750,424,l),
(750,218,l),
(880,218,l),
(880,379,l),
(899,382,o),
(907,385,o),
(915,395,c),
(792,481,l),
(743,424,l)
);
},
{
closed = 1;
nodes = (
(297,780,o),
(307,788,o),
(311,801,c),
(145,852,l),
(131,749,o),
(78,582,o),
(11,484,c),
(20,477,l),
(133,550,o),
(226,673,o),
(270,778,c)
);
},
{
closed = 1;
nodes = (
(227,782,l),
(270,736,o),
(303,674,o),
(317,636,c),
(405,567,o),
(532,747,o),
(239,784,c)
);
},
{
closed = 1;
nodes = (
(101,558,l),
(109,530,l),
(376,530,ls),
(389,530,o),
(400,535,o),
(402,546,c),
(367,583,o),
(304,638,o),
(304,638,c),
(248,558,l)
);
},
{
closed = 1;
nodes = (
(39,409,l),
(47,381,l),
(400,381,ls),
(414,381,o),
(424,386,o),
(427,397,c),
(392,435,o),
(330,493,o),
(330,493,c),
(275,409,l)
);
},
{
closed = 1;
nodes = (
(163,558,l),
(163,37,l),
(275,69,l),
(275,558,l)
);
},
{
closed = 1;
nodes = (
(101,-91,l),
(113,-87,o),
(123,-77,o),
(128,-64,c),
(276,17,o),
(373,77,o),
(435,122,c),
(433,132,l),
(261,96,o),
(92,65,o),
(21,55,c)
);
},
{
closed = 1;
nodes = (
(305,347,l),
(298,278,o),
(289,195,o),
(280,143,c),
(297,137,l),
(331,178,o),
(365,237,o),
(393,289,c),
(414,289,o),
(426,298,o),
(430,310,c)
);
},
{
closed = 1;
nodes = (
(52,342,l),
(64,285,o),
(70,208,o),
(60,143,c),
(129,57,o),
(238,210,o),
(65,345,c)
);
}
);
vertWidth = 1000;
width = 1000;
}
);
note = cid41657;
unicode = 37592;
}
{
glyphname = uni93A6;
layers = (
{
layerId = m01;
shapes = (
{
closed = 1;
nodes = (
(274,788,o),
(284,794,o),
(287,805,c),
(210,831,l),
(178,728,o),
(98,573,o),
(21,489,c),
(36,478,l),
(126,558,o),
(206,690,o),
(249,787,c)
);
},
{
closed = 1;
nodes = (
(220,793,l),
(288,738,o),
(339,670,o),
(360,622,c),
(406,587,o),
(468,692,o),
(236,796,c)
);
},
{
closed = 1;
nodes = (
(112,550,l),
(120,520,l),
(369,520,ls),
(383,520,o),
(392,525,o),
(394,536,c),
(368,562,o),
(326,595,o),
(326,595,c),
(290,550,l)
);
},
{
closed = 1;
nodes = (
(49,391,l),
(57,362,l),
(391,362,ls),
(405,362,o),
(414,367,o),
(417,377,c),
(390,404,o),
(347,437,o),
(347,437,c),
(309,391,l)
);
},
{
closed = 1;
nodes = (
(212,550,l),
(212,18,l),
(256,28,l),
(256,550,l)
);
},
{
closed = 1;
nodes = (
(79,-66,l),
(88,-62,o),
(96,-54,o),
(99,-42,c),
(248,6,o),
(360,47,o),
(440,78,c),
(436,94,l),
(271,52,o),
(109,12,o),
(40,0,c)
);
},
{
closed = 1;
nodes = (
(331,312,l),
(319,245,o),
(303,170,o),
(286,121,c),
(303,113,l),
(330,155,o),
(357,216,o),
(377,268,c),
(396,267,o),
(408,276,o),
(412,287,c)
);
},
{
closed = 1;
nodes = (
(78,298,l),
(100,245,o),
(122,162,o),
(119,100,c),
(162,53,o),
(211,166,o),
(93,302,c)
);
},
{
closed = 1;
nodes = (
(470,183,l),
(470,154,l),
(882,154,l),
(882,183,l)
);
},
{
closed = 1;
nodes = (
(470,20,l),
(470,-10,l),
(882,-10,l),
(882,20,l)
);
},
{
closed = 1;
nodes = (
(445,769,l),
(445,472,l),
(451,472,ls),
(476,472,o),
(487,484,o),
(489,488,c),
(489,723,l),
(510,726,o),
(525,733,o),
(528,741,c)
);
},
{
closed = 1;
nodes = (
(609,825,l),
(577,799,o),
(516,756,o),
(469,730,c),
(483,717,l),
(536,733,o),
(601,759,o),
(637,778,c),
(657,770,o),
(666,773,o),
(674,782,c)
);
},
{
closed = 1;
nodes = (
(653,760,l),
(662,730,l),
(911,730,l),
(911,760,l)
);
},
{
closed = 1;
nodes = (
(890,760,l),
(886,579,o),
(878,492,o),
(860,474,cs),
(853,468,o),
(846,466,o),
(831,466,cs),
(816,466,o),
(770,470,o),
(742,472,c),
(742,453,l),
(764,450,o),
(792,444,o),
(802,437,cs),
(813,430,o),
(815,416,o),
(815,404,c),
(842,403,o),
(871,412,o),
(890,430,cs),
(918,458,o),
(931,543,o),
(935,726,c),
(954,729,o),
(965,733,o),
(971,740,c),
(908,791,l),
(880,760,l)
);
},
{
closed = 1;
nodes = (
(654,343,l),
(654,8,l),
(698,8,l),
(698,343,l)
);
},
{
closed = 1;
nodes = (
(414,408,l),
(423,412,o),
(429,421,o),
(431,433,c),
(506,467,o),
(587,508,o),
(640,540,c),
(634,556,l),
(527,513,o),
(430,478,o),
(382,465,c)
);
},
{
closed = 1;
nodes = (
(555,649,l),
(584,606,o),
(623,536,o),
(631,487,c),
(678,447,o),
(719,549,o),
(568,655,c)
);
},
{
closed = 1;
nodes = (
(741,760,l),
(734,596,o),
(711,457,o),
(603,392,c),
(618,376,l),
(751,448,o),
(776,574,o),
(786,760,c)
);
},
{
closed = 1;
nodes = (
(452,343,l),
(452,-73,l),
(460,-73,ls),
(479,-73,o),
(496,-62,o),
(496,-57,cs),
(496,313,l),
(886,313,l),
(886,343,l),
(501,343,l),
(452,368,l)
);
},
{
closed = 1;
nodes = (
(856,343,l),
(856,-68,l),
(862,-68,ls),
(877,-68,o),
(899,-55,o),
(900,-49,c),
(900,310,l),
(914,313,o),
(927,319,o),
(932,325,c),
(875,370,l),
(849,343,l)
);
}
);
vertWidth = 1000;
width = 1000;
},
{
layerId = "435FFEB5-1267-4A4D-8575-60B204161920";
name = Heavy;
shapes = (
{
closed = 1;
nodes = (
(307,780,o),
(318,788,o),
(322,801,c),
(154,854,l),
(137,751,o),
(79,582,o),
(7,483,c),
(16,476,l),
(135,549,o),
(232,672,o),
(280,778,c)
);
},
{
closed = 1;
nodes = (
(237,778,l),
(273,735,o),
(300,677,o),
(309,640,c),
(397,564,o),
(534,745,o),
(248,780,c)
);
},
{
closed = 1;
nodes = (
(96,564,l),
(104,536,l),
(375,536,ls),
(389,536,o),
(399,541,o),
(402,552,c),
(366,589,o),
(303,644,o),
(303,644,c),
(248,564,l)
);
},
{
closed = 1;
nodes = (
(34,415,l),
(42,387,l),
(405,387,ls),
(418,387,o),
(429,392,o),
(431,403,c),
(397,441,o),
(334,499,o),
(334,499,c),
(279,415,l)
);
},
{
closed = 1;
nodes = (
(159,564,l),
(159,42,l),
(286,75,l),
(286,564,l)
);
},
{
closed = 1;
nodes = (
(94,-87,l),
(106,-84,o),
(117,-74,o),
(122,-61,c),
(280,20,o),
(386,83,o),
(453,128,c),
(451,139,l),
(275,103,o),
(98,71,o),
(26,61,c)
);
},
{
closed = 1;
nodes = (
(312,356,l),
(306,285,o),
(296,201,o),
(288,149,c),
(303,143,l),
(341,183,o),
(379,241,o),
(411,294,c),
(432,294,o),
(444,303,o),
(449,315,c)
);
},
{
closed = 1;
nodes = (
(38,348,l),
(52,292,o),
(62,217,o),
(54,151,c),
(130,62,o),
(246,225,o),
(50,352,c)
);
},
{
closed = 1;
nodes = (
(484,182,l),
(484,154,l),
(869,154,l),
(869,182,l)
);
},
{
closed = 1;
nodes = (
(484,10,l),
(484,-18,l),
(869,-18,l),
(869,10,l)
);
},
{
closed = 1;
nodes = (
(421,792,l),
(421,485,l),
(439,485,ls),
(495,485,o),
(532,514,o),
(532,522,cs),
(532,730,l),
(551,733,o),
(563,739,o),
(566,748,c)
);
},
{
closed = 1;
nodes = (
(552,852,l),
(526,811,o),
(489,765,o),
(455,731,c),
(462,721,l),
(517,726,o),
(582,736,o),
(631,747,c),
(655,740,o),
(676,743,o),
(686,756,c)
);
},
{
closed = 1;
nodes = (
(643,773,l),
(652,745,l),
(918,745,l),
(918,773,l)
);
},
{
closed = 1;
nodes = (
(847,773,l),
(842,590,o),
(833,515,o),
(815,498,cs),
(809,493,o),
(802,491,o),
(789,491,cs),
(773,491,o),
(741,492,o),
(721,493,c),
(721,480,l),
(748,473,o),
(763,463,o),
(774,448,cs),
(785,433,o),
(787,407,o),
(786,375,c),
(831,375,o),
(865,384,o),
(892,406,cs),
(936,440,o),
(950,510,o),
(956,727,c),
(976,731,o),
(988,736,o),
(995,745,c),
(894,828,l),
(837,773,l)
);
},
{
closed = 1;
nodes = (
(617,342,l),
(617,-3,l),
(737,-3,l),
(737,342,l)
);
},
{
closed = 1;
nodes = (
(442,402,l),
(453,406,o),
(462,415,o),
(465,428,c),
(540,487,o),
(600,540,o),
(622,564,c),
(620,574,l),
(509,549,o),
(409,529,o),
(361,522,c)
);
},
{
closed = 1;
nodes = (
(541,663,l),
(561,623,o),
(580,563,o),
(578,511,c),
(662,431,o),
(774,596,o),
(551,668,c)
);
},
{
closed = 1;
nodes = (
(695,773,l),
(690,594,o),
(676,458,o),
(585,382,c),
(598,368,l),
(751,442,o),
(784,566,o),
(802,773,c)
);
},
{
closed = 1;
nodes = (
(431,342,l),
(431,-92,l),
(451,-92,ls),
(505,-92,o),
(561,-64,o),
(561,-51,cs),
(561,314,l),
(867,314,l),
(867,342,l),
(567,342,l),
(431,394,l)
);
},
{
closed = 1;
nodes = (
(793,342,l),
(793,-79,l),
(816,-79,ls),
(858,-79,o),
(924,-59,o),
(926,-52,c),
(926,301,l),
(940,304,o),
(949,310,o),
(954,316,c),
(841,401,l),
(785,342,l)
);
}
);
vertWidth = 1000;
width = 1000;
}
);
note = cid42010;
unicode = 37798;
}
{
glyphname = uni9485;
layers = (
{
layerId = m01;
shapes = (
{
closed = 1;
nodes = (
(370,691,l),
(179,691,l),
(179,661,l),
(450,661,ls),
(464,661,o),
(473,666,o),
(475,677,c),
(449,703,o),
(407,736,o),
(407,736,c)
);
},
{
closed = 1;
nodes = (
(234,519,l),
(234,9,l),
(278,24,l),
(278,519,l)
);
},
{
closed = 1;
nodes = (
(374,352,l),
(54,352,l),
(62,322,l),
(456,322,ls),
(470,322,o),
(479,327,o),
(482,338,c),
(455,365,o),
(412,398,o),
(412,398,c)
);
},
{
closed = 1;
nodes = (
(347,524,l),
(119,524,l),
(127,494,l),
(425,494,ls),
(439,494,o),
(448,499,o),
(451,510,c),
(424,536,o),
(383,568,o),
(383,568,c)
);
},
{
closed = 1;
nodes = (
(286,804,o),
(295,811,o),
(297,822,c),
(216,845,l),
(184,735,o),
(102,552,o),
(35,455,c),
(50,445,l),
(133,539,o),
(217,695,o),
(261,803,c)
);
},
{
closed = 1;
nodes = (
(177,-60,l),
(186,-55,o),
(193,-46,o),
(195,-34,c),
(285,2,o),
(389,51,o),
(466,94,c),
(460,111,l),
(346,66,o),
(223,24,o),
(141,2,c)
);
}
);
vertWidth = 1000;
width = 1000;
},
{
layerId = "435FFEB5-1267-4A4D-8575-60B204161920";
shapes = (
{
closed = 1;
nodes = (
(314,695,l),
(129,695,l),
(129,667,l),
(466,667,ls),
(480,667,o),
(491,672,o),
(493,683,c),
(452,725,o),
(378,788,o),
(378,788,c)
);
},
{
closed = 1;
nodes = (
(171,519,l),
(171,33,l),
(307,83,l),
(307,519,l)
);
},
{
closed = 1;
nodes = (
(320,355,l),
(23,355,l),
(31,327,l),
(456,327,ls),
(470,327,o),
(481,332,o),
(483,343,c),
(445,382,o),
(379,440,o),
(379,440,c)
);
},
{
closed = 1;
nodes = (
(290,525,l),
(105,525,l),
(113,497,l),
(429,497,ls),
(443,497,o),
(454,502,o),
(457,513,c),
(417,552,o),
(349,610,o),
(349,610,c)
);
},
{
closed = 1;
nodes = (
(319,804,o),
(329,812,o),
(332,825,c),
(136,858,l),
(122,747,o),
(70,541,o),
(20,426,c),
(28,421,l),
(133,523,o),
(241,679,o),
(293,800,c)
);
},
{
closed = 1;
nodes = (
(169,-85,l),
(184,-79,o),
(194,-67,o),
(195,-54,c),
(307,28,o),
(415,112,o),
(474,166,c),
(472,176,l),
(308,126,o),
(153,83,o),
(69,64,c)
);
}
);
vertWidth = 1000;
width = 1000;
}
);
note = cid42430;
unicode = 38021;
}
{
glyphname = uni98CE;
layers = (
{
layerId = m01;
shapes = (
{
closed = 1;
nodes = (
(276,538,l),
(449,408,o),
(623,212,o),
(672,92,c),
(758,35,o),
(732,267,o),
(290,551,c)
);
},
{
closed = 1;
nodes = (
(607,662,l),
(520,407,o),
(381,189,o),
(218,55,c),
(232,41,l),
(405,167,o),
(552,373,o),
(643,616,c),
(666,613,o),
(679,622,o),
(683,633,c)
);
},
{
closed = 1;
nodes = (
(725,778,l),
(735,778,l),
(733,445,o),
(735,80,o),
(874,-35,c),
(906,-65,o),
(941,-84,o),
(960,-66,cs),
(968,-57,o),
(963,-43,o),
(944,-16,c),
(959,138,l),
(946,140,l),
(937,101,o),
(927,64,o),
(916,27,cs),
(911,13,o),
(907,11,o),
(896,21,cs),
(785,115,o),
(775,476,o),
(785,734,c),
(808,737,o),
(822,744,o),
(829,751,c),
(759,813,l)
);
},
{
closed = 1;
nodes = (
(765,778,l),
(194,778,l),
(194,748,l),
(765,748,l)
);
},
{
closed = 1;
nodes = (
(174,788,l),
(174,425,ls),
(174,237,o),
(157,64,o),
(40,-66,c),
(57,-78,l),
(204,52,o),
(218,247,o),
(218,426,cs),
(218,778,l),
(228,778,l),
(174,806,l)
);
}
);
vertWidth = 1000;
width = 1000;
},
{
layerId = "435FFEB5-1267-4A4D-8575-60B204161920";
shapes = (
{
closed = 1;
nodes = (
(295,558,l),
(395,446,o),
(512,283,o),
(551,126,c),
(699,13,o),
(777,338,o),
(306,566,c)
);
},
{
closed = 1;
nodes = (
(509,687,l),
(467,431,o),
(357,198,o),
(232,49,c),
(243,40,l),
(429,161,o),
(557,340,o),
(639,613,c),
(662,612,o),
(674,620,o),
(679,633,c)
);
},
{
closed = 1;
nodes = (
(656,780,l),
(669,780,l),
(661,447,o),
(657,58,o),
(821,-51,c),
(869,-87,o),
(924,-106,o),
(966,-65,cs),
(985,-46,o),
(982,6,o),
(954,68,c),
(962,251,l),
(953,252,l),
(942,207,o),
(932,170,o),
(918,135,cs),
(912,121,o),
(906,117,o),
(893,124,c),
(796,167,o),
(794,523,o),
(812,730,c),
(836,735,o),
(850,742,o),
(857,750,c),
(726,860,l)
);
},
{
closed = 1;
nodes = (
(728,780,l),
(229,780,l),
(229,752,l),
(728,752,l)
);
},
{
closed = 1;
nodes = (
(144,790,l),
(144,413,ls),
(144,224,o),
(136,48,o),
(24,-90,c),
(32,-96,l),
(277,32,o),
(289,225,o),
(289,414,cs),
(289,780,l),
(311,780,l),
(144,836,l)
);
}
);
vertWidth = 1000;
width = 1000;
}
);
note = cid44176;
unicode = 39118;
}
{
glyphname = uni9963;
layers = (
{
layerId = m01;
shapes = (
{
closed = 1;
nodes = (
(211,838,l),
(182,700,o),
(122,520,o),
(58,414,c),
(75,405,l),
(153,507,o),
(223,678,o),
(258,807,c),
(285,808,o),
(293,813,o),
(295,825,c)
);
},
{
closed = 1;
nodes = (
(414,667,l),
(425,667,l),
(410,600,o),
(383,526,o),
(356,476,c),
(373,468,l),
(411,510,o),
(450,588,o),
(472,633,c),
(491,634,o),
(503,635,o),
(510,641,c),
(447,701,l)
);
},
{
closed = 1;
nodes = (
(443,667,l),
(187,667,l),
(172,637,l),
(443,637,l)
);
},
{
closed = 1;
nodes = (
(238,511,l),
(238,10,l),
(246,10,ls),
(263,10,o),
(282,22,o),
(282,31,cs),
(282,474,l),
(307,478,o),
(314,488,o),
(317,502,c)
);
},
{
closed = 1;
nodes = (
(172,-60,l),
(181,-55,o),
(188,-46,o),
(190,-34,c),
(280,2,o),
(384,51,o),
(461,94,c),
(455,111,l),
(341,66,o),
(218,24,o),
(136,2,c)
);
}
);
vertWidth = 1000;
width = 1000;
},
{
layerId = "435FFEB5-1267-4A4D-8575-60B204161920";
shapes = (
{
closed = 1;
nodes = (
(142,856,l),
(123,721,o),
(76,535,o),
(24,430,c),
(32,424,l),
(148,519,o),
(246,679,o),
(307,817,c),
(334,819,o),
(341,825,o),
(343,837,c)
);
},
{
closed = 1;
nodes = (
(356,675,l),
(368,675,l),
(366,627,o),
(357,531,o),
(346,477,c),
(356,473,l),
(413,510,o),
(476,578,o),
(517,626,c),
(538,628,o),
(549,631,o),
(557,640,c),
(429,749,l)
);
},
{
closed = 1;
nodes = (
(480,675,l),
(158,675,l),
(149,647,l),
(480,647,l)
);
},
{
closed = 1;
nodes = (
(166,523,l),
(166,44,l),
(194,44,ls),
(250,44,o),
(314,79,o),
(314,94,cs),
(314,485,l),
(330,486,o),
(341,494,o),
(342,506,c)
);
},
{
closed = 1;
nodes = (
(169,-85,l),
(184,-79,o),
(194,-67,o),
(195,-54,c),
(311,31,o),
(420,118,o),
(477,171,c),
(475,181,l),
(302,125,o),
(145,80,o),
(69,64,c)
);
}
);
vertWidth = 1000;
width = 1000;
}
);
note = cid44549;
unicode = 39267;
}
{
glyphname = u270FD;
layers = (
{
layerId = m01;
shapes = (
{
closed = 1;
nodes = (
(47,751,l),
(54,721,l),
(313,721,l),
(313,661,l),
(320,661,ls),
(337,661,o),
(358,667,o),
(358,674,cs),
(358,721,l),
(636,721,l),
(636,663,l),
(644,663,ls),
(668,663,o),
(681,673,o),
(681,678,cs),
(681,721,l),
(926,721,ls),
(940,721,o),
(950,726,o),
(952,737,c),
(922,764,o),
(875,801,o),
(875,801,c),
(832,751,l),
(681,751,l),
(681,801,l),
(705,804,o),
(714,814,o),
(716,827,c),
(636,836,l),
(636,751,l),
(358,751,l),
(358,801,l),
(382,804,o),
(391,815,o),
(393,827,c),
(313,836,l),
(313,751,l)
);
},
{
closed = 1;
nodes = (
(492,700,l),
(492,614,l),
(536,614,l),
(536,664,l),
(560,667,o),
(571,677,o),
(573,691,c)
);
},
{
closed = 1;
nodes = (
(138,623,l),
(138,593,l),
(920,593,ls),
(934,593,o),
(943,598,o),
(946,609,c),
(915,637,o),
(865,676,o),
(865,676,c),
(823,623,l)
);
},
{
closed = 1;
nodes = (
(119,623,l),
(119,401,ls),
(119,243,o),
(114,74,o),
(38,-65,c),
(54,-76,l),
(159,63,o),
(164,258,o),
(164,402,cs),
(164,623,l),
(173,623,l),
(119,650,l),
(119,632,l)
);
},
{
closed = 1;
nodes = (
(488,500,l),
(488,471,l),
(897,471,ls),
(911,471,o),
(920,475,o),
(923,486,c),
(897,511,o),
(857,543,o),
(857,543,c),
(822,500,l)
);
},
{
closed = 1;
nodes = (
(487,413,l),
(487,383,l),
(869,383,ls),
(883,383,o),
(891,388,o),
(894,399,c),
(869,422,o),
(831,449,o),
(831,449,c),
(798,413,l)
);
},
{
closed = 1;
nodes = (
(483,235,l),
(483,205,l),
(916,205,ls),
(929,205,o),
(938,210,o),
(941,221,c),
(914,245,o),
(875,273,o),
(875,273,c),
(840,235,l)
);
},
{
closed = 1;
nodes = (
(487,324,l),
(487,295,l),
(869,295,ls),
(883,295,o),
(891,300,o),
(894,310,c),
(869,333,o),
(831,361,o),
(831,361,c),
(798,324,l)
);
},
{
closed = 1;
nodes = (
(293,441,l),
(293,167,l),
(300,167,ls),
(317,167,o),
(336,180,o),
(337,184,c),
(337,442,l),
(353,445,o),
(363,452,o),
(366,460,c),
(320,477,l)
);
},
{
closed = 1;
nodes = (
(654,500,l),
(654,220,l),
(698,220,l),
(698,500,l)
);
},
{
closed = 1;
nodes = (
(681,582,l),
(671,552,o),
(656,515,o),
(642,485,c),
(665,485,l),
(680,499,o),
(699,521,o),
(714,541,c),
(734,540,o),
(747,549,o),
(752,560,c)
);
},
{
closed = 1;
nodes = (
(509,500,l),
(521,500,l),
(490,515,l),
(465,477,l),
(465,180,l),
(472,180,ls),
(494,180,o),
(509,192,o),
(509,197,cs)
);
},
{
closed = 1;
nodes = (
(383,127,l),
(383,-12,ls),
(383,-49,o),
(395,-60,o),
(468,-60,cs),
(590,-60,ls),
(754,-60,o),
(780,-53,o),
(780,-31,cs),
(780,-22,o),
(774,-17,o),
(756,-12,c),
(753,76,l),
(741,76,l),
(734,37,o),
(726,3,o),
(719,-10,cs),
(715,-17,o),
(712,-19,o),
(700,-20,cs),
(687,-21,o),
(643,-21,o),
(589,-21,cs),
(473,-21,ls),
(431,-21,o),
(427,-18,o),
(427,-5,cs),
(427,95,l),
(444,98,o),
(454,107,o),
(455,118,c)
);
},
{
closed = 1;
nodes = (
(457,154,l),
(512,136,o),
(583,97,o),
(612,59,c),
(675,41,o),
(672,165,o),
(464,166,c)
);
},
{
closed = 1;
nodes = (
(748,123,l),
(817,90,o),
(887,29,o),
(906,-16,c),
(970,-52,o),
(994,79,o),
(759,132,c)
);
},
{
closed = 1;
nodes = (
(293,120,l),
(280,68,o),
(245,37,o),
(201,16,cs),
(184,7,o),
(173,-10,o),
(181,-25,cs),
(191,-42,o),
(222,-37,o),
(243,-24,cs),
(277,-3,o),
(322,35,o),
(311,119,c)
);
},
{
closed = 1;
nodes = (
(508,584,l),
(481,505,o),
(423,418,o),
(357,359,c),
(371,348,l),
(442,399,o),
(507,473,o),
(539,540,c),
(560,537,o),
(571,546,o),
(576,556,c)
);
},
{
closed = 1;
nodes = (
(350,584,l),
(317,484,o),
(248,380,o),
(171,314,c),
(186,301,l),
(269,362,o),
(345,454,o),
(382,539,c),
(403,537,o),
(415,545,o),
(420,556,c)
);
}
);
width = 1000;
},
{
layerId = "435FFEB5-1267-4A4D-8575-60B204161920";
shapes = (
{
closed = 1;
nodes = (
(27,756,l),
(34,728,l),
(271,728,l),
(271,665,l),
(293,665,ls),
(359,665,o),
(408,680,o),
(408,689,cs),
(408,728,l),
(583,728,l),
(583,670,l),
(605,670,ls),
(672,670,o),
(723,684,o),
(723,693,cs),
(723,728,l),
(945,728,ls),
(959,728,o),
(969,733,o),
(972,744,c),
(932,782,o),
(862,835,o),
(862,835,c),
(801,756,l),
(723,756,l),
(723,813,l),
(749,817,o),
(757,826,o),
(758,840,c),
(583,854,l),
(583,756,l),
(408,756,l),
(408,813,l),
(434,817,o),
(442,826,o),
(443,839,c),
(271,854,l),
(271,756,l)
);
},
{
closed = 1;
nodes = (
(434,712,l),
(434,619,l),
(576,619,l),
(576,671,l),
(604,676,o),
(610,686,o),
(612,699,c)
);
},
{
closed = 1;
nodes = (
(165,626,l),
(165,598,l),
(940,598,ls),
(954,598,o),
(965,603,o),
(968,614,c),
(924,655,o),
(850,716,o),
(850,716,c),
(785,626,l)
);
},
{
closed = 1;
nodes = (
(90,626,l),
(90,387,ls),
(90,229,o),
(89,48,o),
(21,-93,c),
(30,-100,l),
(212,31,o),
(222,234,o),
(222,388,cs),
(222,626,l),
(242,626,l),
(90,678,l),
(90,636,l)
);
},
{
closed = 1;
nodes = (
(547,505,l),
(547,477,l),
(920,477,ls),
(934,477,o),
(944,482,o),
(946,493,c),
(913,522,o),
(858,564,o),
(858,564,c),
(810,505,l)
);
},
{
closed = 1;
nodes = (
(546,421,l),
(546,393,l),
(904,393,ls),
(918,393,o),
(928,398,o),
(930,409,c),
(900,437,o),
(851,475,o),
(851,475,c),
(807,421,l)
);
},
{
closed = 1;
nodes = (
(542,247,l),
(542,219,l),
(938,219,ls),
(952,219,o),
(962,224,o),
(965,235,c),
(932,264,o),
(880,304,o),
(880,304,c),
(833,247,l)
);
},
{
closed = 1;
nodes = (
(546,335,l),
(546,307,l),
(907,307,ls),
(920,307,o),
(930,312,o),
(932,323,c),
(904,351,o),
(855,390,o),
(855,390,c),
(811,335,l)
);
},
{
closed = 1;
nodes = (
(289,433,l),
(289,158,l),
(311,158,ls),
(357,158,o),
(405,180,o),
(407,189,c),
(407,443,l),
(425,446,o),
(435,453,o),
(438,462,c),
(339,499,l)
);
},
{
closed = 1;
nodes = (
(668,505,l),
(668,230,l),
(782,230,l),
(782,505,l)
);
},
{
closed = 1;
nodes = (
(698,602,l),
(693,563,o),
(684,519,o),
(677,488,c),
(691,488,l),
(725,502,o),
(768,524,o),
(802,545,c),
(824,545,o),
(836,553,o),
(839,565,c)
);
},
{
closed = 1;
nodes = (
(598,505,l),
(611,505,l),
(565,523,l),
(483,418,l),
(483,177,l),
(504,177,ls),
(563,177,o),
(598,209,o),
(598,218,cs)
);
},
{
closed = 1;
nodes = (
(389,143,l),
(389,7,ls),
(389,-64,o),
(408,-82,o),
(510,-82,cs),
(605,-82,ls),
(762,-82,o),
(807,-61,o),
(807,-16,cs),
(807,4,o),
(798,16,o),
(766,27,c),
(762,83,l),
(752,83,l),
(737,55,o),
(722,35,o),
(713,28,cs),
(706,22,o),
(697,21,o),
(685,20,cs),
(673,19,o),
(647,19,o),
(620,19,cs),
(539,19,ls),
(514,19,o),
(511,22,o),
(511,32,cs),
(511,107,l),
(530,110,o),
(539,118,o),
(541,131,c)
);
},
{
closed = 1;
nodes = (
(469,173,l),
(516,146,o),
(579,94,o),
(609,50,c),
(727,18,o),
(755,222,o),
(476,181,c)
);
},
{
closed = 1;
nodes = (
(750,146,l),
(801,97,o),
(853,15,o),
(867,-40,c),
(992,-114,o),
(1087,108,o),
(758,152,c)
);
},
{
closed = 1;
nodes = (
(312,150,l),
(312,104,o),
(270,64,o),
(232,50,cs),
(199,36,o),
(176,11,o),
(186,-23,cs),
(199,-59,o),
(246,-69,o),
(282,-53,cs),
(334,-29,o),
(371,44,o),
(325,150,c)
);
},
{
closed = 1;
nodes = (
(531,615,l),
(513,534,o),
(466,446,o),
(408,386,c),
(416,375,l),
(507,403,o),
(595,468,o),
(644,542,c),
(667,541,o),
(680,550,o),
(684,561,c)
);
},
{
closed = 1;
nodes = (
(342,615,l),
(320,527,o),
(269,430,o),
(210,363,c),
(219,352,l),
(310,385,o),
(401,457,o),
(455,540,c),
(478,538,o),
(491,547,o),
(495,559,c)
);
}
);
width = 1000;
}
);
unicode = 159997;
}
{
glyphname = uni4E49.JP;
layers = (
{
layerId = m01;
shapes = (
{
closed = 1;
nodes = (
(194,720,l),
(275,313,o),
(498,51,o),
(878,-68,c),
(890,-45,o),
(911,-33,o),
(936,-34,c),
(939,-23,l),
(543,84,o),
(299,345,o),
(214,732,c)
);
},
{
closed = 1;
nodes = (
(734,745,l),
(661,392,o),
(479,99,o),
(66,-51,c),
(76,-67,l),
(513,76,o),
(696,356,o),
(781,705,c),
(810,704,o),
(820,710,o),
(824,723,c)
);
},
{
closed = 1;
nodes = (
(371,638,l),
(428,595,o),
(495,519,o),
(507,458,c),
(564,419,o),
(595,555,o),
(383,646,c)
);
}
);
vertWidth = 1000;
width = 1000;
},
{
layerId = "435FFEB5-1267-4A4D-8575-60B204161920";
shapes = (
{
closed = 1;
nodes = (
(194,776,l),
(268,303,o),
(495,57,o),
(813,-82,c),
(844,-13,o),
(901,30,o),
(976,35,c),
(980,48,l),
(633,148,o),
(309,355,o),
(209,783,c)
);
},
{
closed = 1;
nodes = (
(695,798,l),
(634,446,o),
(487,109,o),
(43,-70,c),
(50,-81,l),
(488,28,o),
(732,263,o),
(845,731,c),
(874,732,o),
(883,741,o),
(886,754,c)
);
},
{
closed = 1;
nodes = (
(357,721,l),
(389,667,o),
(421,593,o),
(427,524,c),
(546,425,o),
(671,659,o),
(365,726,c)
);
}
);
vertWidth = 1000;
width = 1000;
}
);
note = cid09602;
}
{
glyphname = uni4E49.noaxe;
layers = (
{
layerId = m01;
shapes = (
{
closed = 1;
nodes = (
(196,713,l),
(278,303,o),
(518,44,o),
(902,-70,c),
(914,-47,o),
(935,-35,o),
(960,-36,c),
(963,-25,l),
(564,77,o),
(304,331,o),
(216,726,c)
);
},
{
closed = 1;
nodes = (
(754,748,l),
(675,379,o),
(476,87,o),
(41,-57,c),
(50,-74,l),
(513,59,o),
(713,351,o),
(800,708,c),
(829,706,o),
(839,712,o),
(844,725,c)
);
},
{
closed = 1;
nodes = (
(380,805,l),
(436,750,o),
(505,655,o),
(516,584,c),
(573,539,o),
(611,684,o),
(393,813,c)
);
}
);
vertWidth = 1000;
width = 1000;
},
{
layerId = "435FFEB5-1267-4A4D-8575-60B204161920";
shapes = (
{
closed = 1;
nodes = (
(193,762,l),
(266,294,o),
(493,47,o),
(811,-92,c),
(842,-23,o),
(899,20,o),
(974,25,c),
(978,38,l),
(631,138,o),
(307,346,o),
(208,769,c)
);
},
{
closed = 1;
nodes = (
(686,796,l),
(629,444,o),
(479,94,o),
(20,-86,c),
(27,-97,l),
(583,30,o),
(756,364,o),
(845,727,c),
(874,729,o),
(883,737,o),
(887,750,c)
);
},
{
closed = 1;
nodes = (
(337,849,l),
(377,788,o),
(411,708,o),
(418,633,c),
(547,533,o),
(672,765,o),
(345,854,c)
);
}
);
vertWidth = 1000;
width = 1000;
}
);
note = cid09602;
}
{
glyphname = uni4FDE.inherited;
layers = (
{
layerId = m01;
shapes = (
{
closed = 1;
nodes = (
(180,401,l),
(440,401,l),
(440,431,l),
(185,431,l),
(136,457,l),
(136,-72,l),
(144,-72,ls),
(164,-72,o),
(180,-62,o),
(180,-56,cs)
);
},
{
closed = 1;
nodes = (
(202,194,l),
(251,170,o),
(315,122,o),
(338,85,c),
(393,61,o),
(407,171,o),
(211,205,c)
);
},
{
closed = 1;
nodes = (
(214,331,l),
(260,310,o),
(323,266,o),
(348,235,c),
(402,214,o),
(415,317,o),
(223,343,c)
);
},
{
closed = 1;
nodes = (
(404,431,l),
(414,431,l),
(414,1,ls),
(414,-11,o),
(410,-17,o),
(394,-17,cs),
(377,-17,o),
(305,-11,o),
(305,-11,c),
(305,-28,l),
(337,-31,o),
(357,-36,o),
(369,-43,cs),
(379,-49,o),
(383,-61,o),
(385,-71,c),
(450,-65,o),
(458,-41,o),
(458,-2,cs),
(458,392,l),
(478,395,o),
(496,403,o),
(502,410,c),
(430,464,l)
);
},
{
closed = 1;
nodes = (
(592,665,o),
(750,543,o),
(912,468,c),
(919,486,o),
(940,502,o),
(965,506,c),
(967,521,l),
(790,589,o),
(625,690,o),
(531,798,c),
(553,800,o),
(566,805,o),
(569,816,c),
(467,838,l),
(407,713,o),
(193,532,o),
(30,450,c),
(38,434,l),
(215,513,o),
(412,664,o),
(512,786,c)
);
},
{
closed = 1;
nodes = (
(601,557,l),
(300,557,l),
(308,527,l),
(685,527,ls),
(698,527,o),
(708,532,o),
(710,543,c),
(682,569,o),
(639,601,o),
(639,601,c)
);
},
{
closed = 1;
nodes = (
(630,456,l),
(613,406,o),
(554,275,o),
(521,202,c),
(589,119,o),
(635,1,o),
(654,-65,c),
(695,-99,o),
(765,-16,o),
(550,205,c),
(587,267,o),
(650,375,o),
(675,423,c),
(691,422,o),
(699,425,o),
(702,434,c)
);
},
{
closed = 1;
nodes = (
(810,456,l),
(790,405,o),
(722,274,o),
(686,202,c),
(762,120,o),
(816,1,o),
(839,-66,c),
(881,-98,o),
(952,-17,o),
(716,206,c),
(756,266,o),
(827,373,o),
(853,423,c),
(869,420,o),
(879,423,o),
(883,433,c)
);
}
);
vertWidth = 1000;
width = 1000;
},
{
layerId = "435FFEB5-1267-4A4D-8575-60B204161920";
shapes = (
{
closed = 1;
nodes = (
(259,394,l),
(445,394,l),
(445,422,l),
(264,422,l),
(129,476,l),
(129,-93,l),
(149,-93,ls),
(205,-93,o),
(259,-63,o),
(259,-50,cs)
);
},
{
closed = 1;
nodes = (
(237,190,l),
(256,170,o),
(277,131,o),
(280,97,c),
(370,37,o),
(459,201,o),
(245,196,c)
);
},
{
closed = 1;
nodes = (
(241,338,l),
(259,318,o),
(279,281,o),
(281,247,c),
(369,188,o),
(459,346,o),
(249,344,c)
);
},
{
closed = 1;
nodes = (
(355,422,l),
(365,422,l),
(365,38,ls),
(365,28,o),
(362,22,o),
(349,22,cs),
(334,22,o),
(286,25,o),
(286,25,c),
(286,13,l),
(321,6,o),
(331,-7,o),
(340,-21,cs),
(349,-37,o),
(351,-62,o),
(352,-97,c),
(480,-87,o),
(497,-47,o),
(497,29,cs),
(497,372,l),
(518,376,o),
(531,386,o),
(537,394,c),
(413,488,l)
);
},
{
closed = 1;
nodes = (
(611,631,o),
(743,540,o),
(885,482,c),
(893,539,o),
(931,609,o),
(992,628,c),
(993,645,l),
(859,657,o),
(660,691,o),
(565,782,c),
(602,787,o),
(615,793,o),
(620,808,c),
(408,863,l),
(371,740,o),
(194,554,o),
(21,454,c),
(27,444,l),
(227,504,o),
(451,639,o),
(550,771,c)
);
},
{
closed = 1;
nodes = (
(515,547,l),
(307,547,l),
(315,519,l),
(677,519,ls),
(691,519,o),
(702,524,o),
(705,535,c),
(658,574,o),
(582,628,o),
(582,628,c)
);
},
{
closed = 1;
nodes = (
(565,483,l),
(562,426,o),
(545,293,o),
(531,207,c),
(574,139,o),
(594,6,o),
(595,-73,c),
(690,-154,o),
(863,25,o),
(555,211,c),
(607,275,o),
(676,379,o),
(706,426,c),
(725,427,o),
(737,433,o),
(740,445,c)
);
},
{
closed = 1;
nodes = (
(762,471,l),
(750,416,o),
(706,282,o),
(678,200,c),
(743,138,o),
(787,11,o),
(799,-75,c),
(909,-154,o),
(1072,49,o),
(705,204,c),
(770,264,o),
(865,361,o),
(901,404,c),
(920,403,o),
(933,409,o),
(937,421,c)
);
}
);
vertWidth = 1000;
width = 1000;
}
);
note = cid10190;
}
{
glyphname = uni55B3.JP;
layers = (
{
layerId = m01;
shapes = (
{
closed = 1;
nodes = (
(127,647,l),
(285,647,l),
(285,677,l),
(132,677,l),
(84,703,l),
(84,105,l),
(92,105,ls),
(111,105,o),
(127,116,o),
(127,122,cs)
);
},
{
closed = 1;
nodes = (
(253,677,l),
(263,677,l),
(263,147,l),
(269,147,ls),
(284,147,o),
(306,159,o),
(307,165,c),
(307,637,l),
(327,641,o),
(344,649,o),
(350,657,c),
(283,710,l)
);
},
{
closed = 1;
nodes = (
(285,258,l),
(105,258,l),
(105,228,l),
(285,228,l)
);
},
{
closed = 1;
nodes = (
(829,699,l),
(366,699,l),
(374,669,l),
(920,669,ls),
(934,669,o),
(943,674,o),
(945,685,c),
(917,713,o),
(870,749,o),
(870,749,c)
);
},
{
closed = 1;
nodes = (
(621,828,l),
(621,423,l),
(630,423,ls),
(646,423,o),
(665,433,o),
(665,441,cs),
(665,791,l),
(690,795,o),
(700,804,o),
(702,818,c)
);
},
{
closed = 1;
nodes = (
(637,699,l),
(593,699,l),
(541,591,o),
(439,482,o),
(330,415,c),
(342,397,l),
(467,463,o),
(581,573,o),
(637,683,c)
);
},
{
closed = 1;
nodes = (
(654,680,l),
(706,577,o),
(809,479,o),
(922,425,c),
(928,445,o),
(942,456,o),
(961,458,c),
(963,468,l),
(845,509,o),
(733,595,o),
(671,690,c)
);
},
{
closed = 1;
nodes = (
(456,-23,l),
(506,-23,l),
(506,367,l),
(787,367,l),
(787,-24,l),
(838,-24,l),
(838,359,l),
(862,362,o),
(875,367,o),
(883,378,c),
(807,436,l),
(776,397,l),
(518,397,l),
(456,426,l)
);
},
{
closed = 1;
nodes = (
(795,267,l),
(499,267,l),
(499,237,l),
(795,237,l)
);
},
{
closed = 1;
nodes = (
(795,132,l),
(499,132,l),
(499,102,l),
(795,102,l)
);
},
{
closed = 1;
nodes = (
(852,-9,l),
(306,-9,l),
(314,-39,l),
(942,-39,ls),
(956,-39,o),
(966,-34,o),
(969,-23,c),
(939,5,o),
(893,41,o),
(893,41,c)
);
}
);
vertWidth = 1000;
width = 1000;
},
{
layerId = "435FFEB5-1267-4A4D-8575-60B204161920";
shapes = (
{
closed = 1;
nodes = (
(173,641,l),
(267,641,l),
(267,669,l),
(177,669,l),
(57,719,l),
(57,69,l),
(75,69,ls),
(126,69,o),
(173,96,o),
(173,109,cs)
);
},
{
closed = 1;
nodes = (
(207,669,l),
(217,669,l),
(217,118,l),
(238,118,ls),
(280,118,o),
(340,143,o),
(342,151,c),
(342,624,l),
(360,627,o),
(372,635,o),
(377,642,c),
(264,730,l)
);
},
{
closed = 1;
nodes = (
(267,241,l),
(123,241,l),
(123,213,l),
(267,213,l)
);
},
{
closed = 1;
nodes = (
(774,707,l),
(356,707,l),
(364,679,l),
(941,679,ls),
(955,679,o),
(966,684,o),
(969,695,c),
(923,738,o),
(844,803,o),
(844,803,c)
);
},
{
closed = 1;
nodes = (
(574,849,l),
(574,406,l),
(599,406,ls),
(654,406,o),
(714,427,o),
(714,436,cs),
(714,805,l),
(742,810,o),
(749,820,o),
(751,834,c)
);
},
{
closed = 1;
nodes = (
(685,707,l),
(537,707,l),
(495,592,o),
(421,480,o),
(344,415,c),
(353,403,l),
(505,472,o),
(633,583,o),
(685,691,c)
);
},
{
closed = 1;
nodes = (
(705,698,l),
(744,559,o),
(807,462,o),
(895,405,c),
(910,469,o),
(943,510,o),
(990,522,c),
(992,533,l),
(865,568,o),
(774,624,o),
(715,703,c)
);
},
{
closed = 1;
nodes = (
(441,-53,l),
(574,-53,l),
(574,342,l),
(721,342,l),
(721,-53,l),
(860,-53,l),
(860,329,l),
(886,334,o),
(898,339,o),
(905,350,c),
(768,443,l),
(711,370,l),
(582,370,l),
(441,423,l)
);
},
{
closed = 1;
nodes = (
(771,240,l),
(524,240,l),
(524,212,l),
(771,212,l)
);
},
{
closed = 1;
nodes = (
(771,104,l),
(524,104,l),
(524,76,l),
(771,76,l)
);
},
{
closed = 1;
nodes = (
(851,-39,l),
(302,-39,l),
(310,-67,l),
(969,-67,ls),
(983,-67,o),
(993,-62,o),
(995,-51,c),
(965,-11,o),
(904,54,o),
(904,54,c)
);
}
);
vertWidth = 1000;
width = 1000;
}
);
note = cid12584;
}
{
glyphname = uni567A.HK;
layers = (
{
layerId = m01;
shapes = (
{
closed = 1;
nodes = (
(301,677,l),
(308,648,l),
(629,648,ls),
(642,648,o),
(651,653,o),
(654,664,c),
(626,690,o),
(581,725,o),
(581,725,c),
(542,677,l)
);
},
{
closed = 1;
nodes = (
(681,512,l),
(681,483,l),
(943,483,ls),
(957,483,o),
(966,488,o),
(968,499,c),
(940,526,o),
(894,563,o),
(894,563,c),
(853,512,l)
);
},
{
closed = 1;
nodes = (
(347,626,l),
(372,583,o),
(386,528,o),
(383,483,c),
(426,438,o),
(481,543,o),
(361,632,c)
);
},
{
closed = 1;
nodes = (
(474,232,l),
(512,205,o),
(555,155,o),
(564,113,c),
(616,79,o),
(651,193,o),
(485,240,c)
);
},
{
closed = 1;
nodes = (
(816,512,l),
(816,-73,l),
(822,-73,ls),
(844,-73,o),
(860,-62,o),
(860,-59,cs),
(860,512,l)
);
},
{
closed = 1;
nodes = (
(668,709,l),
(668,424,ls),
(668,243,o),
(655,64,o),
(548,-78,c),
(565,-89,l),
(700,52,o),
(712,257,o),
(712,425,cs),
(712,709,l),
(723,709,l),
(668,737,l),
(668,719,l)
);
},
{
closed = 1;
nodes = (
(429,316,l),
(387,199,o),
(315,88,o),
(218,5,c),
(230,-12,l),
(344,69,o),
(427,175,o),
(476,301,c),
(476,316,l)
);
},
{
closed = 1;
nodes = (
(542,644,l),
(533,596,o),
(511,514,o),
(492,458,c),
(502,453,l),
(533,498,o),
(568,557,o),
(587,597,c),
(607,595,o),
(618,606,o),
(620,615,c)
);
},
{
closed = 1;
nodes = (
(79,729,l),
(79,90,l),
(87,90,ls),
(107,90,o),
(122,102,o),
(122,107,cs),
(122,699,l),
(263,699,l),
(263,729,l),
(127,729,l),
(79,755,l)
);
},
{
closed = 1;
nodes = (
(232,729,l),
(232,145,l),
(237,145,ls),
(253,145,o),
(275,158,o),
(276,165,c),
(276,690,l),
(296,694,o),
(312,701,o),
(319,709,c),
(251,762,l),
(222,729,l)
);
},
{
closed = 1;
nodes = (
(102,236,l),
(102,207,l),
(254,207,l),
(254,236,l)
);
},
{
closed = 1;
nodes = (
(292,464,l),
(300,434,l),
(639,434,ls),
(653,434,o),
(662,439,o),
(665,450,c),
(636,478,o),
(591,513,o),
(591,513,c),
(552,464,l)
);
},
{
closed = 1;
nodes = (
(294,316,l),
(302,287,l),
(632,287,ls),
(645,287,o),
(655,292,o),
(657,302,c),
(630,330,o),
(584,366,o),
(584,366,c),
(545,316,l)
);
},
{
closed = 1;
nodes = (
(892,806,l),
(849,778,o),
(760,731,o),
(692,704,c),
(697,692,l),
(777,705,o),
(870,736,o),
(919,754,c),
(932,749,o),
(942,749,o),
(948,755,c)
);
},
{
closed = 1;
nodes = (
(440,419,l),
(440,-73,l),
(449,-73,ls),
(466,-73,o),
(485,-61,o),
(485,-53,cs),
(485,385,l),
(506,388,o),
(514,397,o),
(516,410,c)
);
},
{
closed = 1;
nodes = (
(345,795,l),
(353,765,l),
(580,765,ls),
(593,765,o),
(602,770,o),
(605,781,c),
(582,804,o),
(547,833,o),
(547,833,c),
(515,795,l)
);
}
);
vertWidth = 1000;
width = 1000;
},
{
layerId = "435FFEB5-1267-4A4D-8575-60B204161920";
shapes = (
{
closed = 1;
nodes = (
(304,688,l),
(312,660,l),
(636,660,ls),
(650,660,o),
(660,665,o),
(663,676,c),
(632,708,o),
(578,754,o),
(578,754,c),
(529,688,l)
);
},
{
closed = 1;
nodes = (
(690,521,l),
(690,493,l),
(969,493,ls),
(983,493,o),
(993,498,o),
(996,509,c),
(963,548,o),
(901,609,o),
(901,609,c),
(846,521,l)
);
},
{
closed = 1;
nodes = (
(337,650,l),
(352,605,o),
(356,551,o),
(347,510,c),
(419,427,o),
(550,569,o),
(348,654,c)
);
},
{
closed = 1;
nodes = (
(515,241,l),
(538,207,o),
(557,154,o),
(554,107,c),
(644,26,o),
(758,201,o),
(524,246,c)
);
},
{
closed = 1;
nodes = (
(804,521,l),
(804,-95,l),
(826,-95,ls),
(888,-95,o),
(925,-70,o),
(925,-62,cs),
(925,521,l)
);
},
{
closed = 1;
nodes = (
(652,732,l),
(652,416,ls),
(652,239,o),
(647,58,o),
(558,-83,c),
(568,-91,l),
(762,43,o),
(772,244,o),
(772,417,cs),
(772,732,l),
(790,732,l),
(652,781,l),
(652,742,l)
);
},
{
closed = 1;
nodes = (
(380,333,l),
(349,204,o),
(287,74,o),
(191,-14,c),
(200,-26,l),
(357,54,o),
(466,168,o),
(518,317,c),
(518,333,l)
);
},
{
closed = 1;
nodes = (
(500,658,l),
(497,598,o),
(489,528,o),
(479,476,c),
(489,473,l),
(524,506,o),
(569,556,o),
(605,601,c),
(628,600,o),
(639,612,o),
(641,622,c)
);
},
{
closed = 1;
nodes = (
(56,732,l),
(56,71,l),
(74,71,ls),
(123,71,o),
(166,98,o),
(166,110,cs),
(166,704,l),
(256,704,l),
(256,732,l),
(170,732,l),
(56,780,l)
);
},
{
closed = 1;
nodes = (
(197,732,l),
(197,152,l),
(216,152,ls),
(256,152,o),
(311,176,o),
(312,184,c),
(312,691,l),
(328,694,o),
(338,701,o),
(343,707,c),
(240,787,l),
(188,732,l)
);
},
{
closed = 1;
nodes = (
(104,257,l),
(104,229,l),
(245,229,l),
(245,257,l)
);
},
{
closed = 1;
nodes = (
(300,478,l),
(308,450,l),
(647,450,ls),
(661,450,o),
(671,455,o),
(674,466,c),
(639,500,o),
(579,550,o),
(579,550,c),
(527,478,l)
);
},
{
closed = 1;
nodes = (
(293,333,l),
(301,305,l),
(642,305,ls),
(656,305,o),
(666,310,o),
(668,321,c),
(635,357,o),
(576,410,o),
(576,410,c),
(524,333,l)
);
},
{
closed = 1;
nodes = (
(856,846,l),
(830,809,o),
(762,731,o),
(713,690,c),
(717,682,l),
(797,688,o),
(896,711,o),
(940,726,c),
(957,718,o),
(970,718,o),
(978,727,c)
);
},
{
closed = 1;
nodes = (
(407,440,l),
(407,-95,l),
(430,-95,ls),
(474,-95,o),
(526,-76,o),
(526,-68,cs),
(526,402,l),
(548,405,o),
(555,414,o),
(556,426,c)
);
},
{
closed = 1;
nodes = (
(349,794,l),
(357,766,l),
(592,766,ls),
(606,766,o),
(616,771,o),
(618,782,c),
(587,814,o),
(533,860,o),
(533,860,c),
(486,794,l)
);
}
);
vertWidth = 1000;
width = 1000;
}
);
note = cid12936;
}
{
glyphname = uni5AFA.HK;
layers = (
{
layerId = m01;
shapes = (
{
closed = 1;
nodes = (
(375,654,l),
(375,625,l),
(565,625,l),
(565,654,l)
);
},
{
closed = 1;
nodes = (
(375,528,l),
(375,499,l),
(565,499,l),
(565,528,l)
);
},
{
closed = 1;
nodes = (
(540,397,l),
(540,367,l),
(726,367,l),
(726,397,l)
);
},
{
closed = 1;
nodes = (
(685,654,l),
(685,625,l),
(890,625,l),
(890,654,l)
);
},
{
closed = 1;
nodes = (
(685,528,l),
(685,499,l),
(890,499,l),
(890,528,l)
);
},
{
closed = 1;
nodes = (
(544,777,l),
(544,445,l),
(550,445,ls),
(565,445,o),
(587,458,o),
(588,464,c),
(588,738,l),
(608,742,o),
(625,750,o),
(631,758,c),
(564,810,l),
(534,777,l)
);
},
{
closed = 1;
nodes = (
(663,777,l),
(663,449,l),
(670,449,ls),
(689,449,o),
(707,460,o),
(707,465,cs),
(707,748,l),
(894,748,l),
(894,777,l),
(712,777,l),
(663,802,l)
);
},
{
closed = 1;
nodes = (
(352,777,l),
(352,-73,l),
(361,-73,ls),
(382,-73,o),
(396,-61,o),
(396,-54,cs),
(396,748,l),
(567,748,l),
(567,777,l),
(401,777,l),
(352,804,l)
);
},
{
closed = 1;
nodes = (
(866,777,l),
(866,10,ls),
(866,-5,o),
(862,-10,o),
(846,-10,cs),
(830,-10,o),
(756,-4,o),
(756,-4,c),
(756,-21,l),
(788,-24,o),
(808,-30,o),
(820,-38,cs),
(830,-46,o),
(834,-60,o),
(836,-73,c),
(903,-66,o),
(910,-38,o),
(910,4,cs),
(910,737,l),
(931,741,o),
(948,750,o),
(955,757,c),
(883,812,l),
(856,777,l)
);
},
{
closed = 1;
nodes = (
(700,397,l),
(700,53,ls),
(700,40,o),
(697,36,o),
(683,36,cs),
(667,36,o),
(602,40,o),
(602,40,c),
(602,25,l),
(631,21,o),
(649,16,o),
(660,8,cs),
(670,1,o),
(674,-12,o),
(675,-24,c),
(738,-17,o),
(745,8,o),
(745,47,cs),
(745,363,l),
(761,366,o),
(774,372,o),
(780,378,c),
(715,427,l),
(693,397,l)
);
},
{
closed = 1;
nodes = (
(512,397,l),
(512,254,ls),
(512,150,o),
(504,55,o),
(453,-17,c),
(468,-28,l),
(544,44,o),
(556,146,o),
(556,254,cs),
(556,397,l),
(566,397,l),
(512,425,l)
);
},
{
closed = 1;
nodes = (
(40,621,l),
(49,591,l),
(288,591,l),
(288,621,l)
);
},
{
closed = 1;
nodes = (
(156,833,l),
(143,678,o),
(87,352,o),
(49,212,c),
(69,207,o),
(86,208,o),
(95,215,c),
(132,382,o),
(179,659,o),
(196,798,c),
(222,801,o),
(230,810,o),
(233,824,c)
);
},
{
closed = 1;
nodes = (
(82,299,l),
(156,242,o),
(252,142,o),
(273,63,c),
(333,22,o),
(358,175,o),
(94,308,c)
);
},
{
closed = 1;
nodes = (
(256,621,l),
(245,373,o),
(210,119,o),
(39,-51,c),
(51,-65,l),
(250,101,o),
(285,353,o),
(302,585,c),
(321,587,o),
(331,590,o),
(338,599,c),
(278,653,l),
(247,621,l)
);
},
{
closed = 1;
nodes = (
(534,287,l),
(534,257,l),
(662,257,ls),
(675,257,o),
(684,262,o),
(686,273,c),
(666,293,o),
(637,315,o),
(637,315,c),
(611,287,l)
);
},
{
closed = 1;
nodes = (
(534,177,l),
(534,147,l),
(662,147,ls),
(675,147,o),
(684,152,o),
(686,163,c),
(666,183,o),
(637,205,o),
(637,205,c),
(611,177,l)
);
}
);
vertWidth = 1000;
width = 1000;
},
{
layerId = "435FFEB5-1267-4A4D-8575-60B204161920";
shapes = (
{
closed = 1;
nodes = (
(405,654,l),
(405,626,l),
(556,626,l),
(556,654,l)
);
},
{
closed = 1;
nodes = (
(405,524,l),
(405,496,l),
(556,496,l),
(556,524,l)
);
},
{
closed = 1;
nodes = (
(549,396,l),
(549,368,l),
(714,368,l),
(714,396,l)
);
},
{
closed = 1;
nodes = (
(713,654,l),
(713,626,l),
(864,626,l),
(864,654,l)
);
},
{
closed = 1;
nodes = (
(713,524,l),
(713,496,l),
(864,496,l),
(864,524,l)
);
},
{
closed = 1;
nodes = (
(511,780,l),
(511,439,l),
(530,439,ls),
(566,439,o),
(620,460,o),
(621,467,c),
(621,739,l),
(637,742,o),
(648,749,o),
(653,756,c),
(552,832,l),
(502,780,l)
);
},
{
closed = 1;
nodes = (
(658,780,l),
(658,447,l),
(674,447,ls),
(722,447,o),
(770,472,o),
(770,482,cs),
(770,752,l),
(870,752,l),
(870,780,l),
(774,780,l),
(658,826,l)
);
},
{
closed = 1;
nodes = (
(352,780,l),
(352,-95,l),
(372,-95,ls),
(425,-95,o),
(468,-66,o),
(468,-51,cs),
(468,752,l),
(570,752,l),
(570,780,l),
(472,780,l),
(352,832,l)
);
},
{
closed = 1;
nodes = (
(815,780,l),
(815,66,ls),
(815,55,o),
(812,48,o),
(798,48,cs),
(782,48,o),
(728,52,o),
(728,52,c),
(728,38,l),
(762,31,o),
(776,16,o),
(786,-3,cs),
(795,-23,o),
(798,-54,o),
(800,-97,c),
(927,-85,o),
(943,-37,o),
(943,52,cs),
(943,731,l),
(964,735,o),
(977,744,o),
(984,752,c),
(864,847,l),
(805,780,l)
);
},
{
closed = 1;
nodes = (
(671,396,l),
(671,98,ls),
(671,87,o),
(668,82,o),
(657,82,cs),
(644,82,o),
(598,85,o),
(598,85,c),
(598,70,l),
(626,65,o),
(638,54,o),
(646,39,cs),
(655,24,o),
(657,-2,o),
(658,-33,c),
(757,-24,o),
(770,15,o),
(770,87,cs),
(770,358,l),
(784,361,o),
(795,367,o),
(799,373,c),
(704,443,l),
(663,396,l)
);
},
{
closed = 1;
nodes = (
(516,396,l),
(516,234,ls),
(516,137,o),
(513,42,o),
(482,-29,c),
(492,-38,l),
(592,28,o),
(614,128,o),
(614,234,cs),
(614,396,l),
(631,396,l),
(516,439,l)
);
},
{
closed = 1;
nodes = (
(23,633,l),
(32,605,l),
(302,605,l),
(302,633,l)
);
},
{
closed = 1;
nodes = (
(112,853,l),
(107,709,o),
(59,352,o),
(22,188,c),
(71,176,o),
(117,181,o),
(137,197,c),
(169,363,o),
(209,679,o),
(221,806,c),
(248,808,o),
(256,818,o),
(259,832,c)
);
},
{
closed = 1;
nodes = (
(120,278,l),
(172,219,o),
(224,127,o),
(233,48,c),
(341,-35,o),
(433,195,o),
(130,284,c)
);
},
{
closed = 1;
nodes = (
(231,633,l),
(224,367,o),
(196,95,o),
(11,-78,c),
(21,-89,l),
(288,67,o),
(324,331,o),
(341,586,c),
(362,590,o),
(371,594,o),
(378,604,c),
(275,693,l),
(220,633,l)
);
},
{
closed = 1;
nodes = (
(554,289,l),
(554,261,l),
(682,261,ls),
(695,261,o),
(704,266,o),
(706,277,c),
(688,300,o),
(652,335,o),
(652,335,c),
(622,289,l)
);
},
{
closed = 1;
nodes = (
(554,184,l),
(554,156,l),
(682,156,ls),
(695,156,o),
(704,161,o),
(706,172,c),
(688,195,o),
(652,230,o),
(652,230,c),
(622,184,l)
);
}
);
vertWidth = 1000;
width = 1000;
}
);
note = cid15135;
}
{
glyphname = uni5B53.noaxe;
layers = (
{
layerId = m01;
name = ExtraLight;
shapes = (
{
closed = 1;
nodes = (
(109,556,l),
(287,311,o),
(567,149,o),
(888,103,c),
(895,127,o),
(921,136,o),
(951,137,c),
(952,150,l),
(593,191,o),
(298,342,o),
(128,572,c)
);
},
{
closed = 1;
nodes = (
(483,564,l),
(483,14,ls),
(483,-6,o),
(476,-13,o),
(450,-13,cs),
(423,-13,o),
(276,-2,o),
(276,-2,c),
(276,-19,l),
(335,-25,o),
(372,-31,o),
(392,-40,cs),
(409,-47,o),
(417,-59,o),
(421,-73,c),
(517,-64,o),
(527,-32,o),
(527,10,cs),
(527,528,l),
(551,531,o),
(560,540,o),
(563,554,c)
);
},
{
closed = 1;
nodes = (
(766,753,l),
(710,693,o),
(588,593,o),
(488,542,c),
(509,542,l),
(618,583,o),
(739,662,o),
(815,718,c),
(837,719,o),
(850,721,o),
(859,728,c),
(793,789,l),
(755,753,l)
);
},
{
closed = 1;
nodes = (
(149,753,l),
(158,723,l),
(791,723,l),
(791,753,l)
);
}
);
vertWidth = 1000;
width = 1000;
},
{
layerId = "435FFEB5-1267-4A4D-8575-60B204161920";
name = Heavy;
shapes = (
{
closed = 1;
nodes = (
(106,576,l),
(229,312,o),
(492,133,o),
(838,76,c),
(847,147,o),
(894,202,o),
(980,225,c),
(981,240,l),
(575,256,o),
(267,381,o),
(121,588,c)
);
},
{
closed = 1;
nodes = (
(425,575,l),
(425,84,ls),
(425,71,o),
(419,65,o),
(402,65,cs),
(373,65,o),
(214,74,o),
(214,74,c),
(214,62,l),
(286,49,o),
(313,33,o),
(337,10,cs),
(362,-13,o),
(369,-46,o),
(375,-95,c),
(552,-80,o),
(578,-25,o),
(578,74,cs),
(578,532,l),
(600,536,o),
(610,544,o),
(612,559,c)
);
},
{
closed = 1;
nodes = (
(697,754,l),
(662,698,o),
(583,592,o),
(519,535,c),
(531,535,l),
(641,575,o),
(768,644,o),
(860,701,c),
(882,703,o),
(893,706,o),
(901,716,c),
(767,832,l),
(685,754,l)
);
},
{
closed = 1;
nodes = (
(138,754,l),
(147,726,l),
(799,726,l),
(799,754,l)
);
}
);
vertWidth = 1000;
width = 1000;
}
);
note = cid15334;
}
{
glyphname = uni5C44.JP;
layers = (
{
layerId = m01;
shapes = (
{
closed = 1;
nodes = (
(184,778,l),
(184,748,l),
(837,748,l),
(837,778,l)
);
},
{
closed = 1;
nodes = (
(812,778,l),
(812,521,l),
(818,521,ls),
(833,521,o),
(855,533,o),
(856,539,c),
(856,738,l),
(875,742,o),
(893,750,o),
(900,758,c),
(832,811,l),
(802,778,l)
);
},
{
closed = 1;
nodes = (
(184,594,l),
(184,564,l),
(837,564,l),
(837,594,l)
);
},
{
closed = 1;
nodes = (
(166,517,ls),
(166,317,o),
(151,110,o),
(39,-58,c),
(57,-70,l),
(197,99,o),
(209,337,o),
(209,518,cs),
(209,778,l),
(220,778,l),
(166,806,l)
);
},
{
closed = 1;
nodes = (
(527,540,l),
(527,407,l),
(571,407,l),
(571,505,l),
(593,509,o),
(601,518,o),
(603,531,c)
);
},
{
closed = 1;
nodes = (
(307,480,l),
(307,421,o),
(277,358,o),
(248,333,cs),
(232,319,o),
(223,299,o),
(234,285,cs),
(246,269,o),
(277,277,o),
(293,295,cs),
(337,345,o),
(338,422,o),
(326,479,c)
);
},
{
closed = 1;
nodes = (
(315,427,l),
(315,397,l),
(846,397,l),
(846,427,l)
);
},
{
closed = 1;
nodes = (
(808,427,l),
(793,380,o),
(773,329,o),
(755,295,c),
(770,288,l),
(797,314,o),
(835,360,o),
(855,391,c),
(874,392,o),
(886,393,o),
(893,400,c),
(831,460,l),
(798,427,l)
);
},
{
closed = 1;
nodes = (
(426,334,l),
(431,169,o),
(393,24,o),
(197,-56,c),
(205,-71,l),
(422,5,o),
(467,146,o),
(474,296,c),
(495,297,o),
(507,305,o),
(511,321,c)
);
},
{
closed = 1;
nodes = (
(615,335,l),
(615,-2,ls),
(615,-39,o),
(627,-52,o),
(689,-52,cs),
(719,-52,o),
(749,-52,o),
(779,-52,cs),
(910,-52,o),
(934,-44,o),
(934,-23,cs),
(934,-13,o),
(930,-8,o),
(912,-3,c),
(909,114,l),
(895,114,l),
(888,65,o),
(878,14,o),
(873,1,cs),
(869,-8,o),
(866,-9,o),
(857,-10,cs),
(846,-11,o),
(817,-12,o),
(777,-12,cs),
(750,-12,o),
(723,-12,o),
(696,-12,cs),
(663,-12,o),
(659,-8,o),
(659,7,cs),
(659,301,l),
(677,304,o),
(687,313,o),
(689,325,c)
);
}
);
vertWidth = 1000;
width = 1000;
},
{
layerId = "435FFEB5-1267-4A4D-8575-60B204161920";
shapes = (
{
closed = 1;
nodes = (
(192,777,l),
(192,749,l),
(842,749,l),
(842,777,l)
);
},
{
closed = 1;
nodes = (
(752,777,l),
(752,524,l),
(778,524,ls),
(824,524,o),
(899,547,o),
(900,553,c),
(900,725,l),
(921,730,o),
(933,739,o),
(939,747,c),
(805,847,l),
(742,777,l)
);
},
{
closed = 1;
nodes = (
(192,601,l),
(192,573,l),
(842,573,l),
(842,601,l)
);
},
{
closed = 1;
nodes = (
(140,506,ls),
(140,309,o),
(130,91,o),
(16,-81,c),
(24,-87,l),
(271,68,o),
(282,324,o),
(282,506,cs),
(282,777,l),
(303,777,l),
(140,832,l)
);
},
{
closed = 1;
nodes = (
(517,551,l),
(517,416,l),
(655,416,l),
(655,512,l),
(679,516,o),
(686,525,o),
(687,538,c)
);
},
{
closed = 1;
nodes = (
(363,508,l),
(366,467,o),
(331,420,o),
(307,402,cs),
(285,386,o),
(256,364,o),
(267,321,cs),
(279,274,o),
(342,264,o),
(370,291,cs),
(421,342,o),
(401,447,o),
(376,508,c)
);
},
{
closed = 1;
nodes = (
(370,431,l),
(370,403,l),
(850,403,l),
(850,431,l)
);
},
{
closed = 1;
nodes = (
(782,431,l),
(779,394,o),
(771,344,o),
(763,301,c),
(772,295,l),
(812,316,o),
(869,353,o),
(902,379,c),
(923,380,o),
(933,382,o),
(941,391,c),
(834,493,l),
(772,431,l)
);
},
{
closed = 1;
nodes = (
(413,338,l),
(427,179,o),
(400,17,o),
(181,-81,c),
(187,-93,l),
(481,-22,o),
(536,119,o),
(550,288,c),
(575,289,o),
(585,299,o),
(588,315,c)
);
},
{
closed = 1;
nodes = (
(603,334,l),
(603,31,ls),
(603,-50,o),
(620,-74,o),
(718,-74,cs),
(742,-74,o),
(766,-74,o),
(790,-74,cs),
(920,-74,o),
(967,-53,o),
(967,-2,cs),
(967,21,o),
(960,35,o),
(929,49,c),
(925,152,l),
(915,152,l),
(897,105,o),
(881,67,o),
(871,53,cs),
(864,45,o),
(855,42,o),
(845,42,cs),
(835,42,o),
(820,42,o),
(806,42,cs),
(789,42,o),
(773,42,o),
(756,42,cs),
(737,42,o),
(734,46,o),
(734,59,cs),
(734,295,l),
(755,298,o),
(764,308,o),
(765,321,c)
);
}
);
vertWidth = 1000;
width = 1000;
}
);
note = cid15786;
}
{
glyphname = uni65B0.HK;
layers = (
{
layerId = m01;
shapes = (
{
closed = 1;
nodes = (
(121,791,l),
(129,762,l),
(429,762,ls),
(441,762,o),
(449,766,o),
(451,776,c),
(427,802,o),
(386,833,o),
(386,833,c),
(351,791,l)
);
},
{
closed = 1;
nodes = (
(62,685,l),
(70,656,l),
(485,656,ls),
(499,656,o),
(507,661,o),
(510,672,c),
(485,696,o),
(443,729,o),
(443,729,c),
(409,685,l)
);
},
{
closed = 1;
nodes = (
(130,640,l),
(160,597,o),
(180,541,o),
(183,495,c),
(228,454,o),
(278,551,o),
(144,646,c)
);
},
{
closed = 1;
nodes = (
(366,647,l),
(351,583,o),
(328,512,o),
(307,463,c),
(328,463,l),
(358,504,o),
(390,558,o),
(411,603,c),
(432,602,o),
(443,612,o),
(447,622,c)
);
},
{
closed = 1;
nodes = (
(42,479,l),
(50,449,l),
(508,449,ls),
(522,449,o),
(532,454,o),
(534,465,c),
(505,493,o),
(458,529,o),
(458,529,c),
(418,479,l)
);
},
{
closed = 1;
nodes = (
(53,325,l),
(61,296,l),
(496,296,ls),
(509,296,o),
(518,301,o),
(521,311,c),
(494,338,o),
(449,373,o),
(449,373,c),
(410,325,l)
);
},
{
closed = 1;
nodes = (
(254,436,l),
(254,-74,l),
(264,-74,ls),
(280,-74,o),
(299,-62,o),
(299,-55,cs),
(299,402,l),
(320,405,o),
(329,414,o),
(331,427,c)
);
},
{
closed = 1;
nodes = (
(237,325,l),
(199,210,o),
(131,100,o),
(41,15,c),
(54,-1,l),
(161,80,o),
(239,186,o),
(287,309,c),
(287,325,l)
);
},
{
closed = 1;
nodes = (
(289,235,l),
(341,202,o),
(406,140,o),
(424,90,c),
(483,57,o),
(507,185,o),
(299,244,c)
);
},
{
closed = 1;
nodes = (
(876,832,l),
(815,799,o),
(695,753,o),
(597,728,c),
(603,710,l),
(704,724,o),
(822,756,o),
(894,780,c),
(915,773,o),
(930,772,o),
(938,781,c)
);
},
{
closed = 1;
nodes = (
(566,755,l),
(566,431,ls),
(566,240,o),
(538,73,o),
(380,-59,c),
(395,-73,l),
(585,58,o),
(611,251,o),
(611,432,cs),
(611,721,l),
(621,723,o),
(628,726,o),
(631,731,c)
);
},
{
closed = 1;
nodes = (
(597,490,l),
(597,460,l),
(944,460,ls),
(958,460,o),
(966,465,o),
(969,476,c),
(940,503,o),
(894,540,o),
(894,540,c),
(852,490,l)
);
},
{
closed = 1;
nodes = (
(780,490,l),
(780,-74,l),
(786,-74,ls),
(809,-74,o),
(825,-61,o),
(825,-57,cs),
(825,490,l)
);
}
);
vertWidth = 1000;
width = 1000;
},
{
layerId = "435FFEB5-1267-4A4D-8575-60B204161920";
shapes = (
{
closed = 1;
nodes = (
(109,794,l),
(117,766,l),
(422,766,ls),
(436,766,o),
(446,771,o),
(448,782,c),
(417,814,o),
(363,860,o),
(363,860,c),
(316,794,l)
);
},
{
closed = 1;
nodes = (
(40,687,l),
(48,659,l),
(489,659,ls),
(503,659,o),
(513,664,o),
(516,675,c),
(483,707,o),
(426,755,o),
(426,755,c),
(377,687,l)
);
},
{
closed = 1;
nodes = (
(117,659,l),
(135,609,o),
(145,551,o),
(143,510,c),
(224,424,o),
(344,578,o),
(127,663,c)
);
},
{
closed = 1;
nodes = (
(330,668,l),
(323,611,o),
(307,529,o),
(291,474,c),
(303,474,l),
(353,515,o),
(403,567,o),
(436,606,c),
(458,604,o),
(469,612,o),
(473,624,c)
);
},
{
closed = 1;
nodes = (
(24,481,l),
(32,453,l),
(524,453,ls),
(538,453,o),
(548,458,o),
(551,469,c),
(512,507,o),
(445,564,o),
(445,564,c),
(386,481,l)
);
},
{
closed = 1;
nodes = (
(34,333,l),
(42,305,l),
(497,305,ls),
(511,305,o),
(521,310,o),
(524,321,c),
(487,358,o),
(424,412,o),
(424,412,c),
(368,333,l)
);
},
{
closed = 1;
nodes = (
(201,442,l),
(201,-95,l),
(226,-95,ls),
(277,-95,o),
(338,-70,o),
(338,-59,cs),
(338,403,l),
(361,406,o),
(368,416,o),
(369,427,c)
);
},
{
closed = 1;
nodes = (
(184,333,l),
(154,220,o),
(98,90,o),
(21,3,c),
(31,-8,l),
(168,71,o),
(279,181,o),
(332,317,c),
(332,333,l)
);
},
{
closed = 1;
nodes = (
(335,277,l),
(362,238,o),
(387,178,o),
(388,124,c),
(489,41,o),
(605,236,o),
(344,282,c)
);
},
{
closed = 1;
nodes = (
(824,856,l),
(781,809,o),
(693,738,o),
(619,698,c),
(622,687,l),
(723,695,o),
(834,715,o),
(902,737,c),
(936,727,o),
(957,730,o),
(969,741,c)
);
},
{
closed = 1;
nodes = (
(538,773,l),
(538,433,ls),
(538,250,o),
(526,63,o),
(400,-84,c),
(409,-94,l),
(659,36,o),
(677,248,o),
(677,429,cs),
(677,706,l),
(692,708,o),
(703,713,o),
(706,721,c)
);
},
{
closed = 1;
nodes = (
(598,496,l),
(598,468,l),
(956,468,ls),
(970,468,o),
(982,473,o),
(984,484,c),
(937,529,o),
(855,597,o),
(855,597,c),
(783,496,l)
);
},
{
closed = 1;
nodes = (
(744,496,l),
(744,-94,l),
(770,-94,ls),
(843,-94,o),
(885,-64,o),
(886,-56,c),
(886,496,l)
);
}
);
vertWidth = 1000;
width = 1000;
}
);
note = cid20073;
}
{
glyphname = uni6757.JP;
layers = (
{
layerId = m01;
shapes = (
{
closed = 1;
nodes = (
(478,834,l),
(478,702,l),
(522,702,l),
(522,797,l),
(546,800,o),
(556,810,o),
(558,824,c)
);
},
{
closed = 1;
nodes = (
(484,273,l),
(431,273,l),
(344,155,o),
(205,47,o),
(48,-25,c),
(57,-42,l),
(235,26,o),
(387,129,o),
(484,258,c)
);
},
{
closed = 1;
nodes = (
(152,527,ls),
(152,473,o),
(172,465,o),
(291,465,cs),
(532,464,ls),
(833,463,o),
(871,470,o),
(871,497,cs),
(871,506,o),
(863,510,o),
(837,516,cs),
(833,517,l),
(824,517,l),
(816,514,o),
(805,512,o),
(796,510,cs),
(788,509,o),
(777,508,o),
(762,507,cs),
(733,505,o),
(638,504,o),
(533,504,cs),
(288,504,ls),
(200,504,o),
(196,509,o),
(196,529,cs),
(196,717,l),
(208,717,l),
(152,744,l)
);
},
{
closed = 1;
nodes = (
(168,717,l),
(176,687,l),
(874,687,ls),
(887,687,o),
(896,692,o),
(899,703,c),
(870,731,o),
(823,767,o),
(823,767,c),
(783,717,l)
);
},
{
closed = 1;
nodes = (
(510,268,l),
(591,138,o),
(743,19,o),
(905,-41,c),
(913,-17,o),
(932,-2,o),
(953,0,c),
(954,11,l),
(787,56,o),
(622,159,o),
(527,278,c)
);
},
{
closed = 1;
nodes = (
(59,293,l),
(68,263,l),
(922,263,ls),
(936,263,o),
(946,268,o),
(949,279,c),
(917,309,o),
(867,347,o),
(867,347,c),
(822,293,l)
);
},
{
closed = 1;
nodes = (
(476,419,l),
(476,-72,l),
(485,-72,ls),
(501,-72,o),
(520,-60,o),
(520,-52,cs),
(520,382,l),
(545,385,o),
(553,395,o),
(556,409,c)
);
}
);
vertWidth = 1000;
width = 1000;
},
{
layerId = "435FFEB5-1267-4A4D-8575-60B204161920";
shapes = (
{
closed = 1;
nodes = (
(426,856,l),
(426,705,l),
(571,705,l),
(571,815,l),
(599,819,o),
(605,829,o),
(607,843,c)
);
},
{
closed = 1;
nodes = (
(431,277,l),
(304,277,l),
(250,165,o),
(147,47,o),
(17,-27,c),
(24,-37,l),
(194,13,o),
(337,88,o),
(431,190,c)
);
},
{
closed = 1;
nodes = (
(126,549,ls),
(126,456,o),
(174,443,o),
(326,443,cs),
(526,443,ls),
(831,443,o),
(883,462,o),
(883,520,cs),
(883,543,o),
(866,559,o),
(815,572,c),
(810,574,l),
(801,574,l),
(785,569,o),
(763,564,o),
(752,563,cs),
(741,561,o),
(719,559,o),
(697,557,cs),
(668,556,o),
(597,554,o),
(535,554,cs),
(324,554,ls),
(269,554,o),
(263,558,o),
(263,573,cs),
(263,719,l),
(277,719,l),
(126,775,l)
);
},
{
closed = 1;
nodes = (
(182,719,l),
(190,691,l),
(882,691,ls),
(896,691,o),
(907,696,o),
(910,707,c),
(862,747,o),
(784,804,o),
(784,804,c),
(715,719,l)
);
},
{
closed = 1;
nodes = (
(563,289,l),
(620,130,o),
(722,23,o),
(871,-35,c),
(886,38,o),
(928,86,o),
(982,102,c),
(984,113,l),
(795,139,o),
(646,204,o),
(571,292,c)
);
},
{
closed = 1;
nodes = (
(31,292,l),
(39,264,l),
(942,264,ls),
(957,264,o),
(968,269,o),
(971,280,c),
(921,323,o),
(837,386,o),
(837,386,c),
(763,292,l)
);
},
{
closed = 1;
nodes = (
(421,422,l),
(421,-95,l),
(448,-95,ls),
(508,-95,o),
(575,-69,o),
(575,-59,cs),
(575,377,l),
(603,382,o),
(610,392,o),
(612,406,c)
);
}
);
vertWidth = 1000;
width = 1000;
}
);
note = cid20769;
}
{
glyphname = uni6AEC.HK;
layers = (
{
layerId = m01;
shapes = (
{
closed = 1;
nodes = (
(483,231,l),
(523,202,o),
(568,148,o),
(576,104,c),
(631,66,o),
(668,187,o),
(494,239,c)
);
},
{
closed = 1;
nodes = (
(326,690,l),
(334,661,l),
(613,661,ls),
(626,661,o),
(634,666,o),
(637,677,c),
(615,699,o),
(579,729,o),
(579,729,c),
(548,690,l)
);
},
{
closed = 1;
nodes = (
(317,473,l),
(325,443,l),
(624,443,ls),
(636,443,o),
(645,448,o),
(648,459,c),
(626,482,o),
(590,511,o),
(590,511,c),
(559,473,l)
);
},
{
closed = 1;
nodes = (
(325,323,l),
(333,294,l),
(621,294,ls),
(634,294,o),
(643,299,o),
(645,309,c),
(624,332,o),
(588,361,o),
(588,361,c),
(558,323,l)
);
},
{
closed = 1;
nodes = (
(371,643,l),
(389,603,o),
(403,543,o),
(399,493,c),
(436,452,o),
(486,543,o),
(386,648,c)
);
},
{
closed = 1;
nodes = (
(525,652,l),
(514,586,o),
(499,510,o),
(485,455,c),
(503,449,l),
(524,495,o),
(549,557,o),
(567,611,c),
(586,612,o),
(597,621,o),
(600,632,c)
);
},
{
closed = 1;
nodes = (
(442,323,l),
(412,217,o),
(358,117,o),
(279,39,c),
(292,22,l),
(385,98,o),
(449,194,o),
(488,307,c),
(488,323,l)
);
},
{
closed = 1;
nodes = (
(655,783,l),
(655,220,l),
(663,220,ls),
(683,220,o),
(699,232,o),
(699,236,cs),
(699,754,l),
(886,754,l),
(886,783,l),
(704,783,l),
(655,809,l)
);
},
{
closed = 1;
nodes = (
(863,783,l),
(863,224,l),
(869,224,ls),
(885,224,o),
(906,237,o),
(907,243,c),
(907,747,l),
(925,750,o),
(940,758,o),
(946,764,c),
(883,815,l),
(854,783,l)
);
},
{
closed = 1;
nodes = (
(679,622,l),
(679,592,l),
(884,592,l),
(884,622,l)
);
},
{
closed = 1;
nodes = (
(679,460,l),
(679,431,l),
(884,431,l),
(884,460,l)
);
},
{
closed = 1;
nodes = (
(679,285,l),
(679,255,l),
(884,255,l),
(884,285,l)
);
},
{
closed = 1;
nodes = (
(449,433,l),
(449,-72,l),
(459,-72,ls),
(475,-72,o),
(494,-60,o),
(494,-52,cs),
(494,397,l),
(518,401,o),
(528,410,o),
(530,425,c)
);
},
{
closed = 1;
nodes = (
(784,285,l),
(784,-13,ls),
(784,-42,o),
(792,-56,o),
(834,-56,cs),
(876,-56,ls),
(950,-56,o),
(968,-47,o),
(968,-28,cs),
(968,-20,o),
(964,-14,o),
(949,-9,c),
(945,86,l),
(933,86,l),
(926,48,o),
(918,3,o),
(913,-8,cs),
(911,-14,o),
(908,-15,o),
(903,-15,cs),
(898,-16,o),
(888,-16,o),
(874,-16,cs),
(844,-16,ls),
(830,-16,o),
(828,-13,o),
(828,-2,cs),
(828,256,ls),
(828,263,o),
(828,274,o),
(828,285,c)
);
},
{
closed = 1;
nodes = (
(48,605,l),
(56,575,l),
(325,575,ls),
(338,575,o),
(348,580,o),
(350,591,c),
(324,619,o),
(281,656,o),
(281,656,c),
(243,605,l)
);
},
{
closed = 1;
nodes = (
(173,605,l),
(150,452,o),
(106,297,o),
(37,174,c),
(52,161,l),
(139,282,o),
(193,430,o),
(223,589,c),
(223,605,l)
);
},
{
closed = 1;
nodes = (
(177,839,l),
(177,-70,l),
(187,-70,ls),
(203,-70,o),
(222,-58,o),
(222,-50,cs),
(222,802,l),
(246,806,o),
(254,815,o),
(257,829,c)
);
},
{
closed = 1;
nodes = (
(206,433,l),
(231,393,o),
(262,327,o),
(269,279,c),
(315,238,o),
(361,337,o),
(220,439,c)
);
},
{
closed = 1;
nodes = (
(708,276,l),
(699,132,o),
(663,28,o),
(553,-57,c),
(562,-73,l),
(691,3,o),
(743,110,o),
(760,276,c)
);
},
{
closed = 1;
nodes = (
(364,795,l),
(372,765,l),
(574,765,ls),
(588,765,o),
(596,770,o),
(599,781,c),
(576,804,o),
(541,833,o),
(541,833,c),
(509,795,l)
);
}
);
vertWidth = 1000;
width = 1000;
},
{
layerId = "435FFEB5-1267-4A4D-8575-60B204161920";
shapes = (
{
closed = 1;
nodes = (
(517,231,l),
(539,196,o),
(560,142,o),
(561,95,c),
(648,20,o),
(754,189,o),
(526,236,c)
);
},
{
closed = 1;
nodes = (
(300,690,l),
(308,662,l),
(633,662,ls),
(646,662,o),
(656,667,o),
(659,678,c),
(626,711,o),
(571,758,o),
(571,758,c),
(522,690,l)
);
},
{
closed = 1;
nodes = (
(296,476,l),
(304,448,l),
(654,448,ls),
(667,448,o),
(677,453,o),
(679,464,c),
(650,496,o),
(597,544,o),
(597,544,c),
(551,476,l)
);
},
{
closed = 1;
nodes = (
(314,299,l),
(322,271,l),
(635,271,ls),
(649,271,o),
(659,276,o),
(661,287,c),
(630,321,o),
(575,373,o),
(575,373,c),
(527,299,l)
);
},
{
closed = 1;
nodes = (
(340,652,l),
(357,602,o),
(365,545,o),
(361,504,c),
(434,430,o),
(547,566,o),
(351,656,c)
);
},
{
closed = 1;
nodes = (
(507,659,l),
(500,591,o),
(487,517,o),
(474,467,c),
(487,461,l),
(525,498,o),
(568,552,o),
(599,603,c),
(621,604,o),
(632,613,o),
(636,625,c)
);
},
{
closed = 1;
nodes = (
(389,299,l),
(365,198,o),
(321,89,o),
(256,13,c),
(266,1,l),
(386,70,o),
(482,164,o),
(528,283,c),
(528,299,l)
);
},
{
closed = 1;
nodes = (
(649,781,l),
(649,230,l),
(666,230,ls),
(713,230,o),
(757,255,o),
(757,266,cs),
(757,753,l),
(871,753,l),
(871,781,l),
(760,781,l),
(649,827,l)
);
},
{
closed = 1;
nodes = (
(821,781,l),
(821,234,l),
(840,234,ls),
(880,234,o),
(935,258,o),
(936,266,c),
(936,737,l),
(955,740,o),
(967,748,o),
(973,755,c),
(865,839,l),
(811,781,l)
);
},
{
closed = 1;
nodes = (
(691,617,l),
(691,589,l),
(889,589,l),
(889,617,l)
);
},
{
closed = 1;
nodes = (
(691,458,l),
(691,430,l),
(889,430,l),
(889,458,l)
);
},
{
closed = 1;
nodes = (
(691,290,l),
(691,262,l),
(899,262,l),
(899,290,l)
);
},
{
closed = 1;
nodes = (
(415,441,l),
(415,-93,l),
(435,-93,ls),
(479,-93,o),
(528,-72,o),
(528,-63,cs),
(528,399,l),
(555,403,o),
(563,413,o),
(565,427,c)
);
},
{
closed = 1;
nodes = (
(779,290,l),
(779,5,ls),
(779,-58,o),
(786,-81,o),
(853,-81,cs),
(885,-81,ls),
(961,-81,o),
(993,-58,o),
(993,-17,cs),
(993,3,o),
(988,17,o),
(965,28,c),
(961,108,l),
(950,108,l),
(939,73,o),
(927,40,o),
(921,30,c),
(916,25,o),
(911,23,o),
(906,23,cs),
(903,23,o),
(900,23,o),
(897,23,cs),
(891,23,ls),
(883,23,o),
(882,27,o),
(882,37,cs),
(882,258,ls),
(882,266,o),
(882,279,o),
(882,290,c)
);
},
{
closed = 1;
nodes = (
(16,600,l),
(23,572,l),
(315,572,ls),
(329,572,o),
(338,577,o),
(341,588,c),
(316,624,o),
(264,683,o),
(264,683,c),
(219,600,l)
);
},
{
closed = 1;
nodes = (
(102,600,l),
(90,443,o),
(66,270,o),
(15,144,c),
(27,133,l),
(133,256,o),
(199,407,o),
(225,584,c),
(225,600,l)
);
},
{
closed = 1;
nodes = (
(110,857,l),
(110,-95,l),
(134,-95,ls),
(177,-95,o),
(230,-65,o),
(230,-52,cs),
(230,820,l),
(251,823,o),
(257,831,o),
(258,843,c)
);
},
{
closed = 1;
nodes = (
(218,452,l),
(238,415,o),
(257,358,o),
(256,310,c),
(332,239,o),
(432,388,o),
(229,457,c)
);
},
{
closed = 1;
nodes = (
(685,284,l),
(681,139,o),
(650,13,o),
(541,-83,c),
(547,-96,l),
(708,-17,o),
(780,111,o),
(799,284,c)
);
},
{
closed = 1;
nodes = (
(339,794,l),
(347,766,l),
(593,766,ls),
(607,766,o),
(617,771,o),
(619,782,c),
(588,814,o),
(534,860,o),
(534,860,c),
(487,794,l)
);
}
);
vertWidth = 1000;
width = 1000;
}
);
note = cid22332;
}
{
glyphname = uni6C26.HK;
layers = (
{
layerId = m01;
shapes = (
{
closed = 1;
nodes = (
(734,535,l),
(737,297,o),
(757,46,o),
(873,-42,c),
(903,-69,o),
(939,-84,o),
(954,-66,cs),
(961,-57,o),
(956,-46,o),
(938,-24,c),
(951,103,l),
(938,105,l),
(930,73,o),
(920,40,o),
(910,10,cs),
(906,-2,o),
(902,-3,o),
(892,5,cs),
(801,73,o),
(778,315,o),
(780,496,c),
(801,499,o),
(815,504,o),
(821,511,c),
(756,567,l),
(725,535,l)
);
},
{
closed = 1;
nodes = (
(140,535,l),
(149,505,l),
(782,505,l),
(782,535,l)
);
},
{
closed = 1;
nodes = (
(247,634,l),
(255,605,l),
(829,605,ls),
(843,605,o),
(853,610,o),
(856,621,c),
(827,648,o),
(779,686,o),
(779,686,c),
(738,634,l)
);
},
{
closed = 1;
nodes = (
(243,734,l),
(229,704,l),
(887,704,ls),
(900,704,o),
(910,709,o),
(912,720,c),
(881,751,o),
(832,787,o),
(832,787,c),
(789,734,l)
);
},
{
closed = 1;
nodes = (
(280,833,l),
(237,725,o),
(149,596,o),
(59,523,c),
(73,510,l),
(175,578,o),
(271,697,o),
(321,795,c),
(344,791,o),
(352,794,o),
(357,804,c)
);
},
{
closed = 1;
nodes = (
(90,351,l),
(98,321,l),
(691,321,ls),
(704,321,o),
(713,326,o),
(716,337,c),
(686,366,o),
(637,404,o),
(637,404,c),
(594,351,l)
);
},
{
closed = 1;
nodes = (
(189,445,l),
(197,416,l),
(606,416,ls),
(620,416,o),
(629,421,o),
(631,432,c),
(601,460,o),
(552,499,o),
(552,499,c),
(509,445,l)
);
},
{
closed = 1;
nodes = (
(166,283,l),
(212,260,o),
(267,213,o),
(285,173,c),
(340,147,o),
(359,261,o),
(175,294,c)
);
},
{
closed = 1;
nodes = (
(493,312,l),
(420,214,o),
(264,113,o),
(109,61,c),
(118,45,l),
(285,88,o),
(445,178,o),
(524,266,c),
(547,260,o),
(555,263,o),
(562,273,c)
);
},
{
closed = 1;
nodes = (
(597,239,l),
(499,105,o),
(285,-9,o),
(60,-58,c),
(66,-75,l),
(305,-36,o),
(522,71,o),
(626,193,c),
(647,186,o),
(656,189,o),
(664,198,c)
);
},
{
closed = 1;
nodes = (
(358,349,l),
(337,317,o),
(304,283,o),
(268,255,c),
(282,237,l),
(334,263,o),
(385,296,o),
(418,333,c),
(418,349,l)
);
},
{
closed = 1;
nodes = (
(459,74,l),
(550,37,o),
(646,-20,o),
(708,-72,c),
(771,-88,o),
(770,24,o),
(467,87,c)
);
}
);
vertWidth = 1000;
width = 1000;
},
{
layerId = "435FFEB5-1267-4A4D-8575-60B204161920";
shapes = (
{
closed = 1;
nodes = (
(664,530,l),
(666,303,o),
(692,73,o),
(803,-40,c),
(840,-85,o),
(911,-120,o),
(960,-76,cs),
(984,-54,o),
(980,-10,o),
(951,50,c),
(960,202,l),
(951,204,l),
(940,168,o),
(927,131,o),
(915,106,cs),
(909,95,o),
(902,94,o),
(893,103,cs),
(830,164,o),
(809,355,o),
(815,486,c),
(834,490,o),
(849,496,o),
(855,504,c),
(721,607,l),
(652,530,l)
);
},
{
closed = 1;
nodes = (
(139,530,l),
(148,502,l),
(753,502,l),
(753,530,l)
);
},
{
closed = 1;
nodes = (
(264,633,l),
(272,605,l),
(842,605,ls),
(856,605,o),
(867,610,o),
(870,621,c),
(823,661,o),
(746,717,o),
(746,717,c),
(678,633,l)
);
},
{
closed = 1;
nodes = (
(244,734,l),
(230,706,l),
(908,706,ls),
(923,706,o),
(934,711,o),
(937,722,c),
(885,766,o),
(805,824,o),
(805,824,c),
(733,734,l)
);
},
{
closed = 1;
nodes = (
(230,855,l),
(202,726,o),
(129,585,o),
(40,508,c),
(47,501,l),
(194,557,o),
(313,666,o),
(383,785,c),
(410,782,o),
(418,787,o),
(422,798,c)
);
},
{
closed = 1;
nodes = (
(50,359,l),
(58,331,l),
(658,331,ls),
(673,331,o),
(683,336,o),
(686,347,c),
(645,383,o),
(579,435,o),
(579,435,c),
(520,359,l)
);
},
{
closed = 1;
nodes = (
(155,444,l),
(163,416,l),
(542,416,ls),
(556,416,o),
(566,421,o),
(569,432,c),
(530,467,o),
(466,516,o),
(466,516,c),
(410,444,l)
);
},
{
closed = 1;
nodes = (
(128,293,l),
(162,263,o),
(198,211,o),
(209,164,c),
(315,103,o),
(392,303,o),
(136,299,c)
);
},
{
closed = 1;
nodes = (
(451,337,l),
(387,224,o),
(247,102,o),
(84,35,c),
(91,22,l),
(286,58,o),
(451,152,o),
(541,253,c),
(564,249,o),
(574,254,o),
(580,264,c)
);
},
{
closed = 1;
nodes = (
(543,233,l),
(454,104,o),
(264,-18,o),
(49,-81,c),
(54,-94,l),
(300,-66,o),
(511,32,o),
(625,147,c),
(648,141,o),
(658,145,o),
(665,155,c)
);
},
{
closed = 1;
nodes = (
(263,354,l),
(256,314,o),
(244,264,o),
(228,230,c),
(237,218,l),
(297,247,o),
(370,289,o),
(405,338,c),
(405,354,l)
);
},
{
closed = 1;
nodes = (
(466,53,l),
(525,19,o),
(576,-35,o),
(598,-86,c),
(719,-155,o),
(818,69,o),
(474,59,c)
);
}
);
vertWidth = 1000;
width = 1000;
}
);
note = cid22896;
}
{
glyphname = uni7684.HK;
layers = (
{
layerId = m01;
shapes = (
{
closed = 1;
nodes = (
(140,632,l),
(404,632,l),
(404,662,l),
(145,662,l),
(96,689,l),
(96,-45,l),
(105,-45,ls),
(125,-45,o),
(140,-34,o),
(140,-28,cs)
);
},
{
closed = 1;
nodes = (
(235,834,l),
(221,774,o),
(198,687,o),
(184,639,c),
(206,639,l),
(228,681,o),
(260,747,o),
(280,795,c),
(300,795,o),
(312,802,o),
(316,815,c)
);
},
{
closed = 1;
nodes = (
(850,662,l),
(861,662,l),
(854,303,o),
(838,51,o),
(799,12,cs),
(788,0,o),
(781,-2,o),
(760,-2,cs),
(737,-2,o),
(664,5,o),
(619,10,c),
(618,-9,l),
(656,-15,o),
(700,-25,o),
(715,-34,cs),
(729,-42,o),
(733,-57,o),
(733,-72,c),
(774,-72,o),
(813,-58,o),
(837,-25,cs),
(881,31,o),
(900,271,o),
(907,628,c),
(929,629,o),
(941,634,o),
(949,642,c),
(881,698,l)
);
},
{
closed = 1;
nodes = (
(362,662,l),
(372,662,l),
(372,-18,l),
(378,-18,ls),
(394,-18,o),
(415,-4,o),
(416,2,c),
(416,623,l),
(436,627,o),
(454,634,o),
(460,642,c),
(392,695,l)
);
},
{
closed = 1;
nodes = (
(898,662,l),
(586,662,l),
(573,632,l),
(898,632,l)
);
},
{
closed = 1;
nodes = (
(612,833,l),
(576,678,o),
(510,529,o),
(441,432,c),
(456,421,l),
(538,509,o),
(609,646,o),
(655,790,c),
(677,789,o),
(688,799,o),
(692,809,c)
);
},
{
closed = 1;
nodes = (
(410,382,l),
(120,382,l),
(120,352,l),
(410,352,l)
);
},
{
closed = 1;
nodes = (
(410,87,l),
(120,87,l),
(120,57,l),
(410,57,l)
);
},
{
closed = 1;
nodes = (
(488,362,l),
(496,332,l),
(772,332,ls),
(786,332,o),
(796,337,o),
(798,348,c),
(768,376,o),
(721,413,o),
(721,413,c),
(680,362,l)
);
}
);
vertWidth = 1000;
width = 1000;
},
{
layerId = "435FFEB5-1267-4A4D-8575-60B204161920";
shapes = (
{
closed = 1;
nodes = (
(196,627,l),
(352,627,l),
(352,655,l),
(200,655,l),
(66,710,l),
(66,-54,l),
(87,-54,ls),
(145,-54,o),
(196,-23,o),
(196,-8,cs)
);
},
{
closed = 1;
nodes = (
(204,850,l),
(202,785,o),
(195,690,o),
(190,636,c),
(225,636,l),
(262,675,o),
(319,738,o),
(354,779,c),
(378,779,o),
(392,786,o),
(397,804,c)
);
},
{
closed = 1;
nodes = (
(785,659,l),
(797,659,l),
(791,301,o),
(783,108,o),
(746,75,cs),
(736,66,o),
(726,62,o),
(709,62,cs),
(683,62,o),
(615,66,o),
(567,70,c),
(566,58,l),
(618,47,o),
(655,29,o),
(674,7,cs),
(692,-13,o),
(698,-46,o),
(698,-93,c),
(773,-93,o),
(819,-76,o),
(858,-37,cs),
(917,24,o),
(929,186,o),
(936,606,c),
(960,610,o),
(973,617,o),
(981,627,c),
(860,735,l)
);
},
{
closed = 1;
nodes = (
(309,655,l),
(319,655,l),
(319,-18,l),
(341,-18,ls),
(388,-18,o),
(453,10,o),
(454,19,c),
(454,605,l),
(474,610,o),
(487,618,o),
(494,627,c),
(371,724,l)
);
},
{
closed = 1;
nodes = (
(870,659,l),
(581,659,l),
(569,631,l),
(870,631,l)
);
},
{
closed = 1;
nodes = (
(571,852,l),
(548,700,o),
(498,533,o),
(449,427,c),
(460,420,l),
(566,503,o),
(653,623,o),
(717,777,c),
(740,777,o),
(753,785,o),
(757,798,c)
);
},
{
closed = 1;
nodes = (
(376,379,l),
(135,379,l),
(135,351,l),
(376,351,l)
);
},
{
closed = 1;
nodes = (
(376,89,l),
(135,89,l),
(135,61,l),
(376,61,l)
);
},
{
closed = 1;
nodes = (
(478,364,l),
(486,336,l),
(745,336,ls),
(759,336,o),
(770,341,o),
(772,352,c),
(732,392,o),
(661,452,o),
(661,452,c),
(599,364,l)
);
}
);
vertWidth = 1000;
width = 1000;
}
);
note = cid27570;
}
{
glyphname = uni7D00.HK;
layers = (
{
layerId = m01;
shapes = (
{
closed = 1;
nodes = (
(449,762,l),
(458,733,l),
(847,733,l),
(847,762,l)
);
},
{
closed = 1;
nodes = (
(832,762,l),
(832,348,l),
(838,348,ls),
(853,348,o),
(876,361,o),
(877,367,c),
(877,723,l),
(895,727,o),
(913,735,o),
(919,743,c),
(852,795,l),
(823,762,l)
);
},
{
closed = 1;
nodes = (
(510,443,l),
(510,414,l),
(861,414,l),
(861,443,l)
);
},
{
closed = 1;
nodes = (
(224,834,l),
(198,762,o),
(164,685,o),
(135,635,c),
(151,626,l),
(188,667,o),
(231,731,o),
(262,788,c),
(283,786,o),
(294,795,o),
(299,805,c)
);
},
{
closed = 1;
nodes = (
(331,719,l),
(282,613,o),
(195,471,o),
(121,376,c),
(146,376,l),
(228,462,o),
(315,583,o),
(366,672,c),
(386,669,o),
(400,676,o),
(405,687,c)
);
},
{
closed = 1;
nodes = (
(67,337,l),
(77,339,o),
(86,345,o),
(91,357,c),
(221,374,o),
(321,390,o),
(395,403,c),
(394,421,l),
(249,410,o),
(108,399,o),
(47,398,c)
);
},
{
closed = 1;
nodes = (
(54,673,l),
(98,641,o),
(151,583,o),
(164,538,c),
(213,506,o),
(240,616,o),
(65,682,c)
);
},
{
closed = 1;
nodes = (
(303,515,l),
(336,468,o),
(374,391,o),
(378,335,c),
(427,292,o),
(472,407,o),
(316,521,c)
);
},
{
closed = 1;
nodes = (
(313,300,l),
(341,245,o),
(371,161,o),
(372,98,c),
(420,49,o),
(470,169,o),
(328,304,c)
);
},
{
closed = 1;
nodes = (
(229,392,l),
(229,-72,l),
(235,-72,ls),
(256,-72,o),
(273,-60,o),
(273,-55,cs),
(273,395,l)
);
},
{
closed = 1;
nodes = (
(126,302,l),
(111,189,o),
(80,74,o),
(42,-6,c),
(60,-15,l),
(107,56,o),
(145,162,o),
(168,261,c),
(188,261,o),
(198,271,o),
(202,282,c)
);
},
{
closed = 1;
nodes = (
(487,160,l),
(487,7,ls),
(487,-40,o),
(505,-54,o),
(588,-54,cs),
(730,-54,ls),
(920,-54,o),
(952,-49,o),
(952,-23,cs),
(952,-14,o),
(947,-8,o),
(927,-2,c),
(925,173,l),
(910,173,l),
(900,96,o),
(890,25,o),
(882,5,c),
(879,-7,o),
(875,-11,o),
(861,-12,cs),
(842,-14,o),
(794,-15,o),
(727,-15,cs),
(591,-15,ls),
(538,-15,o),
(531,-8,o),
(531,13,cs),
(531,160,l)
);
},
{
closed = 1;
nodes = (
(487,617,l),
(487,100,l),
(531,100,l),
(531,583,l),
(553,585,o),
(561,594,o),
(564,608,c)
);
}
);
vertWidth = 1000;
width = 1000;
},
{
layerId = "435FFEB5-1267-4A4D-8575-60B204161920";
shapes = (
{
closed = 1;
nodes = (
(448,768,l),
(457,740,l),
(813,740,l),
(813,768,l)
);
},
{
closed = 1;
nodes = (
(763,768,l),
(763,347,l),
(788,347,ls),
(835,347,o),
(906,372,o),
(908,379,c),
(908,717,l),
(928,722,o),
(941,731,o),
(947,739,c),
(816,838,l),
(753,768,l)
);
},
{
closed = 1;
nodes = (
(544,449,l),
(544,421,l),
(804,421,l),
(804,449,l)
);
},
{
closed = 1;
nodes = (
(188,856,l),
(170,777,o),
(145,690,o),
(124,636,c),
(135,629,l),
(197,662,o),
(265,713,o),
(320,772,c),
(343,770,o),
(357,778,o),
(362,791,c)
);
},
{
closed = 1;
nodes = (
(304,733,l),
(262,623,o),
(183,470,o),
(105,368,c),
(118,368,l),
(238,447,o),
(358,561,o),
(426,645,c),
(449,641,o),
(462,648,o),
(467,659,c)
);
},
{
closed = 1;
nodes = (
(57,295,l),
(69,297,o),
(81,305,o),
(88,318,c),
(227,365,o),
(325,403,o),
(391,431,c),
(390,444,l),
(237,435,o),
(83,429,o),
(20,429,c)
);
},
{
closed = 1;
nodes = (
(23,705,l),
(55,660,o),
(89,593,o),
(96,533,c),
(204,452,o),
(309,660,o),
(32,710,c)
);
},
{
closed = 1;
nodes = (
(296,523,l),
(320,471,o),
(344,400,o),
(346,336,c),
(449,242,o),
(572,443,o),
(305,527,c)
);
},
{
closed = 1;
nodes = (
(296,290,l),
(317,232,o),
(337,156,o),
(335,87,c),
(435,-14,o),
(566,187,o),
(306,294,c)
);
},
{
closed = 1;
nodes = (
(176,399,l),
(176,-94,l),
(200,-94,ls),
(266,-94,o),
(306,-67,o),
(306,-59,cs),
(306,409,l)
);
},
{
closed = 1;
nodes = (
(83,290,l),
(75,184,o),
(51,71,o),
(20,-6,c),
(34,-14,l),
(103,42,o),
(159,127,o),
(198,230,c),
(221,231,o),
(232,240,o),
(236,253,c)
);
},
{
closed = 1;
nodes = (
(484,160,l),
(484,54,ls),
(484,-45,o),
(516,-68,o),
(635,-68,cs),
(740,-68,ls),
(919,-68,o),
(975,-42,o),
(975,19,cs),
(975,44,o),
(967,60,o),
(928,76,c),
(925,238,l),
(915,238,l),
(889,163,o),
(869,106,o),
(855,84,cs),
(847,71,o),
(841,68,o),
(825,67,cs),
(811,66,o),
(785,66,o),
(757,66,cs),
(665,66,ls),
(636,66,o),
(629,71,o),
(629,89,cs),
(629,160,l)
);
},
{
closed = 1;
nodes = (
(484,615,l),
(484,150,l),
(629,150,l),
(629,574,l),
(652,578,o),
(658,587,o),
(660,600,c)
);
}
);
vertWidth = 1000;
width = 1000;
}
);
note = cid30664;
}
